*
*
G04 PADS VX.1.1 Build Number: 678707 generated Gerber (RS-274-X) file*
G04 PC Version=2.1*
*
%IN "opqbox2.pcb"*%
*
%MOIN*%
*
%FSLAX35Y35*%
*
*
*
*
G04 PC Standard Apertures*
*
*
G04 Thermal Relief Aperture macro.*
%AMTER*
1,1,$1,0,0*
1,0,$1-$2,0,0*
21,0,$3,$4,0,0,45*
21,0,$3,$4,0,0,135*
%
*
*
G04 Annular Aperture macro.*
%AMANN*
1,1,$1,0,0*
1,0,$2,0,0*
%
*
*
G04 Odd Aperture macro.*
%AMODD*
1,1,$1,0,0*
1,0,$1-0.005,0,0*
%
*
*
G04 PC Custom Aperture Macros*
*
*
*
*
*
*
G04 PC Aperture Table*
*
%ADD010C,0.001*%
%ADD013C,0.01*%
*
*
*
*
G04 PC Circuitry*
G04 Layer Name opqbox2.pcb - circuitry*
%LPD*%
*
*
G04 PC Custom Flashes*
G04 Layer Name opqbox2.pcb - flashes*
%LPD*%
*
*
G04 PC Circuitry*
G04 Layer Name opqbox2.pcb - circuitry*
%LPD*%
*
G54D10*
G54D13*
G01X228140Y409961D02*
X220090D01*
Y419961*
X228140*
X235640Y409961D02*
X243690D01*
Y419961*
X235640*
X311858Y244222D02*
Y239672D01*
X305858*
Y244222*
X311858Y246722D02*
Y251272D01*
X305858*
Y246722*
X318945Y244222D02*
Y239672D01*
X312945*
Y244222*
X318945Y246722D02*
Y251272D01*
X312945*
Y246722*
X331368Y225835D02*
X335918D01*
Y219835*
X331368*
X328868Y225835D02*
X324318D01*
Y219835*
X328868*
X340679Y205465D02*
X336129D01*
Y211465*
X340679*
X343179Y205465D02*
X347729D01*
Y211465*
X343179*
X319441Y213652D02*
Y218202D01*
X325441*
Y213652*
X319441Y211152D02*
Y206602D01*
X325441*
Y211152*
X330974Y238433D02*
X335524D01*
Y232433*
X330974*
X328474Y238433D02*
X323924D01*
Y232433*
X328474*
X359693Y226900D02*
Y222350D01*
X353693*
Y226900*
X359693Y229400D02*
Y233950D01*
X353693*
Y229400*
X113780Y362598D02*
Y182677D01*
X213780*
Y362598*
X113780*
X312580Y268547D02*
X306780D01*
Y275547*
X312580*
X314980Y268547D02*
X320780D01*
Y275547*
X314980*
X296919Y159693D02*
X301469D01*
Y153693*
X296919*
X294419Y159693D02*
X289869D01*
Y153693*
X294419*
X296919Y171898D02*
X301469D01*
Y165898*
X296919*
X294419Y171898D02*
X289869D01*
Y165898*
X294419*
X308337Y145913D02*
X312887D01*
Y139913*
X308337*
X305837Y145913D02*
X301287D01*
Y139913*
X305837*
X256230Y120228D02*
X251680D01*
Y126228*
X256230*
X258730Y120228D02*
X263280D01*
Y126228*
X258730*
X208287Y122004D02*
X214087D01*
Y115004*
X208287*
X205887Y122004D02*
X200087D01*
Y115004*
X205887*
X183839Y122484D02*
X178039D01*
Y129484*
X183839*
X186239Y122484D02*
X192039D01*
Y129484*
X186239*
X235827Y429397D02*
Y422835D01*
Y429397D02*
X232872D01*
X235827Y426272D02*
X234009D01*
X230599Y427835D02*
Y428147D01*
X230599D02*
X230372Y428772D01*
X230145Y429085*
X229690Y429397*
X228781*
X228327Y429085*
X228099Y428772*
X228099D02*
X227872Y428147D01*
Y427522*
X228099Y426897*
X228099D02*
X228554Y425960D01*
X230827Y422835*
X227645*
X299347Y248701D02*
X299574Y249326D01*
X300029Y249951*
X300483Y250263*
X301392*
X301847Y249951*
X302301Y249326*
X302529Y248701*
X302756Y247763*
Y246201*
X302529Y245263*
X302301Y244638*
X301847Y244013*
X301392Y243701*
X300483*
X300029Y244013*
X299574Y244638*
X299347Y245263*
X297074Y248701D02*
Y249013D01*
X296847Y249638*
X296620Y249951*
X296165Y250263*
X295256*
X294801Y249951*
X294574Y249638*
X294347Y249013*
Y248388*
X294574Y247763*
X295029Y246826*
X297301Y243701*
X294120*
X291847Y248701D02*
Y249013D01*
X291620Y249638*
X291392Y249951*
X290938Y250263*
X290029*
X289574Y249951*
X289347Y249638*
X289120Y249013*
Y248388*
X289347Y247763*
X289801Y246826*
X292074Y243701*
X288892*
X328874Y254606D02*
X329102Y255231D01*
X329556Y255856*
X330011Y256169*
X330920*
X331374Y255856*
X331829Y255231*
X332056Y254606*
X332283Y253669*
Y252106*
X332056Y251169*
X331829Y250544*
X331374Y249919*
X330920Y249606*
X330011*
X329556Y249919*
X329102Y250544*
X328874Y251169*
X326829Y254919D02*
X326374Y255231D01*
X325693Y256169*
Y249606*
X323647Y254919D02*
X323193Y255231D01*
X322511Y256169*
Y249606*
X319032Y225079D02*
X319259Y225704D01*
X319714Y226329*
X320168Y226641*
X321077*
X321532Y226329*
X321986Y225704*
X322214Y225079*
X322441Y224141*
Y222579*
X322214Y221641*
X321986Y221016*
X321532Y220391*
X321077Y220079*
X320168*
X319714Y220391*
X319259Y221016*
X319032Y221641*
X316986Y225391D02*
X316532Y225704D01*
X315850Y226641*
Y220079*
X313350Y226641D02*
X310850D01*
X312214Y224141*
X311532*
X311077Y223829*
X310850Y223516*
X310623Y222579*
Y221954*
X310850Y221016*
X311305Y220391*
X311986Y220079*
X312668*
X313350Y220391*
X313577Y220704*
X313805Y221329*
X358402Y209331D02*
X358629Y209956D01*
X359084Y210581*
X359538Y210893*
X360447*
X360902Y210581*
X361356Y209956*
X361584Y209331*
X361811Y208393*
Y206831*
X361584Y205893*
X361356Y205268*
X360902Y204643*
X360447Y204331*
X359538*
X359084Y204643*
X358629Y205268*
X358402Y205893*
X356356Y209643D02*
X355902Y209956D01*
X355220Y210893*
Y204331*
X350902Y210893D02*
X353175Y206518D01*
X349766*
X350902Y210893D02*
Y204331D01*
X316535Y214830D02*
Y208268D01*
Y214830D02*
X314490D01*
X313808Y214518*
X313581Y214205*
X313354Y213580*
Y212955*
X313581Y212330*
X313808Y212018*
X314490Y211705*
X316535*
X314945D02*
X313354Y208268D01*
X311308Y213580D02*
X310854Y213893D01*
X310172Y214830*
Y208268*
X304945Y214830D02*
X307217Y208268D01*
X308126Y214830D02*
X304945D01*
X332811Y244764D02*
X333039Y245389D01*
X333493Y246014*
X333948Y246326*
X334857*
X335311Y246014*
X335766Y245389*
X335993Y244764*
X336220Y243826*
Y242264*
X335993Y241326*
X335766Y240701*
X335311Y240076*
X334857Y239764*
X333948*
X333493Y240076*
X333039Y240701*
X332811Y241326*
X330766Y245076D02*
X330311Y245389D01*
X329630Y246326*
Y239764*
X324402Y246326D02*
X326675Y239764D01*
X327584Y246326D02*
X324402D01*
X348559Y229016D02*
X348787Y229641D01*
X349241Y230266*
X349696Y230578*
X350605*
X351059Y230266*
X351514Y229641*
X351741Y229016*
X351969Y228078*
Y226516*
X351741Y225578*
X351514Y224953*
X351059Y224328*
X350605Y224016*
X349696*
X349241Y224328*
X348787Y224953*
X348559Y225578*
X346287Y229016D02*
Y229328D01*
X346059Y229953*
X345832Y230266*
X345378Y230578*
X344469*
X344014Y230266*
X343787Y229953*
X343559Y229328*
Y228703*
X343787Y228078*
X344241Y227141*
X346514Y224016*
X343332*
X341287Y229328D02*
X340832Y229641D01*
X340150Y230578*
Y224016*
X317189Y267047D02*
X316961Y266422D01*
X316507Y265797*
X316052Y265485*
X315143*
X314689Y265797*
X314234Y266422*
X314007Y267047*
X313780Y267985*
Y269547*
X314007Y270485*
X314234Y271110*
X314689Y271735*
X315143Y272047*
X316052*
X316507Y271735*
X316961Y271110*
X317189Y270485*
X319234Y266735D02*
X319689Y266422D01*
X320370Y265485*
Y272047*
X323780Y265485D02*
X323098Y265797D01*
X322643Y266735*
X322416Y268297*
Y269235*
X322643Y270797*
X323098Y271735*
X323780Y272047*
X324234*
X324916Y271735*
X325370Y270797*
X325598Y269235*
Y268297*
X325370Y266735*
X324916Y265797*
X324234Y265485*
X323780*
X283599Y158150D02*
X283826Y158775D01*
X284281Y159400*
X284735Y159712*
X285644*
X286099Y159400*
X286553Y158775*
X286781Y158150*
X287008Y157212*
Y155650*
X286781Y154712*
X286553Y154087*
X286099Y153462*
X285644Y153150*
X284735*
X284281Y153462*
X283826Y154087*
X283599Y154712*
X281553Y158462D02*
X281099Y158775D01*
X280417Y159712*
Y153150*
X277235Y159712D02*
X277917Y159400D01*
X278144Y158775*
Y158150*
X277917Y157525*
X277462Y157212*
X276553Y156900*
X275872Y156587*
X275417Y155962*
X275190Y155337*
Y154400*
X275417Y153775*
X275644Y153462*
X276326Y153150*
X277235*
X277917Y153462*
X278144Y153775*
X278372Y154400*
Y155337*
X278144Y155962*
X277690Y156587*
X277008Y156900*
X276099Y157212*
X275644Y157525*
X275417Y158150*
Y158775*
X275644Y159400*
X276326Y159712*
X277235*
X287008Y171523D02*
Y164961D01*
Y171523D02*
X284962D01*
X284281Y171211*
X284053Y170898*
X283826Y170273*
Y169648*
X284053Y169023*
X284281Y168711*
X284962Y168398*
X287008*
X285417D02*
X283826Y164961D01*
X281553Y169961D02*
Y170273D01*
X281326Y170898*
X281099Y171211*
X280644Y171523*
X279735*
X279281Y171211*
X279053Y170898*
X278826Y170273*
Y169648*
X279053Y169023*
X279508Y168086*
X281781Y164961*
X278599*
X273599Y171523D02*
X275872D01*
X276099Y168711*
X275872Y169023*
X275190Y169336*
X274508*
X273826Y169023*
X273372Y168398*
X273144Y167461*
X273372Y166836*
X273599Y165898*
X274053Y165273*
X274735Y164961*
X275417*
X276099Y165273*
X276326Y165586*
X276553Y166211*
X298819Y145933D02*
Y139370D01*
Y145933D02*
X296773D01*
X296092Y145620*
X295864Y145308*
X295637Y144683*
Y144058*
X295864Y143433*
X296092Y143120*
X296773Y142808*
X298819*
X297228D02*
X295637Y139370D01*
X290410Y145933D02*
X292683Y139370D01*
X293592Y145933D02*
X290410D01*
X261945Y132559D02*
X262173Y133184D01*
X262627Y133809*
X263082Y134122*
X263991*
X264445Y133809*
X264900Y133184*
X265127Y132559*
X265354Y131622*
Y130059*
X265127Y129122*
X264900Y128497*
X264445Y127872*
X263991Y127559*
X263082*
X262627Y127872*
X262173Y128497*
X261945Y129122*
X257627Y134122D02*
X259900Y129747D01*
X256491*
X257627Y134122D02*
Y127559D01*
X210764Y128622D02*
X210991Y129247D01*
X211446Y129872*
X211901Y130185*
X211901D02*
X212810D01*
X213264Y129872*
X213719Y129247*
X213946Y128622*
X214173Y127685*
Y126122*
X213946Y125185*
X213719Y124560*
X213264Y123935*
X212810Y123622*
X211901*
X211901D02*
X211446Y123935D01*
X210991Y124560*
X210764Y125185*
X208491Y128622D02*
Y128935D01*
X208264Y129560*
X208037Y129872*
X207582Y130185*
X206673*
X206219Y129872*
X205991Y129560*
X205764Y128935*
Y128310*
X205991Y127685*
X206446Y126747*
X208719Y123622*
X205537*
X200764Y129247D02*
X200991Y129872D01*
X201673Y130185*
X202128*
X202810Y129872*
X203264Y128935*
X203491Y127372*
Y125810*
X203264Y124560*
X202810Y123935*
X202128Y123622*
X201901*
X201901D02*
X201219Y123935D01*
X200764Y124560*
X200537Y125497*
Y125810*
X200764Y126747*
X201219Y127372*
X201901Y127685*
X201901D02*
X202128D01*
X202810Y127372*
X203264Y126747*
X203491Y125810*
X180181Y132402D02*
X179953Y131777D01*
X179499Y131152*
X179044Y130839*
X178135*
X177681Y131152*
X177226Y131777*
X176999Y132402*
X176772Y133339*
Y134902*
X176999Y135839*
X177226Y136464*
X177681Y137089*
X178135Y137402*
X179044*
X179499Y137089*
X179953Y136464*
X180181Y135839*
X182453Y132402D02*
Y132089D01*
X182681Y131464*
X182908Y131152*
X183363Y130839*
X184272*
X184726Y131152*
X184953Y131464*
X185181Y132089*
Y132714*
X184953Y133339*
X184499Y134277*
X182226Y137402*
X185408*
X190408Y130839D02*
X188135D01*
X187908Y133652*
X188135Y133339*
X188817Y133027*
X189499*
X190181Y133339*
X190635Y133964*
X190863Y134902*
X190635Y135527*
X190408Y136464*
X189953Y137089*
X189272Y137402*
X188590*
X187908Y137089*
X187681Y136777*
X187453Y136152*
X100000Y100000D02*
Y493701D01*
X493701*
Y100000*
X100000*
X139370Y129528D02*
G75*
G03X139370I-9842J0D01*
G01X474016D02*
G03X474016I-9843J0D01*
G01Y464173D02*
G03X474016I-9843J0D01*
G01X139370D02*
G03X139370I-9842J0D01*
G74*
G01X0Y0D02*
M02*
