%
T1C.01575F095S3
X017205Y012008
X018819Y012008
X022205Y012047
X017283Y012598
X026024Y034055
X027598Y034016
X024567Y032638
X024567Y032047
X026457Y03189
X027047Y031772
X024134Y031732
X027047Y028268
X024409Y027953
X026693Y027913
X025315Y027677
X027047Y027165
X025709Y027126
X025709Y02563
X027047Y025591
X027686Y024734
X024045Y014446
X024563Y013337
X025384Y01327
X026535Y012323
X024213Y011339
X025945Y011299
X031575Y01248
X030196Y013171
X030397Y015055
X030827Y015079
X031278Y015135
X030221Y015669
X028952Y015726
X031339Y016299
X031306Y01688
X028937Y01689
X029822Y017229
X032441Y017992
X032638Y019843
X03185Y020236
X032244Y020433
X030315Y02122
X029724Y021299
X03185Y021575
X031005Y021872
X031299Y022362
X032362Y022559
X030945Y022677
X031446Y023317
X032359Y023546
X0312Y023657
X02811Y023701
X031872Y023743
X030786Y02378
X03248Y024685
X030512Y024803
X032047Y024803
X028937Y025
X03Y025157
X032638Y026181
X028189Y027874
X030294Y031992
X032559Y032165
X032559Y032795
X034882Y024094
X035669Y023701
X032992Y02315
X032953Y022717
X034134Y022717
X034134Y021929
X035709Y02189
X033031Y021772
X033504Y020866
X035039Y020827
X033071Y020079
X034567Y020039
X035315Y01937
X04Y010512
X038031Y010512
X039016Y010512
X040039Y013661
X039055Y013937
X038031Y013937
T2C.02362F197S55
X020567Y013559
X018031Y014252
X018985Y014286
X01378Y015827
X025039Y034921
X029921Y034803
X025483Y015556
X027989Y015556
X025476Y014444
X027989Y014444
X029567Y013504
X023575Y01315
X032988Y013422
X03122Y013543
X032988Y015943
X034099Y015943
X034528Y018031
X032165Y027126
X030354Y027205
T3C.035F197S55
X019213Y010787
X020213Y010787
X021213Y010787
X022213Y010787
X025157Y022343
X026157Y022343
X025157Y021343
X026157Y021343
X026157Y020343
X025157Y020343
X026157Y019343
X025157Y019343
X033819Y011181
X034819Y011181
X035819Y011181
X036819Y011181
X044252Y038055
X044252Y037055
X044252Y036055
X044252Y035055
X044252Y034055
X044252Y033055
X044252Y032055
X044252Y031055
X044252Y030055
X044252Y029055
X044252Y028055
X044252Y027055
X044252Y026055
X044252Y025055
X044252Y024055
X044252Y023055
X044252Y022055
X044252Y021055
X044252Y020055
X044252Y019055
X045252Y019055
X045252Y020055
X045252Y021055
X045252Y022055
X045252Y023055
X045252Y024055
X045252Y025055
X045252Y026055
X045252Y027055
X045252Y028055
X045252Y029055
X045252Y030055
X045252Y031055
X045252Y032055
X045252Y033055
X045252Y034055
X045252Y035055
X045252Y036055
X045252Y037055
X045252Y038055
T4C.037F197S55
X028327Y038681
X028311Y041575
X034311Y041575
X034327Y038681
T5C.03937F197S55
X012756Y037559
X015709Y038543
X012756Y040709
X012756Y042677
T6C.04724F139S55
X012736Y019685
X015886Y019685
X012736Y034843
X016969Y034843
T7C.05512F107S55
X021811Y045236
X015906Y045433
X021811Y047236
X015906Y047433
M30
