*
*
G04 PADS VX.1.1 Build Number: 678707 generated Gerber (RS-274-X) file*
G04 PC Version=2.1*
*
%IN "opqbox2.pcb"*%
*
%MOIN*%
*
%FSLAX35Y35*%
*
*
*
*
G04 PC Standard Apertures*
*
*
G04 Thermal Relief Aperture macro.*
%AMTER*
1,1,$1,0,0*
1,0,$1-$2,0,0*
21,0,$3,$4,0,0,45*
21,0,$3,$4,0,0,135*
%
*
*
G04 Annular Aperture macro.*
%AMANN*
1,1,$1,0,0*
1,0,$2,0,0*
%
*
*
G04 Odd Aperture macro.*
%AMODD*
1,1,$1,0,0*
1,0,$1-0.005,0,0*
%
*
*
G04 PC Custom Aperture Macros*
*
*
*
*
*
*
G04 PC Aperture Table*
*
%ADD010C,0.001*%
%ADD013C,0.01*%
%ADD103C,0.015*%
%ADD180TER,0.06X0.015X0.01X0.06364*%
%ADD181TER,0.07874X0.01969X0.01312X0.08351*%
%ADD206TER,0.03543X0.00886X0.00591X0.03758*%
%ADD207TER,0.04331X0.01083X0.00722X0.04593*%
*
*
*
*
G04 PC Circuitry*
G04 Layer Name opqbox2.pcb - circuitry*
%LPD*%
*
*
G04 PC Custom Flashes*
G04 Layer Name opqbox2.pcb - flashes*
%LPD*%
*
*
G04 PC Circuitry*
G04 Layer Name opqbox2.pcb - circuitry*
%LPD*%
*
G54D10*
G54D13*
G01X475116Y129528D02*
G75*
G03X475116I-10943J0D01*
G01X456620Y190551D02*
G03X456620I-4100J0D01*
G01Y200551D02*
G03X456620I-4100J0D01*
G01Y210551D02*
G03X456620I-4100J0D01*
G01Y220551D02*
G03X456620I-4100J0D01*
G01Y230551D02*
G03X456620I-4100J0D01*
G01Y240551D02*
G03X456620I-4100J0D01*
G01Y250551D02*
G03X456620I-4100J0D01*
G01Y260551D02*
G03X456620I-4100J0D01*
G01Y270551D02*
G03X456620I-4100J0D01*
G01Y280551D02*
G03X456620I-4100J0D01*
G01Y290551D02*
G03X456620I-4100J0D01*
G01Y300551D02*
G03X456620I-4100J0D01*
G01Y310551D02*
G03X456620I-4100J0D01*
G01Y320551D02*
G03X456620I-4100J0D01*
G01Y330551D02*
G03X456620I-4100J0D01*
G01Y340551D02*
G03X456620I-4100J0D01*
G01Y350551D02*
G03X456620I-4100J0D01*
G01Y360551D02*
G03X456620I-4100J0D01*
G01Y370551D02*
G03X456620I-4100J0D01*
G01Y380551D02*
G03X456620I-4100J0D01*
G01X475116Y464173D02*
G03X475116I-10943J0D01*
G01X446620Y190551D02*
G03X446620I-4100J0D01*
G01Y200551D02*
G03X446620I-4100J0D01*
G01Y210551D02*
G03X446620I-4100J0D01*
G01Y220551D02*
G03X446620I-4100J0D01*
G01Y230551D02*
G03X446620I-4100J0D01*
G01Y240551D02*
G03X446620I-4100J0D01*
G01Y250551D02*
G03X446620I-4100J0D01*
G01Y260551D02*
G03X446620I-4100J0D01*
G01Y270551D02*
G03X446620I-4100J0D01*
G01Y280551D02*
G03X446620I-4100J0D01*
G01Y290551D02*
G03X446620I-4100J0D01*
G01Y300551D02*
G03X446620I-4100J0D01*
G01Y310551D02*
G03X446620I-4100J0D01*
G01Y320551D02*
G03X446620I-4100J0D01*
G01Y330551D02*
G03X446620I-4100J0D01*
G01Y340551D02*
G03X446620I-4100J0D01*
G01Y350551D02*
G03X446620I-4100J0D01*
G01Y360551D02*
G03X446620I-4100J0D01*
G01Y370551D02*
G03X446620I-4100J0D01*
G01Y380551D02*
G03X446620I-4100J0D01*
G01X402872Y105118D02*
G03X402872I-2872J0D01*
G01X403265Y136614D02*
G03X403265I-2871J0D01*
G01X393029Y105118D02*
G03X393029I-2872J0D01*
G01X393423Y139370D02*
G03X393423I-2872J0D01*
G01X383187Y105118D02*
G03X383187I-2872J0D01*
G01Y139370D02*
G03X383187I-2872J0D01*
G01X372289Y111811D02*
G03X372289I-4100J0D01*
G01X362289D02*
G03X362289I-4100J0D01*
G01X352289D02*
G03X352289I-4100J0D01*
G01X356021Y193701D02*
G03X356021I-2871J0D01*
G01X359958Y218898D02*
G03X359958I-2871J0D01*
G01X359565Y237008D02*
G03X359565I-2872J0D01*
G01X342289Y111811D02*
G03X342289I-4100J0D01*
G01X344257Y159431D02*
G03X344257I-3266J0D01*
G01X348541Y180315D02*
G03X348541I-3265J0D01*
G01Y200394D02*
G03X348541I-2872J0D01*
G01X353265Y208268D02*
G03X353265I-2871J0D01*
G01X351691Y240945D02*
G03X351691I-2872J0D01*
G01X344210Y219291D02*
G03X344210I-2871J0D01*
G01Y227165D02*
G03X344210I-2871J0D01*
G01X333144Y134222D02*
G03X333144I-3265J0D01*
G01Y159431D02*
G03X333144I-3265J0D01*
G01X327281Y179921D02*
G03X327281I-2872J0D01*
G01X337911Y208661D02*
G03X337911I-2872J0D01*
G01X333187Y217717D02*
G03X333187I-2872J0D01*
G01X318620Y124803D02*
G03X318620I-2872J0D01*
G01X315470Y135433D02*
G03X315470I-3265J0D01*
G01X304827Y131708D02*
G03X304827I-2871J0D01*
G01X316258Y162992D02*
G03X316258I-2872J0D01*
G01X315933Y168800D02*
G03X315933I-2872J0D01*
G01X321376Y215748D02*
G03X321376I-2872J0D01*
G01X326494Y225591D02*
G03X326494I-2872J0D01*
G01X329250Y261811D02*
G03X329250I-2872J0D01*
G01X324919Y271260D02*
G03X324919I-3265J0D01*
G01X307990Y248031D02*
G03X307990I-2872J0D01*
G01X300116Y212992D02*
G03X300116I-2872J0D01*
G01X302872Y251575D02*
G03X302872I-2872J0D01*
G01X306809Y272047D02*
G03X306809I-3266J0D01*
G01X292394Y157256D02*
G03X292394I-2872J0D01*
G01X292242Y168898D02*
G03X292242I-2872J0D01*
G01Y250000D02*
G03X292242I-2872J0D01*
G01X283155Y144444D02*
G03X283155I-3265J0D01*
G01Y155557D02*
G03X283155I-3265J0D01*
G01X283974Y237008D02*
G03X283974I-2872J0D01*
G01X279727Y247336D02*
G03X279727I-2871J0D01*
G01X284761Y278740D02*
G03X284761I-2871J0D01*
G01X268226Y123228D02*
G03X268226I-2872J0D01*
G01X273344Y255906D02*
G03X273344I-2872J0D01*
G01Y271654D02*
G03X273344I-2872J0D01*
G01X262320Y112992D02*
G03X262320I-2871J0D01*
G01X256714Y132701D02*
G03X256714I-2871J0D01*
G01X258021Y144444D02*
G03X258021I-3265J0D01*
G01X258095Y155557D02*
G03X258095I-3265J0D01*
G01X265675Y193425D02*
G03X265675I-4100J0D01*
G01Y203425D02*
G03X265675I-4100J0D01*
G01Y213425D02*
G03X265675I-4100J0D01*
G01Y223425D02*
G03X265675I-4100J0D01*
G01X244998Y113386D02*
G03X244998I-2872J0D01*
G01X248505Y133375D02*
G03X248505I-2872J0D01*
G01X255675Y193425D02*
G03X255675I-4100J0D01*
G01Y203425D02*
G03X255675I-4100J0D01*
G01Y213425D02*
G03X255675I-4100J0D01*
G01Y223425D02*
G03X255675I-4100J0D01*
G01X259958Y256299D02*
G03X259958I-2871J0D01*
G01Y271260D02*
G03X259958I-2871J0D01*
G01X256021Y276772D02*
G03X256021I-2871J0D01*
G01X239011Y131496D02*
G03X239011I-3265J0D01*
G01X243324Y144465D02*
G03X243324I-2871J0D01*
G01X246966Y279528D02*
G03X246966I-2872J0D01*
G01X226226Y107874D02*
G03X226226I-4100J0D01*
G01X224919Y120472D02*
G03X224919I-2872J0D01*
G01X216226Y107874D02*
G03X216226I-4100J0D01*
G01X206226D02*
G03X206226I-4100J0D01*
G01X208934Y135585D02*
G03X208934I-3265J0D01*
G01X196226Y107874D02*
G03X196226I-4100J0D01*
G01X191061Y120079D02*
G03X191061I-2872J0D01*
G01X193118Y142864D02*
G03X193118I-3266J0D01*
G01X183580Y142520D02*
G03X183580I-3265J0D01*
G01X174919Y120079D02*
G03X174919I-2872J0D01*
G01X175706Y125984D02*
G03X175706I-2871J0D01*
G01X163895Y196850D02*
G03X163895I-5037J0D01*
G01X140470Y129528D02*
G03X140470I-10942J0D01*
G01X141061Y158268D02*
G03X141061I-3266J0D01*
G01X132399Y196850D02*
G03X132399I-5037J0D01*
G01X305078Y156686D02*
G03X305078I-2872J0D01*
G01X298935Y135039D02*
G03X298935I-3266J0D01*
G01X301087Y172291D02*
G03X301087I-2871J0D01*
G01X306021Y212205D02*
G03X306021I-2871J0D01*
G01X492601Y101100D02*
Y492601D01*
X422547*
Y306880*
X401388Y285720*
X237609*
X213098Y261210*
Y207374*
X101100*
Y101100*
X492601*
X475116Y129528D02*
G03X475116I-10943J0D01*
G01X456620Y190551D02*
G03X456620I-4100J0D01*
G01Y200551D02*
G03X456620I-4100J0D01*
G01Y210551D02*
G03X456620I-4100J0D01*
G01Y220551D02*
G03X456620I-4100J0D01*
G01Y230551D02*
G03X456620I-4100J0D01*
G01Y240551D02*
G03X456620I-4100J0D01*
G01Y250551D02*
G03X456620I-4100J0D01*
G01Y260551D02*
G03X456620I-4100J0D01*
G01Y270551D02*
G03X456620I-4100J0D01*
G01Y280551D02*
G03X456620I-4100J0D01*
G01Y290551D02*
G03X456620I-4100J0D01*
G01Y300551D02*
G03X456620I-4100J0D01*
G01Y310551D02*
G03X456620I-4100J0D01*
G01Y320551D02*
G03X456620I-4100J0D01*
G01Y330551D02*
G03X456620I-4100J0D01*
G01Y340551D02*
G03X456620I-4100J0D01*
G01Y350551D02*
G03X456620I-4100J0D01*
G01Y360551D02*
G03X456620I-4100J0D01*
G01Y370551D02*
G03X456620I-4100J0D01*
G01Y380551D02*
G03X456620I-4100J0D01*
G01X475116Y464173D02*
G03X475116I-10943J0D01*
G01X446620Y190551D02*
G03X446620I-4100J0D01*
G01Y200551D02*
G03X446620I-4100J0D01*
G01Y210551D02*
G03X446620I-4100J0D01*
G01Y220551D02*
G03X446620I-4100J0D01*
G01Y230551D02*
G03X446620I-4100J0D01*
G01Y240551D02*
G03X446620I-4100J0D01*
G01Y250551D02*
G03X446620I-4100J0D01*
G01Y260551D02*
G03X446620I-4100J0D01*
G01Y270551D02*
G03X446620I-4100J0D01*
G01Y280551D02*
G03X446620I-4100J0D01*
G01Y290551D02*
G03X446620I-4100J0D01*
G01Y300551D02*
G03X446620I-4100J0D01*
G01Y310551D02*
G03X446620I-4100J0D01*
G01Y320551D02*
G03X446620I-4100J0D01*
G01Y330551D02*
G03X446620I-4100J0D01*
G01Y340551D02*
G03X446620I-4100J0D01*
G01Y350551D02*
G03X446620I-4100J0D01*
G01Y360551D02*
G03X446620I-4100J0D01*
G01Y370551D02*
G03X446620I-4100J0D01*
G01Y380551D02*
G03X446620I-4100J0D01*
G01X402872Y105118D02*
G03X402872I-2872J0D01*
G01X403265Y136614D02*
G03X403265I-2871J0D01*
G01X393029Y105118D02*
G03X393029I-2872J0D01*
G01X393423Y139370D02*
G03X393423I-2872J0D01*
G01X383187Y105118D02*
G03X383187I-2872J0D01*
G01Y139370D02*
G03X383187I-2872J0D01*
G01X372289Y111811D02*
G03X372289I-4100J0D01*
G01X362289D02*
G03X362289I-4100J0D01*
G01X352289D02*
G03X352289I-4100J0D01*
G01X356021Y193701D02*
G03X356021I-2871J0D01*
G01X359958Y218898D02*
G03X359958I-2871J0D01*
G01X359565Y237008D02*
G03X359565I-2872J0D01*
G01X342289Y111811D02*
G03X342289I-4100J0D01*
G01X344257Y159431D02*
G03X344257I-3266J0D01*
G01X348541Y180315D02*
G03X348541I-3265J0D01*
G01Y200394D02*
G03X348541I-2872J0D01*
G01X353265Y208268D02*
G03X353265I-2871J0D01*
G01X351691Y240945D02*
G03X351691I-2872J0D01*
G01X344210Y219291D02*
G03X344210I-2871J0D01*
G01Y227165D02*
G03X344210I-2871J0D01*
G01X333144Y134222D02*
G03X333144I-3265J0D01*
G01Y159431D02*
G03X333144I-3265J0D01*
G01X327281Y179921D02*
G03X327281I-2872J0D01*
G01X329248Y198315D02*
G03X327839Y200897I1461J2472D01*
X329248Y198315I-1461J-2472*
G01X337911Y208661D02*
G03X337911I-2872J0D01*
G01X333187Y217717D02*
G03X333187I-2872J0D01*
G01X331593Y229161D02*
G03X327856Y229501I-1672J2335D01*
X331593Y229161I1672J-2336*
G01X318620Y124803D02*
G03X318620I-2872J0D01*
G01X315470Y135433D02*
G03X315470I-3265J0D01*
G01X304827Y131708D02*
G03X304827I-2871J0D01*
G01X310743Y149331D02*
G03X310307Y152809I2039J2022D01*
G01X306227Y148767D02*
G03X310743Y149331I2041J2020D01*
G01X306015Y152568D02*
G03X306227Y148767I-2041J-2020D01*
G01X310307Y152809D02*
G03X306015Y152568I-2039J-2022D01*
G01X316258Y162992D02*
G03X316258I-2872J0D01*
G01X315933Y168800D02*
G03X315933I-2872J0D01*
G01X321297Y201697D02*
G03X319647Y204996I1144J2634D01*
X321297Y201697I-1143J-2634*
G01X321376Y215748D02*
G03X321376I-2872J0D01*
G01X326494Y225591D02*
G03X326494I-2872J0D01*
G01X311751Y221032D02*
G03X312297Y226408I1241J2590D01*
G01X311295Y221305D02*
G03X311751Y221032I-1241J-2589D01*
G01X310144Y223985D02*
G03X311295Y221305I2848J-363D01*
G01X312297Y226408D02*
G03X310144Y223985I-2848J364D01*
G01X311645Y233716D02*
G03X314818Y236023I2820J-543D01*
G01X309389Y235367D02*
G03X311645Y233716I2609J1199D01*
G01X310465Y238994D02*
G03X309389Y235367I-2610J-1199D01*
G01X314818Y236023D02*
G03X310465Y238994I-2820J543D01*
G01X320724Y235368D02*
G03X321592Y237519I2870J92D01*
X320724Y235368I-2870J-93*
G01X322166Y245713D02*
G03X323109Y249169I2637J1137D01*
X322166Y245713I-2637J-1138*
G01X329250Y261811D02*
G03X329250I-2872J0D01*
G01X324919Y271260D02*
G03X324919I-3265J0D01*
G01X307990Y248031D02*
G03X307990I-2872J0D01*
G01X300116Y212992D02*
G03X300116I-2872J0D01*
G01X302872Y251575D02*
G03X302872I-2872J0D01*
G01X306809Y272047D02*
G03X306809I-3266J0D01*
G01X292394Y157256D02*
G03X292394I-2872J0D01*
G01X292242Y168898D02*
G03X292242I-2872J0D01*
G01Y250000D02*
G03X292242I-2872J0D01*
G01X283155Y144444D02*
G03X283155I-3265J0D01*
G01Y155557D02*
G03X283155I-3265J0D01*
G01X283974Y237008D02*
G03X283974I-2872J0D01*
G01X279727Y247336D02*
G03X279727I-2871J0D01*
G01X284761Y278740D02*
G03X284761I-2871J0D01*
G01X268226Y123228D02*
G03X268226I-2872J0D01*
G01X273344Y255906D02*
G03X273344I-2872J0D01*
G01Y271654D02*
G03X273344I-2872J0D01*
G01X262320Y112992D02*
G03X262320I-2871J0D01*
G01X256714Y132701D02*
G03X256714I-2871J0D01*
G01X258021Y144444D02*
G03X258021I-3265J0D01*
G01X258095Y155557D02*
G03X258095I-3265J0D01*
G01X265675Y193425D02*
G03X265675I-4100J0D01*
G01Y203425D02*
G03X265675I-4100J0D01*
G01Y213425D02*
G03X265675I-4100J0D01*
G01Y223425D02*
G03X265675I-4100J0D01*
G01X269693Y279913D02*
G03X267709Y281898I779J2764D01*
X269693Y279913I-780J-2764*
G01X244998Y113386D02*
G03X244998I-2872J0D01*
G01X248505Y133375D02*
G03X248505I-2872J0D01*
G01X255675Y193425D02*
G03X255675I-4100J0D01*
G01Y203425D02*
G03X255675I-4100J0D01*
G01Y213425D02*
G03X255675I-4100J0D01*
G01Y223425D02*
G03X255675I-4100J0D01*
G01X259958Y256299D02*
G03X259958I-2871J0D01*
G01Y271260D02*
G03X259958I-2871J0D01*
G01X256021Y276772D02*
G03X256021I-2871J0D01*
G01X239011Y131496D02*
G03X239011I-3265J0D01*
G01X243324Y144465D02*
G03X243324I-2871J0D01*
G01X246966Y279528D02*
G03X246966I-2872J0D01*
G01X226226Y107874D02*
G03X226226I-4100J0D01*
G01X224919Y120472D02*
G03X224919I-2872J0D01*
G01X216226Y107874D02*
G03X216226I-4100J0D01*
G01X206226D02*
G03X206226I-4100J0D01*
G01X208934Y135585D02*
G03X208934I-3265J0D01*
G01X196226Y107874D02*
G03X196226I-4100J0D01*
G01X191061Y120079D02*
G03X191061I-2872J0D01*
G01X193118Y142864D02*
G03X193118I-3266J0D01*
G01X183580Y142520D02*
G03X183580I-3265J0D01*
G01X174919Y120079D02*
G03X174919I-2872J0D01*
G01X175706Y125984D02*
G03X175706I-2871J0D01*
G01X163895Y196850D02*
G03X163895I-5037J0D01*
G01X140470Y129528D02*
G03X140470I-10942J0D01*
G01X141061Y158268D02*
G03X141061I-3266J0D01*
G01X132399Y196850D02*
G03X132399I-5037J0D01*
G01X305078Y156686D02*
G03X305078I-2872J0D01*
G01X298935Y135039D02*
G03X298935I-3266J0D01*
G01X301087Y172291D02*
G03X301087I-2871J0D01*
G01X306021Y212205D02*
G03X306021I-2871J0D01*
G01X422547Y492505D02*
X492601D01*
X422547Y491605D02*
X492601D01*
X422547Y490705D02*
X492601D01*
X422547Y489805D02*
X492601D01*
X422547Y488905D02*
X492601D01*
X422547Y488005D02*
X492601D01*
X422547Y487105D02*
X492601D01*
X422547Y486205D02*
X492601D01*
X422547Y485305D02*
X492601D01*
X422547Y484405D02*
X492601D01*
X422547Y483505D02*
X492601D01*
X422547Y482605D02*
X492601D01*
X422547Y481705D02*
X492601D01*
X422547Y480805D02*
X492601D01*
X422547Y479905D02*
X492601D01*
X422547Y479005D02*
X492601D01*
X422547Y478105D02*
X492601D01*
X422547Y477205D02*
X492601D01*
X422547Y476305D02*
X492601D01*
X422547Y475405D02*
X492601D01*
X467778Y474505D02*
X492601D01*
X469721Y473605D02*
X492601D01*
X471025Y472705D02*
X492601D01*
X472015Y471805D02*
X492601D01*
X472800Y470905D02*
X492601D01*
X473432Y470005D02*
X492601D01*
X473941Y469105D02*
X492601D01*
X474346Y468205D02*
X492601D01*
X474658Y467305D02*
X492601D01*
X474886Y466405D02*
X492601D01*
X475034Y465505D02*
X492601D01*
X475107Y464605D02*
X492601D01*
X475106Y463705D02*
X492601D01*
X475030Y462805D02*
X492601D01*
X474878Y461905D02*
X492601D01*
X474647Y461005D02*
X492601D01*
X474331Y460105D02*
X492601D01*
X473923Y459205D02*
X492601D01*
X473409Y458305D02*
X492601D01*
X472771Y457405D02*
X492601D01*
X471979Y456505D02*
X492601D01*
X470979Y455605D02*
X492601D01*
X469659Y454705D02*
X492601D01*
X467672Y453805D02*
X492601D01*
X422547Y452905D02*
X492601D01*
X422547Y452005D02*
X492601D01*
X422547Y451105D02*
X492601D01*
X422547Y450205D02*
X492601D01*
X422547Y449305D02*
X492601D01*
X422547Y448405D02*
X492601D01*
X422547Y447505D02*
X492601D01*
X422547Y446605D02*
X492601D01*
X422547Y445705D02*
X492601D01*
X422547Y444805D02*
X492601D01*
X422547Y443905D02*
X492601D01*
X422547Y443005D02*
X492601D01*
X422547Y442105D02*
X492601D01*
X422547Y441205D02*
X492601D01*
X422547Y440305D02*
X492601D01*
X422547Y439405D02*
X492601D01*
X422547Y438505D02*
X492601D01*
X422547Y437605D02*
X492601D01*
X422547Y436705D02*
X492601D01*
X422547Y435805D02*
X492601D01*
X422547Y434905D02*
X492601D01*
X422547Y434005D02*
X492601D01*
X422547Y433105D02*
X492601D01*
X422547Y432205D02*
X492601D01*
X422547Y431305D02*
X492601D01*
X422547Y430405D02*
X492601D01*
X422547Y429505D02*
X492601D01*
X422547Y428605D02*
X492601D01*
X422547Y427705D02*
X492601D01*
X422547Y426805D02*
X492601D01*
X422547Y425905D02*
X492601D01*
X422547Y425005D02*
X492601D01*
X422547Y424105D02*
X492601D01*
X422547Y423205D02*
X492601D01*
X422547Y422305D02*
X492601D01*
X422547Y421405D02*
X492601D01*
X422547Y420505D02*
X492601D01*
X422547Y419605D02*
X492601D01*
X422547Y418705D02*
X492601D01*
X422547Y417805D02*
X492601D01*
X422547Y416905D02*
X492601D01*
X422547Y416005D02*
X492601D01*
X422547Y415105D02*
X492601D01*
X422547Y414205D02*
X492601D01*
X422547Y413305D02*
X492601D01*
X422547Y412405D02*
X492601D01*
X422547Y411505D02*
X492601D01*
X422547Y410605D02*
X492601D01*
X422547Y409705D02*
X492601D01*
X422547Y408805D02*
X492601D01*
X422547Y407905D02*
X492601D01*
X422547Y407005D02*
X492601D01*
X422547Y406105D02*
X492601D01*
X422547Y405205D02*
X492601D01*
X422547Y404305D02*
X492601D01*
X422547Y403405D02*
X492601D01*
X422547Y402505D02*
X492601D01*
X422547Y401605D02*
X492601D01*
X422547Y400705D02*
X492601D01*
X422547Y399805D02*
X492601D01*
X422547Y398905D02*
X492601D01*
X422547Y398005D02*
X492601D01*
X422547Y397105D02*
X492601D01*
X422547Y396205D02*
X492601D01*
X422547Y395305D02*
X492601D01*
X422547Y394405D02*
X492601D01*
X422547Y393505D02*
X492601D01*
X422547Y392605D02*
X492601D01*
X422547Y391705D02*
X492601D01*
X422547Y390805D02*
X492601D01*
X422547Y389905D02*
X492601D01*
X422547Y389005D02*
X492601D01*
X422547Y388105D02*
X492601D01*
X422547Y387205D02*
X492601D01*
X422547Y386305D02*
X492601D01*
X422547Y385405D02*
X492601D01*
X453605Y384505D02*
X492601D01*
X455255Y383605D02*
X492601D01*
X456008Y382705D02*
X492601D01*
X456423Y381805D02*
X492601D01*
X456604Y380905D02*
X492601D01*
X456583Y380005D02*
X492601D01*
X456356Y379105D02*
X492601D01*
X455882Y378205D02*
X492601D01*
X455024Y377305D02*
X492601D01*
X422547Y376405D02*
X492601D01*
X422547Y375505D02*
X492601D01*
X453134Y374605D02*
X492601D01*
X455140Y373705D02*
X492601D01*
X455945Y372805D02*
X492601D01*
X456390Y371905D02*
X492601D01*
X456595Y371005D02*
X492601D01*
X456595Y370105D02*
X492601D01*
X456392Y369205D02*
X492601D01*
X455950Y368305D02*
X492601D01*
X455149Y367405D02*
X492601D01*
X453182Y366505D02*
X492601D01*
X422547Y365605D02*
X492601D01*
X422547Y364705D02*
X492601D01*
X455014Y363805D02*
X492601D01*
X455877Y362905D02*
X492601D01*
X456353Y362005D02*
X492601D01*
X456582Y361105D02*
X492601D01*
X456605Y360205D02*
X492601D01*
X456426Y359305D02*
X492601D01*
X456013Y358405D02*
X492601D01*
X455264Y357505D02*
X492601D01*
X453632Y356605D02*
X492601D01*
X422547Y355705D02*
X492601D01*
X422547Y354805D02*
X492601D01*
X454878Y353905D02*
X492601D01*
X455804Y353005D02*
X492601D01*
X456314Y352105D02*
X492601D01*
X456567Y351205D02*
X492601D01*
X456612Y350305D02*
X492601D01*
X456456Y349405D02*
X492601D01*
X456073Y348505D02*
X492601D01*
X455371Y347605D02*
X492601D01*
X453940Y346705D02*
X492601D01*
X422547Y345805D02*
X492601D01*
X422547Y344905D02*
X492601D01*
X454729Y344005D02*
X492601D01*
X455727Y343105D02*
X492601D01*
X456271Y342205D02*
X492601D01*
X456550Y341305D02*
X492601D01*
X456617Y340405D02*
X492601D01*
X456484Y339505D02*
X492601D01*
X456128Y338605D02*
X492601D01*
X455471Y337705D02*
X492601D01*
X454186Y336805D02*
X492601D01*
X422547Y335905D02*
X492601D01*
X422547Y335005D02*
X492601D01*
X454564Y334105D02*
X492601D01*
X455645Y333205D02*
X492601D01*
X456226Y332305D02*
X492601D01*
X456530Y331405D02*
X492601D01*
X456619Y330505D02*
X492601D01*
X456509Y329605D02*
X492601D01*
X456181Y328705D02*
X492601D01*
X455564Y327805D02*
X492601D01*
X454395Y326905D02*
X492601D01*
X422547Y326005D02*
X492601D01*
X422547Y325105D02*
X492601D01*
X454380Y324205D02*
X492601D01*
X455557Y323305D02*
X492601D01*
X456177Y322405D02*
X492601D01*
X456507Y321505D02*
X492601D01*
X456619Y320605D02*
X492601D01*
X456531Y319705D02*
X492601D01*
X456229Y318805D02*
X492601D01*
X455651Y317905D02*
X492601D01*
X454578Y317005D02*
X492601D01*
X422547Y316105D02*
X492601D01*
X422547Y315205D02*
X492601D01*
X454169Y314305D02*
X492601D01*
X455463Y313405D02*
X492601D01*
X456124Y312505D02*
X492601D01*
X456482Y311605D02*
X492601D01*
X456617Y310705D02*
X492601D01*
X456551Y309805D02*
X492601D01*
X456275Y308905D02*
X492601D01*
X455733Y308005D02*
X492601D01*
X454741Y307105D02*
X492601D01*
X421873Y306205D02*
X492601D01*
X420973Y305305D02*
X492601D01*
X453919Y304405D02*
X492601D01*
X455363Y303505D02*
X492601D01*
X456068Y302605D02*
X492601D01*
X456454Y301705D02*
X492601D01*
X456612Y300805D02*
X492601D01*
X456568Y299905D02*
X492601D01*
X456317Y299005D02*
X492601D01*
X455810Y298105D02*
X492601D01*
X454889Y297205D02*
X492601D01*
X411973Y296305D02*
X492601D01*
X411073Y295405D02*
X492601D01*
X453605Y294505D02*
X492601D01*
X455255Y293605D02*
X492601D01*
X456008Y292705D02*
X492601D01*
X456423Y291805D02*
X492601D01*
X456604Y290905D02*
X492601D01*
X456583Y290005D02*
X492601D01*
X456356Y289105D02*
X492601D01*
X455882Y288205D02*
X492601D01*
X455024Y287305D02*
X492601D01*
X402073Y286405D02*
X492601D01*
X270972Y285505D02*
X492601D01*
X453134Y284605D02*
X492601D01*
X455140Y283705D02*
X492601D01*
X455945Y282805D02*
X492601D01*
X456390Y281905D02*
X492601D01*
X456595Y281005D02*
X492601D01*
X456595Y280105D02*
X492601D01*
X456392Y279205D02*
X492601D01*
X455950Y278305D02*
X492601D01*
X455149Y277405D02*
X492601D01*
X453182Y276505D02*
X492601D01*
X255774Y275605D02*
X492601D01*
X305440Y274705D02*
X492601D01*
X455014Y273805D02*
X492601D01*
X455877Y272905D02*
X492601D01*
X456353Y272005D02*
X492601D01*
X456582Y271105D02*
X492601D01*
X456605Y270205D02*
X492601D01*
X456426Y269305D02*
X492601D01*
X456013Y268405D02*
X492601D01*
X455264Y267505D02*
X492601D01*
X453632Y266605D02*
X492601D01*
X217593Y265705D02*
X492601D01*
X216693Y264805D02*
X492601D01*
X454878Y263905D02*
X492601D01*
X455804Y263005D02*
X492601D01*
X456314Y262105D02*
X492601D01*
X456567Y261205D02*
X492601D01*
X456612Y260305D02*
X492601D01*
X456456Y259405D02*
X492601D01*
X456073Y258505D02*
X492601D01*
X455371Y257605D02*
X492601D01*
X453940Y256705D02*
X492601D01*
X273342Y255805D02*
X492601D01*
X273164Y254905D02*
X492601D01*
X454729Y254005D02*
X492601D01*
X455727Y253105D02*
X492601D01*
X456271Y252205D02*
X492601D01*
X456550Y251305D02*
X492601D01*
X456617Y250405D02*
X492601D01*
X456484Y249505D02*
X492601D01*
X456128Y248605D02*
X492601D01*
X455471Y247705D02*
X492601D01*
X454186Y246805D02*
X492601D01*
X327515Y245905D02*
X492601D01*
X327003Y245005D02*
X492601D01*
X454564Y244105D02*
X492601D01*
X455645Y243205D02*
X492601D01*
X456226Y242305D02*
X492601D01*
X456530Y241405D02*
X492601D01*
X456619Y240505D02*
X492601D01*
X456509Y239605D02*
X492601D01*
X456181Y238705D02*
X492601D01*
X455564Y237805D02*
X492601D01*
X454395Y236905D02*
X492601D01*
X359384Y236005D02*
X492601D01*
X358844Y235105D02*
X492601D01*
X454380Y234205D02*
X492601D01*
X455557Y233305D02*
X492601D01*
X456177Y232405D02*
X492601D01*
X456507Y231505D02*
X492601D01*
X456619Y230605D02*
X492601D01*
X456531Y229705D02*
X492601D01*
X456229Y228805D02*
X492601D01*
X455651Y227905D02*
X492601D01*
X454578Y227005D02*
X492601D01*
X344007Y226105D02*
X492601D01*
X343437Y225205D02*
X492601D01*
X454169Y224305D02*
X492601D01*
X455463Y223405D02*
X492601D01*
X456124Y222505D02*
X492601D01*
X456482Y221605D02*
X492601D01*
X456617Y220705D02*
X492601D01*
X456551Y219805D02*
X492601D01*
X456275Y218905D02*
X492601D01*
X455733Y218005D02*
X492601D01*
X454741Y217105D02*
X492601D01*
X358085Y216205D02*
X492601D01*
X331874Y215305D02*
X492601D01*
X453919Y214405D02*
X492601D01*
X455363Y213505D02*
X492601D01*
X456068Y212605D02*
X492601D01*
X456454Y211705D02*
X492601D01*
X456612Y210805D02*
X492601D01*
X456568Y209905D02*
X492601D01*
X456317Y209005D02*
X492601D01*
X455810Y208105D02*
X492601D01*
X454889Y207205D02*
X492601D01*
X352490Y206305D02*
X492601D01*
X350620Y205405D02*
X492601D01*
X453605Y204505D02*
X492601D01*
X455255Y203605D02*
X492601D01*
X456008Y202705D02*
X492601D01*
X456423Y201805D02*
X492601D01*
X456604Y200905D02*
X492601D01*
X456583Y200005D02*
X492601D01*
X456356Y199105D02*
X492601D01*
X455882Y198205D02*
X492601D01*
X455024Y197305D02*
X492601D01*
X354116Y196405D02*
X492601D01*
X355384Y195505D02*
X492601D01*
X453134Y194605D02*
X492601D01*
X455140Y193705D02*
X492601D01*
X455945Y192805D02*
X492601D01*
X456390Y191905D02*
X492601D01*
X456595Y191005D02*
X492601D01*
X456595Y190105D02*
X492601D01*
X456392Y189205D02*
X492601D01*
X455950Y188305D02*
X492601D01*
X455149Y187405D02*
X492601D01*
X453182Y186505D02*
X492601D01*
X101100Y185605D02*
X492601D01*
X101100Y184705D02*
X492601D01*
X101100Y183805D02*
X492601D01*
X347264Y182905D02*
X492601D01*
X348070Y182005D02*
X492601D01*
X348444Y181105D02*
X492601D01*
X348539Y180205D02*
X492601D01*
X348381Y179305D02*
X492601D01*
X347924Y178405D02*
X492601D01*
X346939Y177505D02*
X492601D01*
X101100Y176605D02*
X492601D01*
X101100Y175705D02*
X492601D01*
X299604Y174805D02*
X492601D01*
X300591Y173905D02*
X492601D01*
X300997Y173005D02*
X492601D01*
X301081Y172105D02*
X492601D01*
X314630Y171205D02*
X492601D01*
X315506Y170305D02*
X492601D01*
X315868Y169405D02*
X492601D01*
X315917Y168505D02*
X492601D01*
X315672Y167605D02*
X492601D01*
X315025Y166705D02*
X492601D01*
X313964Y165805D02*
X492601D01*
X315528Y164905D02*
X492601D01*
X316073Y164005D02*
X492601D01*
X316255Y163105D02*
X492601D01*
X342714Y162205D02*
X492601D01*
X343666Y161305D02*
X492601D01*
X344108Y160405D02*
X492601D01*
X344256Y159505D02*
X492601D01*
X344151Y158605D02*
X492601D01*
X343763Y157705D02*
X492601D01*
X342932Y156805D02*
X492601D01*
X304969Y155905D02*
X492601D01*
X304534Y155005D02*
X492601D01*
X313601Y154105D02*
X492601D01*
X314976Y153205D02*
X492601D01*
X315491Y152305D02*
X492601D01*
X315653Y151405D02*
X492601D01*
X315526Y150505D02*
X492601D01*
X315060Y149605D02*
X492601D01*
X313894Y148705D02*
X492601D01*
X304824Y147805D02*
X492601D01*
X282036Y146905D02*
X492601D01*
X282758Y146005D02*
X492601D01*
X283088Y145105D02*
X492601D01*
X283147Y144205D02*
X492601D01*
X282950Y143305D02*
X492601D01*
X282440Y142405D02*
X492601D01*
X392472Y141505D02*
X492601D01*
X393144Y140605D02*
X492601D01*
X468193Y139705D02*
X492601D01*
X469976Y138805D02*
X492601D01*
X471213Y137905D02*
X492601D01*
X472162Y137005D02*
X492601D01*
X472918Y136105D02*
X492601D01*
X473528Y135205D02*
X492601D01*
X474018Y134305D02*
X492601D01*
X474406Y133405D02*
X492601D01*
X474703Y132505D02*
X492601D01*
X474917Y131605D02*
X492601D01*
X475052Y130705D02*
X492601D01*
X475112Y129805D02*
X492601D01*
X475098Y128905D02*
X492601D01*
X475009Y128005D02*
X492601D01*
X474844Y127105D02*
X492601D01*
X474599Y126205D02*
X492601D01*
X474268Y125305D02*
X492601D01*
X473843Y124405D02*
X492601D01*
X473309Y123505D02*
X492601D01*
X472648Y122605D02*
X492601D01*
X471825Y121705D02*
X492601D01*
X470780Y120805D02*
X492601D01*
X469383Y119905D02*
X492601D01*
X467176Y119005D02*
X492601D01*
X223673Y118105D02*
X492601D01*
X101100Y117205D02*
X492601D01*
X101100Y116305D02*
X492601D01*
X370162Y115405D02*
X492601D01*
X371280Y114505D02*
X492601D01*
X371876Y113605D02*
X492601D01*
X372190Y112705D02*
X492601D01*
X372289Y111805D02*
X492601D01*
X372188Y110905D02*
X492601D01*
X371870Y110005D02*
X492601D01*
X371269Y109105D02*
X492601D01*
X370140Y108205D02*
X492601D01*
X401861Y107305D02*
X492601D01*
X402567Y106405D02*
X492601D01*
X402845Y105505D02*
X492601D01*
X402825Y104605D02*
X492601D01*
X402500Y103705D02*
X492601D01*
X401702Y102805D02*
X492601D01*
X101100Y101905D02*
X492601D01*
X224516Y119005D02*
X461171D01*
X422547Y453805D02*
X460675D01*
X422547Y474505D02*
X460569D01*
X393403Y139705D02*
X460153D01*
X224862Y119905D02*
X458963D01*
X422547Y454705D02*
X458688D01*
X422547Y473605D02*
X458625D01*
X402250Y138805D02*
X458371D01*
X266895Y120805D02*
X457566D01*
X422547Y455605D02*
X457367D01*
X422547Y472705D02*
X457321D01*
X402959Y137905D02*
X457133D01*
X267789Y121705D02*
X456522D01*
X422547Y456505D02*
X456367D01*
X422547Y471805D02*
X456331D01*
X403239Y137005D02*
X456184D01*
X317596Y122605D02*
X455699D01*
X422547Y457405D02*
X455575D01*
X422547Y470905D02*
X455546D01*
X403220Y136105D02*
X455428D01*
X318310Y123505D02*
X455037D01*
X422547Y458305D02*
X454937D01*
X422547Y470005D02*
X454914D01*
X402896Y135205D02*
X454819D01*
X318592Y124405D02*
X454504D01*
X422547Y459205D02*
X454424D01*
X422547Y469105D02*
X454405D01*
X402101Y134305D02*
X454329D01*
X318576Y125305D02*
X454078D01*
X422547Y460105D02*
X454015D01*
X422547Y468205D02*
X454001D01*
X333040Y133405D02*
X453941D01*
X318254Y126205D02*
X453747D01*
X422547Y461005D02*
X453699D01*
X422547Y467305D02*
X453688D01*
X332656Y132505D02*
X453644D01*
X317465Y127105D02*
X453502D01*
X422547Y461905D02*
X453468D01*
X422547Y466405D02*
X453461D01*
X331831Y131605D02*
X453430D01*
X174875Y128005D02*
X453337D01*
X422547Y462805D02*
X453317D01*
X422547Y465505D02*
X453312D01*
X304647Y130705D02*
X453294D01*
X302582Y128905D02*
X453248D01*
X422547Y463705D02*
X453241D01*
X422547Y464605D02*
X453239D01*
X304107Y129805D02*
X453234D01*
X443134Y374605D02*
X451906D01*
X443134Y284605D02*
X451906D01*
X443134Y194605D02*
X451906D01*
X443182Y366505D02*
X451858D01*
X443182Y276505D02*
X451858D01*
X443182Y186505D02*
X451858D01*
X443605Y384505D02*
X451435D01*
X443605Y294505D02*
X451435D01*
X443605Y204505D02*
X451435D01*
X443632Y356605D02*
X451407D01*
X443632Y266605D02*
X451407D01*
X443919Y304405D02*
X451120D01*
X443919Y214405D02*
X451120D01*
X443940Y346705D02*
X451099D01*
X443940Y256705D02*
X451099D01*
X444169Y314305D02*
X450871D01*
X444169Y224305D02*
X450871D01*
X444186Y336805D02*
X450853D01*
X444186Y246805D02*
X450853D01*
X444380Y324205D02*
X450660D01*
X444380Y234205D02*
X450660D01*
X444395Y326905D02*
X450645D01*
X444395Y236905D02*
X450645D01*
X444564Y334105D02*
X450475D01*
X444564Y244105D02*
X450475D01*
X444578Y317005D02*
X450462D01*
X444578Y227005D02*
X450462D01*
X444729Y344005D02*
X450310D01*
X444729Y254005D02*
X450310D01*
X444741Y307105D02*
X450298D01*
X444741Y217105D02*
X450298D01*
X444878Y353905D02*
X450161D01*
X444878Y263905D02*
X450161D01*
X444889Y297205D02*
X450150D01*
X444889Y207205D02*
X450150D01*
X445014Y363805D02*
X450025D01*
X445014Y273805D02*
X450025D01*
X445024Y377305D02*
X450015D01*
X445024Y287305D02*
X450015D01*
X445024Y197305D02*
X450015D01*
X445140Y373705D02*
X449900D01*
X445140Y283705D02*
X449900D01*
X445140Y193705D02*
X449900D01*
X445149Y367405D02*
X449891D01*
X445149Y277405D02*
X449891D01*
X445149Y187405D02*
X449891D01*
X445255Y383605D02*
X449784D01*
X445255Y293605D02*
X449784D01*
X445255Y203605D02*
X449784D01*
X445264Y357505D02*
X449775D01*
X445264Y267505D02*
X449775D01*
X445363Y303505D02*
X449676D01*
X445363Y213505D02*
X449676D01*
X445371Y347605D02*
X449668D01*
X445371Y257605D02*
X449668D01*
X445463Y313405D02*
X449576D01*
X445463Y223405D02*
X449576D01*
X445471Y337705D02*
X449569D01*
X445471Y247705D02*
X449569D01*
X445557Y323305D02*
X449482D01*
X445557Y233305D02*
X449482D01*
X445564Y327805D02*
X449475D01*
X445564Y237805D02*
X449475D01*
X445645Y333205D02*
X449394D01*
X445645Y243205D02*
X449394D01*
X445651Y317905D02*
X449388D01*
X445651Y227905D02*
X449388D01*
X445727Y343105D02*
X449312D01*
X445727Y253105D02*
X449312D01*
X445733Y308005D02*
X449306D01*
X445733Y218005D02*
X449306D01*
X445804Y353005D02*
X449235D01*
X445804Y263005D02*
X449235D01*
X445810Y298105D02*
X449229D01*
X445810Y208105D02*
X449229D01*
X445877Y362905D02*
X449163D01*
X445877Y272905D02*
X449163D01*
X445882Y378205D02*
X449157D01*
X445882Y288205D02*
X449157D01*
X445882Y198205D02*
X449157D01*
X445945Y372805D02*
X449095D01*
X445945Y282805D02*
X449095D01*
X445945Y192805D02*
X449095D01*
X445950Y368305D02*
X449090D01*
X445950Y278305D02*
X449090D01*
X445950Y188305D02*
X449090D01*
X446008Y382705D02*
X449031D01*
X446008Y292705D02*
X449031D01*
X446008Y202705D02*
X449031D01*
X446013Y358405D02*
X449026D01*
X446013Y268405D02*
X449026D01*
X446068Y302605D02*
X448971D01*
X446068Y212605D02*
X448971D01*
X446073Y348505D02*
X448967D01*
X446073Y258505D02*
X448967D01*
X446124Y312505D02*
X448915D01*
X446124Y222505D02*
X448915D01*
X446128Y338605D02*
X448911D01*
X446128Y248605D02*
X448911D01*
X446177Y322405D02*
X448863D01*
X446177Y232405D02*
X448863D01*
X446181Y328705D02*
X448859D01*
X446181Y238705D02*
X448859D01*
X446226Y332305D02*
X448814D01*
X446226Y242305D02*
X448814D01*
X446229Y318805D02*
X448810D01*
X446229Y228805D02*
X448810D01*
X446271Y342205D02*
X448768D01*
X446271Y252205D02*
X448768D01*
X446275Y308905D02*
X448765D01*
X446275Y218905D02*
X448765D01*
X446314Y352105D02*
X448725D01*
X446314Y262105D02*
X448725D01*
X446317Y299005D02*
X448722D01*
X446317Y209005D02*
X448722D01*
X446353Y362005D02*
X448686D01*
X446353Y272005D02*
X448686D01*
X446356Y379105D02*
X448683D01*
X446356Y289105D02*
X448683D01*
X446356Y199105D02*
X448683D01*
X446390Y371905D02*
X448650D01*
X446390Y281905D02*
X448650D01*
X446390Y191905D02*
X448650D01*
X446392Y369205D02*
X448647D01*
X446392Y279205D02*
X448647D01*
X446392Y189205D02*
X448647D01*
X446423Y381805D02*
X448616D01*
X446423Y291805D02*
X448616D01*
X446423Y201805D02*
X448616D01*
X446426Y359305D02*
X448614D01*
X446426Y269305D02*
X448614D01*
X446454Y301705D02*
X448585D01*
X446454Y211705D02*
X448585D01*
X446456Y349405D02*
X448583D01*
X446456Y259405D02*
X448583D01*
X446482Y311605D02*
X448557D01*
X446482Y221605D02*
X448557D01*
X446484Y339505D02*
X448555D01*
X446484Y249505D02*
X448555D01*
X446507Y321505D02*
X448532D01*
X446507Y231505D02*
X448532D01*
X446509Y329605D02*
X448530D01*
X446509Y239605D02*
X448530D01*
X446530Y331405D02*
X448510D01*
X446530Y241405D02*
X448510D01*
X446531Y319705D02*
X448508D01*
X446531Y229705D02*
X448508D01*
X446550Y341305D02*
X448490D01*
X446550Y251305D02*
X448490D01*
X446551Y309805D02*
X448488D01*
X446551Y219805D02*
X448488D01*
X446567Y351205D02*
X448472D01*
X446567Y261205D02*
X448472D01*
X446568Y299905D02*
X448471D01*
X446568Y209905D02*
X448471D01*
X446582Y361105D02*
X448457D01*
X446582Y271105D02*
X448457D01*
X446583Y380005D02*
X448456D01*
X446583Y290005D02*
X448456D01*
X446583Y200005D02*
X448456D01*
X446595Y371005D02*
X448445D01*
X446595Y281005D02*
X448445D01*
X446595Y191005D02*
X448445D01*
X446595Y370105D02*
X448444D01*
X446595Y280105D02*
X448444D01*
X446595Y190105D02*
X448444D01*
X446604Y380905D02*
X448435D01*
X446604Y290905D02*
X448435D01*
X446604Y200905D02*
X448435D01*
X446605Y360205D02*
X448434D01*
X446605Y270205D02*
X448434D01*
X446612Y300805D02*
X448428D01*
X446612Y210805D02*
X448428D01*
X446612Y350305D02*
X448427D01*
X446612Y260305D02*
X448427D01*
X446617Y310705D02*
X448423D01*
X446617Y220705D02*
X448423D01*
X446617Y340405D02*
X448422D01*
X446617Y250405D02*
X448422D01*
X446619Y320605D02*
X448420D01*
X446619Y230605D02*
X448420D01*
X446619Y330505D02*
X448420D01*
X446619Y240505D02*
X448420D01*
X422547Y374605D02*
X441906D01*
X272601Y284605D02*
X441906D01*
X355875Y194605D02*
X441906D01*
X422547Y366505D02*
X441858D01*
X283693Y276505D02*
X441858D01*
X101100Y186505D02*
X441858D01*
X422547Y384505D02*
X441435D01*
X410173Y294505D02*
X441435D01*
X325307Y204505D02*
X441435D01*
X422547Y356605D02*
X441407D01*
X218493Y266605D02*
X441407D01*
X420073Y304405D02*
X441120D01*
X321042Y214405D02*
X441120D01*
X422547Y346705D02*
X441099D01*
X273231Y256705D02*
X441099D01*
X422547Y314305D02*
X440871D01*
X341593Y224305D02*
X440871D01*
X422547Y336805D02*
X440853D01*
X327674Y246805D02*
X440853D01*
X422547Y324205D02*
X440660D01*
X357318Y234205D02*
X440660D01*
X422547Y326905D02*
X440645D01*
X359563Y236905D02*
X440645D01*
X422547Y334105D02*
X440475D01*
X325645Y244105D02*
X440475D01*
X422547Y317005D02*
X440462D01*
X344206Y227005D02*
X440462D01*
X422547Y344005D02*
X440310D01*
X301530Y254005D02*
X440310D01*
X422547Y307105D02*
X440298D01*
X359330Y217105D02*
X440298D01*
X422547Y353905D02*
X440161D01*
X328343Y263905D02*
X440161D01*
X412873Y297205D02*
X440150D01*
X353061Y207205D02*
X440150D01*
X422547Y363805D02*
X440025D01*
X323699Y273805D02*
X440025D01*
X422547Y377305D02*
X440015D01*
X402973Y287305D02*
X440015D01*
X329022Y197305D02*
X440015D01*
X422547Y373705D02*
X439900D01*
X273154Y283705D02*
X439900D01*
X356021Y193705D02*
X439900D01*
X422547Y367405D02*
X439891D01*
X284432Y277405D02*
X439891D01*
X101100Y187405D02*
X439891D01*
X422547Y383605D02*
X439784D01*
X409273Y293605D02*
X439784D01*
X331263Y203605D02*
X439784D01*
X422547Y357505D02*
X439775D01*
X219393Y267505D02*
X439775D01*
X419173Y303505D02*
X439676D01*
X320297Y213505D02*
X439676D01*
X422547Y347605D02*
X439668D01*
X272787Y257605D02*
X439668D01*
X422547Y313405D02*
X439576D01*
X325485Y223405D02*
X439576D01*
X422547Y337705D02*
X439569D01*
X327545Y247705D02*
X439569D01*
X422547Y323305D02*
X439482D01*
X332152Y233305D02*
X439482D01*
X422547Y327805D02*
X439475D01*
X359452Y237805D02*
X439475D01*
X422547Y333205D02*
X439394D01*
X350590Y243205D02*
X439394D01*
X422547Y317905D02*
X439388D01*
X344113Y227905D02*
X439388D01*
X422547Y343105D02*
X439312D01*
X302430Y253105D02*
X439312D01*
X422547Y308005D02*
X439306D01*
X359816Y218005D02*
X439306D01*
X422547Y353005D02*
X439235D01*
X328990Y263005D02*
X439235D01*
X413773Y298105D02*
X439229D01*
X353261Y208105D02*
X439229D01*
X422547Y362905D02*
X439163D01*
X324474Y272905D02*
X439163D01*
X422547Y378205D02*
X439157D01*
X403873Y288205D02*
X439157D01*
X347528Y198205D02*
X439157D01*
X422547Y372805D02*
X439095D01*
X273341Y282805D02*
X439095D01*
X355878Y192805D02*
X439095D01*
X422547Y368305D02*
X439090D01*
X284728Y278305D02*
X439090D01*
X101100Y188305D02*
X439090D01*
X422547Y382705D02*
X439031D01*
X408373Y292705D02*
X439031D01*
X347374Y202705D02*
X439031D01*
X422547Y358405D02*
X439026D01*
X323239Y268405D02*
X439026D01*
X418273Y302605D02*
X438971D01*
X305993Y212605D02*
X438971D01*
X422547Y348505D02*
X438967D01*
X271693Y258505D02*
X438967D01*
X422547Y312505D02*
X438915D01*
X315638Y222505D02*
X438915D01*
X422547Y338605D02*
X438911D01*
X327076Y248605D02*
X438911D01*
X422547Y322405D02*
X438863D01*
X332645Y232405D02*
X438863D01*
X422547Y328705D02*
X438859D01*
X359009Y238705D02*
X438859D01*
X422547Y332305D02*
X438814D01*
X351348Y242305D02*
X438814D01*
X422547Y318805D02*
X438810D01*
X343696Y228805D02*
X438810D01*
X422547Y342205D02*
X438768D01*
X302802Y252205D02*
X438768D01*
X422547Y308905D02*
X438765D01*
X359958Y218905D02*
X438765D01*
X422547Y352105D02*
X438725D01*
X329235Y262105D02*
X438725D01*
X414673Y299005D02*
X438722D01*
X353169Y209005D02*
X438722D01*
X422547Y362005D02*
X438686D01*
X324833Y272005D02*
X438686D01*
X422547Y379105D02*
X438683D01*
X404773Y289105D02*
X438683D01*
X348236Y199105D02*
X438683D01*
X422547Y371905D02*
X438650D01*
X273238Y281905D02*
X438650D01*
X355391Y191905D02*
X438650D01*
X422547Y369205D02*
X438647D01*
X284724Y279205D02*
X438647D01*
X101100Y189205D02*
X438647D01*
X422547Y381805D02*
X438616D01*
X407473Y291805D02*
X438616D01*
X348170Y201805D02*
X438616D01*
X422547Y359305D02*
X438614D01*
X324269Y269305D02*
X438614D01*
X417373Y301705D02*
X438585D01*
X305977Y211705D02*
X438585D01*
X422547Y349405D02*
X438583D01*
X327946Y259405D02*
X438583D01*
X422547Y311605D02*
X438557D01*
X358044Y221605D02*
X438557D01*
X422547Y339505D02*
X438555D01*
X325898Y249505D02*
X438555D01*
X422547Y321505D02*
X438532D01*
X332793Y231505D02*
X438532D01*
X422547Y329605D02*
X438530D01*
X357918Y239605D02*
X438530D01*
X422547Y331405D02*
X438510D01*
X351653Y241405D02*
X438510D01*
X422547Y319705D02*
X438508D01*
X342679Y229705D02*
X438508D01*
X422547Y341305D02*
X438490D01*
X302859Y251305D02*
X438490D01*
X422547Y309805D02*
X438488D01*
X359811Y219805D02*
X438488D01*
X422547Y351205D02*
X438472D01*
X329185Y261205D02*
X438472D01*
X415573Y299905D02*
X438471D01*
X352753Y209905D02*
X438471D01*
X422547Y361105D02*
X438457D01*
X324915Y271105D02*
X438457D01*
X422547Y380005D02*
X438456D01*
X405673Y290005D02*
X438456D01*
X348515Y200005D02*
X438456D01*
X422547Y371005D02*
X438445D01*
X283655Y281005D02*
X438445D01*
X354139Y191005D02*
X438445D01*
X422547Y370105D02*
X438444D01*
X284416Y280105D02*
X438444D01*
X263980Y190105D02*
X438444D01*
X422547Y380905D02*
X438435D01*
X406573Y290905D02*
X438435D01*
X348495Y200905D02*
X438435D01*
X422547Y360205D02*
X438434D01*
X324744Y270205D02*
X438434D01*
X416473Y300805D02*
X438428D01*
X351739Y210805D02*
X438428D01*
X422547Y350305D02*
X438427D01*
X328823Y260305D02*
X438427D01*
X422547Y310705D02*
X438423D01*
X359318Y220705D02*
X438423D01*
X422547Y340405D02*
X438422D01*
X322089Y250405D02*
X438422D01*
X422547Y320605D02*
X438420D01*
X332651Y230605D02*
X438420D01*
X422547Y330505D02*
X438420D01*
X351657Y240505D02*
X438420D01*
X333143Y134305D02*
X398687D01*
X393367Y138805D02*
X398537D01*
X391859Y102805D02*
X398298D01*
X392019Y107305D02*
X398139D01*
X332993Y135205D02*
X397892D01*
X393021Y137905D02*
X397828D01*
X332546Y136105D02*
X397568D01*
X392180Y137005D02*
X397549D01*
X392657Y103705D02*
X397500D01*
X392725Y106405D02*
X397433D01*
X392983Y104605D02*
X397175D01*
X393003Y105505D02*
X397155D01*
X381944Y137005D02*
X388922D01*
X382236Y141505D02*
X388631D01*
X382017Y102805D02*
X388456D01*
X382176Y107305D02*
X388296D01*
X382785Y137905D02*
X388081D01*
X382908Y140605D02*
X387959D01*
X383130Y138805D02*
X387736D01*
X383167Y139705D02*
X387699D01*
X382815Y103705D02*
X387658D01*
X382882Y106405D02*
X387590D01*
X383140Y104605D02*
X387332D01*
X383160Y105505D02*
X387312D01*
X331587Y137005D02*
X378686D01*
X101100Y102805D02*
X378613D01*
X226186Y107305D02*
X378454D01*
X281313Y141505D02*
X378394D01*
X314338Y137905D02*
X377845D01*
X101100Y103705D02*
X377815D01*
X225954Y106405D02*
X377748D01*
X192210Y140605D02*
X377722D01*
X206214Y138805D02*
X377499D01*
X224601Y104605D02*
X377490D01*
X225472Y105505D02*
X377469D01*
X190679Y139705D02*
X377463D01*
X360140Y108205D02*
X366238D01*
X360162Y115405D02*
X366216D01*
X361269Y109105D02*
X365109D01*
X361280Y114505D02*
X365098D01*
X361870Y110005D02*
X364508D01*
X361876Y113605D02*
X364502D01*
X362188Y110905D02*
X364190D01*
X362190Y112705D02*
X364188D01*
X362289Y111805D02*
X364089D01*
X350140Y108205D02*
X356238D01*
X350162Y115405D02*
X356216D01*
X343040Y221605D02*
X356129D01*
X332757Y216205D02*
X356089D01*
X330874Y234205D02*
X356068D01*
X351359Y239605D02*
X355468D01*
X351269Y109105D02*
X355109D01*
X351280Y114505D02*
X355098D01*
X343838Y220705D02*
X354855D01*
X343200Y217105D02*
X354843D01*
X326444Y235105D02*
X354542D01*
X351870Y110005D02*
X354508D01*
X351876Y113605D02*
X354502D01*
X350616Y238705D02*
X354376D01*
X344164Y219805D02*
X354362D01*
X343906Y218005D02*
X354357D01*
X344184Y218905D02*
X354215D01*
X352188Y110905D02*
X354190D01*
X352190Y112705D02*
X354188D01*
X352289Y111805D02*
X354089D01*
X326414Y236005D02*
X354002D01*
X325252Y237805D02*
X353934D01*
X326076Y236905D02*
X353823D01*
X328419Y196405D02*
X352183D01*
X264884Y191005D02*
X352160D01*
X265108Y195505D02*
X350915D01*
X265383Y191905D02*
X350909D01*
X265501Y194605D02*
X350424D01*
X265628Y192805D02*
X350421D01*
X265665Y193705D02*
X350278D01*
X325104Y205405D02*
X350167D01*
X336950Y210805D02*
X349049D01*
X336681Y206305D02*
X348297D01*
X337628Y209905D02*
X348034D01*
X337514Y207205D02*
X347726D01*
X337890Y209005D02*
X347618D01*
X337857Y208105D02*
X347527D01*
X213098Y243205D02*
X347047D01*
X321293Y238705D02*
X347022D01*
X213098Y242305D02*
X346290D01*
X320593Y239605D02*
X346279D01*
X340140Y108205D02*
X346238D01*
X340162Y115405D02*
X346216D01*
X213098Y241405D02*
X345984D01*
X308806Y240505D02*
X345981D01*
X341269Y109105D02*
X345109D01*
X341280Y114505D02*
X345098D01*
X341870Y110005D02*
X344508D01*
X341876Y113605D02*
X344502D01*
X342188Y110905D02*
X344190D01*
X342190Y112705D02*
X344188D01*
X342289Y111805D02*
X344089D01*
X332846Y202705D02*
X343965D01*
X331965Y198205D02*
X343810D01*
X325961Y177505D02*
X343612D01*
X101100Y182905D02*
X343287D01*
X333394Y201805D02*
X343168D01*
X333036Y199105D02*
X343103D01*
X333578Y200905D02*
X342843D01*
X333472Y200005D02*
X342824D01*
X326848Y178405D02*
X342627D01*
X326385Y182005D02*
X342482D01*
X327214Y179305D02*
X342170D01*
X327026Y181105D02*
X342107D01*
X327267Y180205D02*
X342012D01*
X329782Y224305D02*
X341084D01*
X332166Y229705D02*
X339998D01*
X315036Y221605D02*
X339638D01*
X333121Y217105D02*
X339477D01*
X331602Y162205D02*
X339268D01*
X331626Y225205D02*
X339240D01*
X331819Y156805D02*
X339051D01*
X331885Y228805D02*
X338981D01*
X312125Y220705D02*
X338839D01*
X333172Y218005D02*
X338771D01*
X332196Y226105D02*
X338670D01*
X332302Y227905D02*
X338564D01*
X332286Y219805D02*
X338513D01*
X332929Y218905D02*
X338493D01*
X332395Y227005D02*
X338471D01*
X332553Y161305D02*
X338317D01*
X332650Y157705D02*
X338220D01*
X332995Y160405D02*
X337875D01*
X333038Y158605D02*
X337832D01*
X333143Y159505D02*
X337727D01*
X226213Y108205D02*
X336238D01*
X261006Y115405D02*
X336216D01*
X226037Y109105D02*
X335109D01*
X261890Y114505D02*
X335098D01*
X225629Y110005D02*
X334508D01*
X262254Y113605D02*
X334502D01*
X261421Y110905D02*
X334190D01*
X262306Y112705D02*
X334188D01*
X262064Y111805D02*
X334089D01*
X324526Y206305D02*
X333398D01*
X305657Y210805D02*
X333128D01*
X263163Y207205D02*
X332564D01*
X304869Y209905D02*
X332451D01*
X213098Y208105D02*
X332222D01*
X213098Y209005D02*
X332188D01*
X325219Y203605D02*
X330154D01*
X329241Y198205D02*
X329453D01*
X326190Y224305D02*
X329273D01*
X326177Y234205D02*
X328968D01*
X321341Y215305D02*
X328756D01*
X324808Y202705D02*
X328571D01*
X312711Y219805D02*
X328344D01*
X315067Y137005D02*
X328170D01*
X316148Y162205D02*
X328156D01*
X323807Y201805D02*
X328023D01*
X305075Y156805D02*
X327938D01*
X304826Y131605D02*
X327926D01*
X321339Y216205D02*
X327873D01*
X327826Y200905D02*
X327839D01*
X312920Y218905D02*
X327701D01*
X325492Y233305D02*
X327691D01*
X213098Y229705D02*
X327677D01*
X321035Y217105D02*
X327509D01*
X320280Y218005D02*
X327458D01*
X326468Y225205D02*
X327429D01*
X315400Y136105D02*
X327211D01*
X315710Y161305D02*
X327204D01*
X317232Y232405D02*
X327197D01*
X315750Y230605D02*
X327191D01*
X311477Y228805D02*
X327170D01*
X304891Y157705D02*
X327107D01*
X313650Y132505D02*
X327101D01*
X316803Y231505D02*
X327050D01*
X326447Y226105D02*
X326859D01*
X315462Y135205D02*
X326765D01*
X314632Y160405D02*
X326762D01*
X325322Y227905D02*
X326753D01*
X304342Y158605D02*
X326719D01*
X314764Y133405D02*
X326717D01*
X326121Y227005D02*
X326660D01*
X315269Y134305D02*
X326614D01*
X302753Y159505D02*
X326614D01*
X320978Y200905D02*
X324930D01*
X213098Y259405D02*
X324810D01*
X215793Y263905D02*
X324413D01*
X264391Y196405D02*
X324337D01*
X320144Y200005D02*
X323980D01*
X213098Y244105D02*
X323961D01*
X213098Y260305D02*
X323933D01*
X214893Y263005D02*
X323766D01*
X262900Y197305D02*
X323734D01*
X322937Y249505D02*
X323708D01*
X163363Y199105D02*
X323588D01*
X213098Y261205D02*
X323571D01*
X213993Y262105D02*
X323521D01*
X163710Y198205D02*
X323515D01*
X101100Y177505D02*
X322858D01*
X278533Y245005D02*
X322603D01*
X101100Y182005D02*
X322433D01*
X101100Y178405D02*
X321971D01*
X321569Y237805D02*
X321936D01*
X312087Y227905D02*
X321922D01*
X101100Y181105D02*
X321793D01*
X315856Y223405D02*
X321759D01*
X317334Y233305D02*
X321697D01*
X101100Y179305D02*
X321605D01*
X101100Y180205D02*
X321552D01*
X312311Y227005D02*
X321123D01*
X315781Y224305D02*
X321054D01*
X317145Y234205D02*
X321011D01*
X314435Y226105D02*
X320797D01*
X315388Y225205D02*
X320776D01*
X320412Y235105D02*
X320744D01*
X264493Y206305D02*
X320356D01*
X257397Y268405D02*
X320068D01*
X265165Y205405D02*
X319778D01*
X306295Y273805D02*
X319608D01*
X305316Y269305D02*
X319038D01*
X306735Y250405D02*
X318856D01*
X306694Y272905D02*
X318833D01*
X306239Y270205D02*
X318563D01*
X307048Y245905D02*
X318543D01*
X306808Y272005D02*
X318474D01*
X306670Y271105D02*
X318392D01*
X307583Y249505D02*
X318008D01*
X307715Y246805D02*
X317876D01*
X307932Y248605D02*
X317659D01*
X307971Y247705D02*
X317619D01*
X316589Y235105D02*
X317032D01*
X263836Y200005D02*
X316864D01*
X310085Y239605D02*
X316851D01*
X312837Y218005D02*
X316728D01*
X305710Y213505D02*
X316711D01*
X265530Y204505D02*
X316592D01*
X314940Y236005D02*
X316227D01*
X313914Y238705D02*
X316151D01*
X264809Y200905D02*
X316029D01*
X312432Y217105D02*
X315973D01*
X304995Y214405D02*
X315966D01*
X265671Y203605D02*
X315915D01*
X314850Y236905D02*
X315898D01*
X314589Y237805D02*
X315875D01*
X265341Y201805D02*
X315687D01*
X311448Y216205D02*
X315669D01*
X298946Y215305D02*
X315667D01*
X265611Y202705D02*
X315653D01*
X175479Y127105D02*
X314031D01*
X268158Y122605D02*
X313900D01*
X175698Y126205D02*
X313242D01*
X268213Y123505D02*
X313187D01*
X213098Y230605D02*
X313179D01*
X267338Y125305D02*
X312921D01*
X267974Y124405D02*
X312904D01*
X101100Y165805D02*
X312808D01*
X140264Y160405D02*
X312140D01*
X213098Y231505D02*
X312127D01*
X303465Y154105D02*
X311963D01*
X213098Y232405D02*
X311698D01*
X310245Y148705D02*
X311670D01*
X213098Y233305D02*
X311596D01*
X300874Y171205D02*
X311492D01*
X101100Y164905D02*
X311244D01*
X291224Y166705D02*
X311097D01*
X138994Y161305D02*
X311062D01*
X265249Y221605D02*
X310948D01*
X304715Y132505D02*
X310759D01*
X101100Y164005D02*
X310699D01*
X101100Y162205D02*
X310624D01*
X300289Y170305D02*
X310615D01*
X309817Y153205D02*
X310587D01*
X101100Y163105D02*
X310516D01*
X291934Y167605D02*
X310450D01*
X281727Y234205D02*
X310364D01*
X265570Y222505D02*
X310347D01*
X292197Y169405D02*
X310254D01*
X292215Y168505D02*
X310204D01*
X265675Y223405D02*
X310129D01*
X297235Y137905D02*
X310071D01*
X304272Y133405D02*
X309646D01*
X308860Y235105D02*
X309526D01*
X298277Y137005D02*
X309343D01*
X303181Y134305D02*
X309140D01*
X298756Y136105D02*
X309009D01*
X298930Y135205D02*
X308947D01*
X264589Y216205D02*
X308660D01*
X264642Y220705D02*
X307983D01*
X265579Y224305D02*
X307978D01*
X263383Y217105D02*
X307677D01*
X213098Y228805D02*
X307421D01*
X263499Y219805D02*
X307397D01*
X213098Y218005D02*
X307272D01*
X213098Y218905D02*
X307189D01*
X265268Y225205D02*
X307042D01*
X213098Y240505D02*
X306904D01*
X283253Y235105D02*
X306851D01*
X213098Y227905D02*
X306810D01*
X305063Y153205D02*
X306718D01*
X264678Y226105D02*
X306656D01*
X263574Y227005D02*
X306587D01*
X306176Y148705D02*
X306290D01*
X282328Y239605D02*
X305625D01*
X283793Y236005D02*
X305610D01*
X283419Y238705D02*
X305131D01*
X283972Y236905D02*
X305125D01*
X283861Y237805D02*
X304983D01*
X302623Y250405D02*
X303502D01*
X279345Y245905D02*
X303188D01*
X101100Y147805D02*
X303124D01*
X282155Y153205D02*
X302885D01*
X301991Y249505D02*
X302653D01*
X279678Y246805D02*
X302522D01*
X291880Y248605D02*
X302304D01*
X291096Y247705D02*
X302265D01*
X101100Y148705D02*
X301772D01*
X272125Y269305D02*
X301771D01*
X280186Y152305D02*
X301702D01*
X291308Y159505D02*
X301659D01*
X255143Y274705D02*
X301646D01*
X263677Y209905D02*
X301430D01*
X237733Y128905D02*
X301330D01*
X299744Y214405D02*
X301304D01*
X101100Y149605D02*
X301261D01*
X101100Y151405D02*
X301233D01*
X101100Y150505D02*
X301103D01*
X282815Y154105D02*
X300947D01*
X272952Y270205D02*
X300847D01*
X272374Y273805D02*
X300791D01*
X298851Y134305D02*
X300731D01*
X299105Y210805D02*
X300642D01*
X300070Y213505D02*
X300589D01*
X273291Y271105D02*
X300417D01*
X273057Y272905D02*
X300393D01*
X299811Y211705D02*
X300322D01*
X300090Y212605D02*
X300306D01*
X273323Y272005D02*
X300278D01*
X292057Y158605D02*
X300070D01*
X291305Y155005D02*
X299878D01*
X238539Y129805D02*
X299805D01*
X298496Y133405D02*
X299640D01*
X292358Y157705D02*
X299521D01*
X292056Y155905D02*
X299443D01*
X292358Y156805D02*
X299337D01*
X255908Y130705D02*
X299265D01*
X297728Y132505D02*
X299197D01*
X256497Y131605D02*
X299086D01*
X272625Y254005D02*
X298470D01*
X292199Y249505D02*
X298009D01*
X271108Y253105D02*
X297570D01*
X292213Y250405D02*
X297377D01*
X291210Y252205D02*
X297198D01*
X291928Y251305D02*
X297141D01*
X101100Y174805D02*
X296827D01*
X291873Y170305D02*
X296142D01*
X101100Y173905D02*
X295840D01*
X291080Y171205D02*
X295557D01*
X265219Y215305D02*
X295542D01*
X101100Y173005D02*
X295434D01*
X264728Y210805D02*
X295383D01*
X101100Y172105D02*
X295350D01*
X265556Y214405D02*
X294744D01*
X265297Y211705D02*
X294677D01*
X265674Y213505D02*
X294419D01*
X265592Y212605D02*
X294399D01*
X207967Y137905D02*
X294104D01*
X256708Y132505D02*
X293610D01*
X208610Y137005D02*
X293062D01*
X256627Y133405D02*
X292842D01*
X246523Y136105D02*
X292583D01*
X256224Y134305D02*
X292488D01*
X255248Y135205D02*
X292408D01*
X283108Y155005D02*
X287739D01*
X140817Y159505D02*
X287737D01*
X101100Y171205D02*
X287661D01*
X279704Y247705D02*
X287644D01*
X213098Y252205D02*
X287530D01*
X101100Y166705D02*
X287516D01*
X283137Y155905D02*
X286988D01*
X281061Y158605D02*
X286987D01*
X101100Y170305D02*
X286867D01*
X279432Y248605D02*
X286860D01*
X213098Y251305D02*
X286812D01*
X101100Y167605D02*
X286806D01*
X282907Y156805D02*
X286686D01*
X282349Y157705D02*
X286686D01*
X101100Y169405D02*
X286544D01*
X278738Y249505D02*
X286541D01*
X213098Y250405D02*
X286527D01*
X101100Y168505D02*
X286525D01*
X213098Y234205D02*
X280478D01*
X272807Y281005D02*
X280124D01*
X268085Y276505D02*
X280087D01*
X213098Y239605D02*
X279877D01*
X255126Y152305D02*
X279594D01*
X271749Y280105D02*
X279363D01*
X269222Y277405D02*
X279347D01*
X269800Y279205D02*
X279056D01*
X269679Y278305D02*
X279051D01*
X213098Y235105D02*
X278952D01*
X213098Y238705D02*
X278786D01*
X256001Y158605D02*
X278719D01*
X256178Y141505D02*
X278467D01*
X213098Y236005D02*
X278412D01*
X213098Y237805D02*
X278344D01*
X213098Y236905D02*
X278233D01*
X256902Y146905D02*
X277744D01*
X257095Y153205D02*
X277625D01*
X257289Y157705D02*
X277431D01*
X257306Y142405D02*
X277340D01*
X257624Y146005D02*
X277022D01*
X257755Y154105D02*
X276965D01*
X257848Y156805D02*
X276873D01*
X257816Y143305D02*
X276830D01*
X257953Y145105D02*
X276692D01*
X258049Y155005D02*
X276672D01*
X258077Y155905D02*
X276643D01*
X258012Y144205D02*
X276633D01*
X213098Y245005D02*
X275179D01*
X213098Y249505D02*
X274974D01*
X213098Y245905D02*
X274366D01*
X213098Y248605D02*
X274280D01*
X213098Y246805D02*
X274034D01*
X213098Y247705D02*
X274008D01*
X237393Y285505D02*
X269973D01*
X213098Y253105D02*
X269837D01*
X258925Y258505D02*
X269252D01*
X259190Y269305D02*
X268820D01*
X258417Y273805D02*
X268570D01*
X236493Y284605D02*
X268344D01*
X258814Y254005D02*
X268320D01*
X259644Y257605D02*
X268158D01*
X259758Y270205D02*
X267993D01*
X259440Y272905D02*
X267888D01*
X235593Y283705D02*
X267791D01*
X259597Y254905D02*
X267781D01*
X259929Y256705D02*
X267714D01*
X267682Y281905D02*
X267707D01*
X259954Y271105D02*
X267654D01*
X259860Y272005D02*
X267622D01*
X234693Y282805D02*
X267604D01*
X259915Y255805D02*
X267603D01*
X245705Y281905D02*
X266176D01*
X256009Y276505D02*
X265773D01*
X246557Y281005D02*
X264751D01*
X255951Y277405D02*
X264636D01*
X246908Y280105D02*
X264227D01*
X255578Y278305D02*
X264180D01*
X254675Y279205D02*
X264058D01*
X224900Y120805D02*
X263814D01*
X175625Y125305D02*
X263371D01*
X224641Y121705D02*
X262920D01*
X175233Y124405D02*
X262735D01*
X223970Y122605D02*
X262551D01*
X174284Y123505D02*
X262496D01*
X252900Y197305D02*
X260249D01*
X253163Y207205D02*
X259986D01*
X253383Y217105D02*
X259767D01*
X253499Y219805D02*
X259650D01*
X253574Y227005D02*
X259576D01*
X253677Y209905D02*
X259473D01*
X253836Y200005D02*
X259314D01*
X253980Y190105D02*
X259169D01*
X254391Y196405D02*
X258759D01*
X254493Y206305D02*
X258656D01*
X254589Y216205D02*
X258561D01*
X254642Y220705D02*
X258507D01*
X254678Y226105D02*
X258472D01*
X254728Y210805D02*
X258421D01*
X254809Y200905D02*
X258341D01*
X254884Y191005D02*
X258265D01*
X255108Y195505D02*
X258041D01*
X255165Y205405D02*
X257984D01*
X255219Y215305D02*
X257931D01*
X255249Y221605D02*
X257901D01*
X244168Y115405D02*
X257892D01*
X255268Y225205D02*
X257881D01*
X255297Y211705D02*
X257853D01*
X255341Y201805D02*
X257808D01*
X255383Y191905D02*
X257767D01*
X255501Y194605D02*
X257648D01*
X255530Y204505D02*
X257620D01*
X255556Y214405D02*
X257594D01*
X255570Y222505D02*
X257579D01*
X255579Y224305D02*
X257570D01*
X255592Y212605D02*
X257558D01*
X255611Y202705D02*
X257539D01*
X255628Y192805D02*
X257522D01*
X255665Y193705D02*
X257484D01*
X255671Y203605D02*
X257479D01*
X243572Y110905D02*
X257476D01*
X255674Y213505D02*
X257476D01*
X255675Y223405D02*
X257475D01*
X244771Y114505D02*
X257008D01*
X244523Y111805D02*
X256834D01*
X220293Y268405D02*
X256776D01*
X244989Y113605D02*
X256643D01*
X244916Y112705D02*
X256592D01*
X225693Y273805D02*
X255757D01*
X213098Y254005D02*
X255359D01*
X213098Y258505D02*
X255248D01*
X221193Y269305D02*
X254983D01*
X224793Y272905D02*
X254733D01*
X213098Y254905D02*
X254576D01*
X101100Y152305D02*
X254534D01*
X213098Y257605D02*
X254529D01*
X222093Y270205D02*
X254416D01*
X223893Y272005D02*
X254313D01*
X213098Y255805D02*
X254258D01*
X213098Y256705D02*
X254244D01*
X222993Y271105D02*
X254219D01*
X141043Y158605D02*
X253659D01*
X192821Y141505D02*
X253333D01*
X241966Y146905D02*
X252609D01*
X101100Y153205D02*
X252565D01*
X247846Y135205D02*
X252437D01*
X141012Y157705D02*
X252371D01*
X242454Y142405D02*
X252205D01*
X101100Y154105D02*
X251905D01*
X242876Y146005D02*
X251887D01*
X140715Y156805D02*
X251813D01*
X246692Y130705D02*
X251778D01*
X243080Y143305D02*
X251695D01*
X246948Y279205D02*
X251625D01*
X137927Y155005D02*
X251612D01*
X140049Y155905D02*
X251583D01*
X243252Y145105D02*
X251558D01*
X243313Y144205D02*
X251499D01*
X248350Y134305D02*
X251461D01*
X247895Y131605D02*
X251188D01*
X226593Y274705D02*
X251156D01*
X248505Y133405D02*
X251059D01*
X248370Y132505D02*
X250978D01*
X246693Y278305D02*
X250722D01*
X227493Y275605D02*
X250526D01*
X246029Y277405D02*
X250349D01*
X228393Y276505D02*
X250290D01*
X163875Y197305D02*
X250249D01*
X101100Y207205D02*
X249986D01*
X213098Y217105D02*
X249767D01*
X213098Y219805D02*
X249650D01*
X213098Y227005D02*
X249576D01*
X213098Y209905D02*
X249473D01*
X162785Y200005D02*
X249314D01*
X101100Y190105D02*
X249169D01*
X163876Y196405D02*
X248759D01*
X101100Y206305D02*
X248656D01*
X213098Y216205D02*
X248561D01*
X213098Y220705D02*
X248507D01*
X213098Y226105D02*
X248472D01*
X213098Y210805D02*
X248421D01*
X161847Y200905D02*
X248341D01*
X101100Y191005D02*
X248265D01*
X163712Y195505D02*
X248041D01*
X101100Y205405D02*
X247984D01*
X213098Y215305D02*
X247931D01*
X213098Y221605D02*
X247901D01*
X213098Y225205D02*
X247881D01*
X213098Y211705D02*
X247853D01*
X159766Y201805D02*
X247808D01*
X159815Y191905D02*
X247767D01*
X163367Y194605D02*
X247648D01*
X101100Y204505D02*
X247620D01*
X213098Y214405D02*
X247594D01*
X213098Y222505D02*
X247579D01*
X213098Y224305D02*
X247570D01*
X213098Y212605D02*
X247558D01*
X101100Y202705D02*
X247539D01*
X161859Y192805D02*
X247522D01*
X162792Y193705D02*
X247484D01*
X101100Y203605D02*
X247479D01*
X213098Y213505D02*
X247476D01*
X213098Y223405D02*
X247475D01*
X208893Y136105D02*
X244744D01*
X238914Y130705D02*
X244575D01*
X208912Y135205D02*
X243421D01*
X239009Y131605D02*
X243372D01*
X237410Y134305D02*
X242916D01*
X238851Y132505D02*
X242896D01*
X238395Y133405D02*
X242762D01*
X233793Y281905D02*
X242484D01*
X229293Y277405D02*
X242160D01*
X232893Y281005D02*
X241632D01*
X230193Y278305D02*
X241496D01*
X231993Y280105D02*
X241281D01*
X231093Y279205D02*
X241241D01*
X224887Y110905D02*
X240680D01*
X101100Y115405D02*
X240084D01*
X223291Y111805D02*
X239729D01*
X101100Y114505D02*
X239481D01*
X101100Y112705D02*
X239336D01*
X101100Y113605D02*
X239263D01*
X101100Y146905D02*
X238939D01*
X193085Y142405D02*
X238452D01*
X190745Y146005D02*
X238029D01*
X193088Y143305D02*
X237826D01*
X192227Y145105D02*
X237653D01*
X192830Y144205D02*
X237593D01*
X208673Y134305D02*
X234081D01*
X140452Y128905D02*
X233758D01*
X208100Y133405D02*
X233096D01*
X140467Y129805D02*
X232952D01*
X206752Y132505D02*
X232640D01*
X140407Y130705D02*
X232577D01*
X140271Y131605D02*
X232482D01*
X213291Y111805D02*
X220961D01*
X190275Y118105D02*
X220422D01*
X189554Y122605D02*
X220124D01*
X214601Y104605D02*
X219651D01*
X190852Y119005D02*
X219579D01*
X190556Y121705D02*
X219454D01*
X214887Y110905D02*
X219365D01*
X191055Y119905D02*
X219232D01*
X190967Y120805D02*
X219195D01*
X215472Y105505D02*
X218780D01*
X215629Y110005D02*
X218623D01*
X215954Y106405D02*
X218298D01*
X216037Y109105D02*
X218215D01*
X216186Y107305D02*
X218066D01*
X216213Y108205D02*
X218039D01*
X203291Y111805D02*
X210961D01*
X204601Y104605D02*
X209651D01*
X204887Y110905D02*
X209365D01*
X205472Y105505D02*
X208780D01*
X205629Y110005D02*
X208623D01*
X205954Y106405D02*
X208298D01*
X206037Y109105D02*
X208215D01*
X206186Y107305D02*
X208066D01*
X206213Y108205D02*
X208039D01*
X135330Y138805D02*
X205124D01*
X140057Y132505D02*
X204585D01*
X136567Y137905D02*
X203371D01*
X139760Y133405D02*
X203238D01*
X137517Y137005D02*
X202728D01*
X139372Y134305D02*
X202665D01*
X138273Y136105D02*
X202445D01*
X138882Y135205D02*
X202426D01*
X193291Y111805D02*
X200961D01*
X194601Y104605D02*
X199651D01*
X194887Y110905D02*
X199365D01*
X195472Y105505D02*
X198780D01*
X195629Y110005D02*
X198623D01*
X195954Y106405D02*
X198298D01*
X196037Y109105D02*
X198215D01*
X196186Y107305D02*
X198066D01*
X196213Y108205D02*
X198039D01*
X101100Y111805D02*
X190961D01*
X101100Y104605D02*
X189651D01*
X101100Y110905D02*
X189365D01*
X181970Y139705D02*
X189026D01*
X101100Y146005D02*
X188959D01*
X101100Y105505D02*
X188780D01*
X101100Y110005D02*
X188623D01*
X101100Y106405D02*
X188298D01*
X101100Y109105D02*
X188215D01*
X101100Y107305D02*
X188066D01*
X101100Y108205D02*
X188039D01*
X182960Y140605D02*
X187494D01*
X182310Y145105D02*
X187477D01*
X183419Y141505D02*
X186883D01*
X183112Y144205D02*
X186875D01*
X173413Y122605D02*
X186823D01*
X183578Y142405D02*
X186619D01*
X183484Y143305D02*
X186617D01*
X174133Y118105D02*
X186103D01*
X174414Y121705D02*
X185822D01*
X174711Y119005D02*
X185526D01*
X174826Y120805D02*
X185411D01*
X174914Y119905D02*
X185323D01*
X133547Y139705D02*
X178660D01*
X101100Y145105D02*
X178320D01*
X101100Y140605D02*
X177670D01*
X101100Y144205D02*
X177518D01*
X101100Y141505D02*
X177211D01*
X101100Y143305D02*
X177145D01*
X101100Y142405D02*
X177052D01*
X138664Y123505D02*
X171386D01*
X140364Y128005D02*
X170794D01*
X138002Y122605D02*
X170682D01*
X139197Y124405D02*
X170436D01*
X140199Y127105D02*
X170191D01*
X139623Y125305D02*
X170044D01*
X139953Y126205D02*
X169971D01*
X101100Y118105D02*
X169961D01*
X137179Y121705D02*
X169680D01*
X132530Y119005D02*
X169384D01*
X136135Y120805D02*
X169269D01*
X134738Y119905D02*
X169181D01*
X128270Y201805D02*
X157951D01*
X128319Y191905D02*
X157902D01*
X130351Y200905D02*
X155870D01*
X130363Y192805D02*
X155857D01*
X131289Y200005D02*
X154931D01*
X131296Y193705D02*
X154924D01*
X131866Y199105D02*
X154354D01*
X131871Y194605D02*
X154349D01*
X132214Y198205D02*
X154007D01*
X132216Y195505D02*
X154004D01*
X132379Y197305D02*
X153842D01*
X132380Y196405D02*
X153841D01*
X101100Y155005D02*
X137664D01*
X101100Y161305D02*
X136596D01*
X101100Y155905D02*
X135541D01*
X101100Y160405D02*
X135327D01*
X101100Y156805D02*
X134876D01*
X101100Y159505D02*
X134773D01*
X101100Y157705D02*
X134579D01*
X101100Y158605D02*
X134547D01*
X101100Y119005D02*
X126525D01*
X101100Y201805D02*
X126455D01*
X101100Y191905D02*
X126406D01*
X101100Y139705D02*
X125508D01*
X101100Y200905D02*
X124374D01*
X101100Y192805D02*
X124361D01*
X101100Y119905D02*
X124317D01*
X101100Y138805D02*
X123725D01*
X101100Y200005D02*
X123435D01*
X101100Y193705D02*
X123428D01*
X101100Y120805D02*
X122920D01*
X101100Y199105D02*
X122858D01*
X101100Y194605D02*
X122853D01*
X101100Y198205D02*
X122511D01*
X101100Y195505D02*
X122508D01*
X101100Y137905D02*
X122488D01*
X101100Y197305D02*
X122346D01*
X101100Y196405D02*
X122345D01*
X101100Y121705D02*
X121876D01*
X101100Y137005D02*
X121538D01*
X101100Y122605D02*
X121053D01*
X101100Y136105D02*
X120782D01*
X101100Y123505D02*
X120391D01*
X101100Y135205D02*
X120173D01*
X101100Y124405D02*
X119858D01*
X101100Y134305D02*
X119683D01*
X101100Y125305D02*
X119433D01*
X101100Y133405D02*
X119295D01*
X101100Y126205D02*
X119102D01*
X101100Y132505D02*
X118998D01*
X101100Y127105D02*
X118857D01*
X101100Y131605D02*
X118784D01*
X101100Y128005D02*
X118691D01*
X101100Y130705D02*
X118649D01*
X101100Y128905D02*
X118603D01*
X101100Y129805D02*
X118589D01*
G54D103*
X215025Y110773D02*
X214247Y109995D01*
X209227Y110773D02*
X210005Y109995D01*
X209227Y104975D02*
X210005Y105753D01*
X215025Y104975D02*
X214247Y105753D01*
X264474Y220526D02*
X263696Y221304D01*
X264474Y226324D02*
X263696Y225547D01*
X258676Y226324D02*
X259453Y225547D01*
X258676Y220526D02*
X259453Y221304D01*
X371088Y114710D02*
X370310Y113932D01*
X365290Y114710D02*
X366068Y113932D01*
X365290Y108912D02*
X366068Y109690D01*
X371088Y108912D02*
X370310Y109690D01*
X361088Y114710D02*
X360310Y113932D01*
X355290Y114710D02*
X356068Y113932D01*
X355290Y108912D02*
X356068Y109690D01*
X361088Y108912D02*
X360310Y109690D01*
X225025Y110773D02*
X224247Y109995D01*
X219227Y110773D02*
X220005Y109995D01*
X219227Y104975D02*
X220005Y105753D01*
X225025Y104975D02*
X224247Y105753D01*
X123801Y193289D02*
X124578Y194067D01*
X123801Y200412D02*
X124578Y199634D01*
X130924Y200412D02*
X130146Y199634D01*
X130924Y193289D02*
X130146Y194067D01*
X455419Y313450D02*
X454641Y312673D01*
X455419Y307652D02*
X454641Y308430D01*
X449621Y307652D02*
X450398Y308430D01*
X449621Y313450D02*
X450398Y312673D01*
X455419Y233450D02*
X454641Y232673D01*
X455419Y227652D02*
X454641Y228430D01*
X449621Y227652D02*
X450398Y228430D01*
X449621Y233450D02*
X450398Y232673D01*
X445419Y213450D02*
X444641Y212673D01*
X445419Y207652D02*
X444641Y208430D01*
X439621Y207652D02*
X440398Y208430D01*
X439621Y213450D02*
X440398Y212673D01*
X303986Y133738D02*
X303209Y132960D01*
X299925Y133738D02*
X300703Y132960D01*
X299925Y129677D02*
X300703Y130455D01*
X303986Y129677D02*
X303209Y130455D01*
X317779Y126834D02*
X317001Y126056D01*
X313717Y126834D02*
X314495Y126056D01*
X313717Y122773D02*
X314495Y123550D01*
X317779Y122773D02*
X317001Y123550D01*
X261479Y115023D02*
X260702Y114245D01*
X257418Y115023D02*
X258196Y114245D01*
X257418Y110962D02*
X258196Y111739D01*
X261479Y110962D02*
X260702Y111739D01*
X300246Y174322D02*
X299468Y173544D01*
X296185Y174322D02*
X296963Y173544D01*
X296185Y170261D02*
X296963Y171039D01*
X300246Y170261D02*
X299468Y171039D01*
X259117Y273290D02*
X258339Y272513D01*
X255056Y273290D02*
X255834Y272513D01*
X255056Y269229D02*
X255834Y270007D01*
X259117Y269229D02*
X258339Y270007D01*
X259117Y258330D02*
X258339Y257552D01*
X255056Y258330D02*
X255834Y257552D01*
X255056Y254269D02*
X255834Y255046D01*
X259117Y254269D02*
X258339Y255046D01*
X278886Y249367D02*
X278108Y248589D01*
X274825Y249367D02*
X275603Y248589D01*
X274825Y245306D02*
X275603Y246083D01*
X278886Y245306D02*
X278108Y246083D01*
X140104Y160577D02*
X139326Y159799D01*
X135486Y160577D02*
X136264Y159799D01*
X135486Y155959D02*
X136264Y156737D01*
X140104Y155959D02*
X139326Y156737D01*
X192161Y145173D02*
X191383Y144395D01*
X187543Y145173D02*
X188321Y144395D01*
X187543Y140555D02*
X188321Y141333D01*
X192161Y140555D02*
X191383Y141333D01*
X174865Y128015D02*
X174087Y127237D01*
X170804Y128015D02*
X171582Y127237D01*
X170804Y123954D02*
X171582Y124732D01*
X174865Y123954D02*
X174087Y124732D01*
X174078Y122109D02*
X173300Y121331D01*
X170017Y122109D02*
X170794Y121331D01*
X170017Y118048D02*
X170794Y118826D01*
X174078Y118048D02*
X173300Y118826D01*
X207978Y137894D02*
X207200Y137117D01*
X203360Y137894D02*
X204138Y137117D01*
X203360Y133276D02*
X204138Y134054D01*
X207978Y133276D02*
X207200Y134054D01*
X244157Y115416D02*
X243379Y114639D01*
X240095Y115416D02*
X240873Y114639D01*
X240095Y111355D02*
X240873Y112133D01*
X244157Y111355D02*
X243379Y112133D01*
X267385Y125259D02*
X266607Y124481D01*
X263324Y125259D02*
X264102Y124481D01*
X263324Y121198D02*
X264102Y121976D01*
X267385Y121198D02*
X266607Y121976D01*
X297978Y137348D02*
X297200Y136571D01*
X293360Y137348D02*
X294138Y136571D01*
X293360Y132730D02*
X294138Y133508D01*
X297978Y132730D02*
X297200Y133508D01*
X314514Y137742D02*
X313736Y136964D01*
X309896Y137742D02*
X310674Y136964D01*
X309896Y133124D02*
X310674Y133902D01*
X314514Y133124D02*
X313736Y133902D01*
X282199Y146753D02*
X281421Y145975D01*
X277581Y146753D02*
X278359Y145975D01*
X277581Y142135D02*
X278359Y142913D01*
X282199Y142135D02*
X281421Y142913D01*
X282199Y157866D02*
X281421Y157088D01*
X277581Y157866D02*
X278359Y157088D01*
X277581Y153248D02*
X278359Y154026D01*
X282199Y153248D02*
X281421Y154026D01*
X332188Y136531D02*
X331410Y135753D01*
X327570Y136531D02*
X328347Y135753D01*
X327570Y131913D02*
X328347Y132691D01*
X332188Y131913D02*
X331410Y132691D01*
X305852Y274356D02*
X305074Y273578D01*
X301234Y274356D02*
X302012Y273578D01*
X301234Y269738D02*
X302012Y270516D01*
X305852Y269738D02*
X305074Y270516D01*
X272503Y284708D02*
X271725Y283930D01*
X268442Y284708D02*
X269220Y283930D01*
X272503Y280647D02*
X271725Y281424D01*
X246125Y281558D02*
X245347Y280780D01*
X242064Y281558D02*
X242842Y280780D01*
X242064Y277497D02*
X242842Y278275D01*
X246125Y277497D02*
X245347Y278275D01*
X255180Y278802D02*
X254402Y278024D01*
X251119Y278802D02*
X251897Y278024D01*
X251119Y274741D02*
X251897Y275519D01*
X255180Y274741D02*
X254402Y275519D01*
X332739Y202818D02*
X331961Y202040D01*
X328678Y202818D02*
X329456Y202040D01*
X332739Y198757D02*
X331961Y199535D01*
X358723Y239038D02*
X357946Y238261D01*
X354662Y239038D02*
X355440Y238261D01*
X354662Y234977D02*
X355440Y235755D01*
X358723Y234977D02*
X357946Y235755D01*
X325625Y237491D02*
X324847Y236713D01*
X321564Y233430D02*
X322341Y234208D01*
X325625Y233430D02*
X324847Y234208D01*
X302031Y253605D02*
X301253Y252828D01*
X297969Y253605D02*
X298747Y252828D01*
X297969Y249544D02*
X298747Y250322D01*
X302031Y249544D02*
X301253Y250322D01*
X291401Y252031D02*
X290623Y251253D01*
X287340Y252031D02*
X288117Y251253D01*
X287340Y247969D02*
X288117Y248747D01*
X291401Y247969D02*
X290623Y248747D01*
X355180Y195731D02*
X354402Y194954D01*
X351119Y195731D02*
X351897Y194954D01*
X351119Y191670D02*
X351897Y192448D01*
X355180Y191670D02*
X354402Y192448D01*
X326440Y181952D02*
X325662Y181174D01*
X322379Y181952D02*
X323157Y181174D01*
X322379Y177891D02*
X323157Y178669D01*
X326440Y177891D02*
X325662Y178669D01*
X320535Y217779D02*
X319757Y217001D01*
X316473Y217779D02*
X317251Y217001D01*
X316473Y213717D02*
X317251Y214495D01*
X320535Y213717D02*
X319757Y214495D01*
X283920Y280771D02*
X283143Y279993D01*
X279859Y280771D02*
X280637Y279993D01*
X279859Y276710D02*
X280637Y277487D01*
X283920Y276710D02*
X283143Y277487D01*
X402031Y107149D02*
X401253Y106371D01*
X397969Y107149D02*
X398747Y106371D01*
X397969Y103088D02*
X398747Y103865D01*
X402031Y103088D02*
X401253Y103865D01*
X392188Y107149D02*
X391410Y106371D01*
X388127Y107149D02*
X388905Y106371D01*
X388127Y103088D02*
X388905Y103865D01*
X392188Y103088D02*
X391410Y103865D01*
X328409Y263842D02*
X327631Y263064D01*
X324347Y263842D02*
X325125Y263064D01*
X324347Y259780D02*
X325125Y260558D01*
X328409Y259780D02*
X327631Y260558D01*
X352424Y210298D02*
X351646Y209520D01*
X348363Y210298D02*
X349141Y209520D01*
X348363Y206237D02*
X349141Y207015D01*
X352424Y206237D02*
X351646Y207015D01*
X325653Y227621D02*
X324875Y226843D01*
X321591Y227621D02*
X322369Y226843D01*
X321591Y223560D02*
X322369Y224338D01*
X325653Y223560D02*
X324875Y224338D01*
X382346Y107149D02*
X381568Y106371D01*
X378284Y107149D02*
X379062Y106371D01*
X378284Y103088D02*
X379062Y103865D01*
X382346Y103088D02*
X381568Y103865D01*
X314029Y238596D02*
X313251Y237819D01*
X309968Y234535D02*
X310746Y235313D01*
X320753Y239457D02*
X319975Y238679D01*
X316691Y239457D02*
X317469Y238679D01*
X316691Y235396D02*
X317469Y236174D01*
X327497Y229196D02*
X328275Y228418D01*
X327497Y225135D02*
X328275Y225913D01*
X331558Y225135D02*
X330780Y225913D01*
X322503Y250062D02*
X321725Y249284D01*
X318442Y250062D02*
X319220Y249284D01*
X318442Y246001D02*
X319220Y246779D01*
X307149Y250062D02*
X306371Y249284D01*
X303088Y250062D02*
X303865Y249284D01*
X303088Y246001D02*
X303865Y246779D01*
X307149Y246001D02*
X306371Y246779D01*
G54D180*
X261575Y223425D03*
X442520Y210551D03*
X452520Y230551D03*
Y310551D03*
X212126Y107874D03*
X222126D03*
X358189Y111811D03*
X368189D03*
G54D181*
X127362Y196850D03*
G54D206*
X390157Y105118D03*
X380315D03*
X400000D03*
X172835Y125984D03*
X172047Y120079D03*
X242126Y113386D03*
X259449Y112992D03*
X265354Y123228D03*
X315748Y124803D03*
X301956Y131708D03*
X298216Y172291D03*
X324409Y179921D03*
X330709Y200787D03*
X353150Y193701D03*
X318504Y215748D03*
X323622Y225591D03*
X350394Y208268D03*
X311998Y236566D03*
X323594Y235460D03*
X318722Y237426D03*
X329528Y227165D03*
X356693Y237008D03*
X257087Y256299D03*
X289370Y250000D03*
X276856Y247336D03*
X305118Y248031D03*
X300000Y251575D03*
X320472Y248031D03*
X326378Y261811D03*
X244094Y279528D03*
X253150Y276772D03*
X270472Y282677D03*
X257087Y271260D03*
X281890Y278740D03*
G54D207*
X189852Y142864D03*
X205669Y135585D03*
X279890Y144444D03*
X312205Y135433D03*
X295669Y135039D03*
X329879Y134222D03*
X137795Y158268D03*
X279890Y155557D03*
X303543Y272047D03*
G74*
X0Y0D02*
M02*
