*
*
G04 PADS VX.1.1 Build Number: 678707 generated Gerber (RS-274-X) file*
G04 PC Version=2.1*
*
%IN "opqbox2.pcb"*%
*
%MOIN*%
*
%FSLAX35Y35*%
*
*
*
*
G04 PC Standard Apertures*
*
*
G04 Thermal Relief Aperture macro.*
%AMTER*
1,1,$1,0,0*
1,0,$1-$2,0,0*
21,0,$3,$4,0,0,45*
21,0,$3,$4,0,0,135*
%
*
*
G04 Annular Aperture macro.*
%AMANN*
1,1,$1,0,0*
1,0,$2,0,0*
%
*
*
G04 Odd Aperture macro.*
%AMODD*
1,1,$1,0,0*
1,0,$1-0.005,0,0*
%
*
*
G04 PC Custom Aperture Macros*
*
*
*
*
*
*
G04 PC Aperture Table*
*
%ADD010C,0.001*%
%ADD013C,0.01*%
%ADD134C,0.062*%
%ADD153R,0.032X0.04*%
%ADD154R,0.04X0.032*%
%ADD155R,0.062X0.102*%
%ADD156R,0.065X0.0295*%
%ADD157R,0.038X0.038*%
%ADD158R,0.052X0.038*%
%ADD159C,0.08074*%
%ADD161R,0.102X0.062*%
%ADD163R,0.04137X0.01184*%
%ADD164R,0.01184X0.04137*%
%ADD166R,0.13586X0.05712*%
%ADD169R,0.05712X0.13586*%
%ADD177R,0.038X0.052*%
%ADD194R,0.022X0.027*%
%ADD195R,0.027X0.022*%
%ADD196R,0.06499X0.05318*%
%ADD197R,0.01972X0.06499*%
%ADD198R,0.062X0.082*%
%ADD199R,0.06302X0.09452*%
%ADD200R,0.052X0.062*%
%ADD201R,0.062X0.052*%
%ADD202R,0.02562X0.07287*%
%ADD203R,0.01381X0.07877*%
%ADD204R,0.02562X0.05909*%
%ADD205R,0.03546X0.01184*%
*
*
*
*
G04 PC Circuitry*
G04 Layer Name opqbox2.pcb - circuitry*
%LPD*%
*
*
G04 PC Custom Flashes*
G04 Layer Name opqbox2.pcb - flashes*
%LPD*%
*
*
G04 PC Circuitry*
G04 Layer Name opqbox2.pcb - circuitry*
%LPD*%
*
G54D10*
G54D13*
G01X100000Y100000D02*
Y493701D01*
X493701*
Y100000*
X100000*
X139370Y129528D02*
G75*
G03X139370I-9842J0D01*
G01X474016D02*
G03X474016I-9843J0D01*
G01Y464173D02*
G03X474016I-9843J0D01*
G01X139370D02*
G03X139370I-9842J0D01*
G54D134*
G01X283268Y386811D03*
X343268D03*
X343110Y415748D03*
X283110D03*
X251575Y223425D03*
X261575D03*
X251575Y213425D03*
X261575D03*
X251575Y203425D03*
X261575D03*
X251575Y193425D03*
X261575D03*
X452520Y190551D03*
X442520D03*
X452520Y200551D03*
X442520D03*
X452520Y210551D03*
X442520D03*
X452520Y220551D03*
X442520D03*
X452520Y230551D03*
X442520D03*
X452520Y240551D03*
X442520D03*
X452520Y250551D03*
X442520D03*
X452520Y260551D03*
X442520D03*
X452520Y270551D03*
X442520D03*
X452520Y280551D03*
X442520D03*
X452520Y290551D03*
X442520D03*
X452520Y300551D03*
X442520D03*
X452520Y310551D03*
X442520D03*
X452520Y320551D03*
X442520D03*
X452520Y330551D03*
X442520D03*
X452520Y340551D03*
X442520D03*
X452520Y350551D03*
X442520D03*
X452520Y360551D03*
X442520D03*
X452520Y370551D03*
X442520D03*
X452520Y380551D03*
X442520D03*
X192126Y107874D03*
X202126D03*
X212126D03*
X222126D03*
X338189Y111811D03*
X348189D03*
X358189D03*
X368189D03*
G54D153*
X380512Y111664D03*
Y117864D03*
X390354Y111664D03*
Y117864D03*
X400197Y111664D03*
Y117864D03*
X276969Y243061D03*
Y236861D03*
X329528Y327903D03*
Y321703D03*
X162205Y114911D03*
Y108711D03*
G54D154*
X335580Y179921D03*
X329380D03*
X341289Y200591D03*
X335089D03*
G54D155*
X270530Y263780D03*
X257030D03*
X166872Y155906D03*
X180372D03*
G54D156*
X322304Y348031D03*
X308404D03*
X221003Y144488D03*
X234903D03*
G54D157*
X348829Y194057D03*
X341329D03*
X285620Y236848D03*
X293120D03*
X222478Y135246D03*
Y127746D03*
G54D158*
X230478Y131496D03*
G54D159*
X218110Y452362D03*
Y472362D03*
X157087Y385433D03*
X127559Y375591D03*
Y426772D03*
Y407087D03*
X159055Y454331D03*
Y474331D03*
X127362Y348425D03*
X169685D03*
X158858Y196850D03*
X127362D03*
G54D161*
X268307Y326715D03*
Y340215D03*
G54D163*
X336122Y215157D03*
Y217126D03*
Y219094D03*
Y221063D03*
Y223031D03*
Y225000D03*
Y226969D03*
Y228937D03*
Y230906D03*
Y232874D03*
Y234843D03*
Y236811D03*
X303248D03*
Y234843D03*
Y232874D03*
Y230906D03*
Y228937D03*
Y226969D03*
Y225000D03*
Y223031D03*
Y221063D03*
Y219094D03*
Y217126D03*
Y215157D03*
G54D164*
X330512Y242421D03*
X328543D03*
X326575D03*
X324606D03*
X322638D03*
X320669D03*
X318701D03*
X316732D03*
X314764D03*
X312795D03*
X310827D03*
X308858D03*
Y209547D03*
X310827D03*
X312795D03*
X314764D03*
X316732D03*
X318701D03*
X320669D03*
X322638D03*
X324606D03*
X326575D03*
X328543D03*
X330512D03*
G54D166*
X254724Y150000D03*
X279921D03*
G54D169*
X335433Y159449D03*
Y134252D03*
G54D177*
X345079Y186057D03*
X289370Y244848D03*
G54D194*
X326378Y253012D03*
Y258012D03*
X380512Y132028D03*
Y127028D03*
X390354Y132028D03*
Y127028D03*
X400197Y132028D03*
Y127028D03*
X299803Y247776D03*
Y242776D03*
X311417Y339902D03*
Y334902D03*
X318504Y339902D03*
Y334902D03*
X316929Y265886D03*
Y260886D03*
X311024Y265886D03*
Y260886D03*
X298819Y157343D03*
Y162343D03*
X292913Y157343D03*
Y162343D03*
X245669Y129665D03*
Y124665D03*
Y118248D03*
Y113248D03*
X162205Y129665D03*
Y124665D03*
G54D195*
X272894Y278937D03*
X277894D03*
X256949Y276772D03*
X261949D03*
X311476Y254528D03*
X316476D03*
X312461Y328740D03*
X317461D03*
X254469Y326378D03*
X249469D03*
Y320472D03*
X254469D03*
X304587Y162992D03*
X309587D03*
X304429Y168819D03*
X309429D03*
X293169Y168898D03*
X298169D03*
X214705Y135433D03*
X209705D03*
X176909Y116142D03*
X171909D03*
G54D196*
X364370Y232874D03*
X348622D03*
Y223031D03*
X364370D03*
G54D197*
X243996Y285236D03*
X246555D03*
X249114D03*
X251673D03*
X254232D03*
X256791D03*
X259350D03*
X261909D03*
X264469D03*
X267028D03*
Y312402D03*
X264469D03*
X261909D03*
X259350D03*
X256791D03*
X254232D03*
X251673D03*
X249114D03*
X246555D03*
X243996D03*
G54D198*
X300799Y112205D03*
X311799D03*
G54D199*
X182677Y127559D03*
G54D200*
X189764Y157650D03*
Y148650D03*
G54D201*
X156469Y158268D03*
X147469D03*
G54D202*
X321673Y319783D03*
X316673D03*
X311673D03*
X306673D03*
Y277854D03*
X311673D03*
X316673D03*
X321673D03*
G54D203*
X295669Y124902D03*
X298031D03*
X300394D03*
X302756D03*
X305118D03*
X307480D03*
X309843D03*
X312205D03*
Y144390D03*
X309843D03*
X307480D03*
X305118D03*
X302756D03*
X300394D03*
X298031D03*
X295669D03*
G54D204*
X253740Y118209D03*
X257480D03*
X261220D03*
Y127461D03*
X253740D03*
G54D205*
X188287Y123622D03*
Y125591D03*
Y127559D03*
Y129528D03*
Y131496D03*
X177067D03*
Y129528D03*
Y127559D03*
Y125591D03*
Y123622D03*
G74*
X0Y0D02*
M02*
