*
*
G04 PADS VX.1.1 Build Number: 678707 generated Gerber (RS-274-X) file*
G04 PC Version=2.1*
*
%IN "opqbox2.pcb"*%
*
%MOIN*%
*
%FSLAX35Y35*%
*
*
*
*
G04 PC Standard Apertures*
*
*
G04 Thermal Relief Aperture macro.*
%AMTER*
1,1,$1,0,0*
1,0,$1-$2,0,0*
21,0,$3,$4,0,0,45*
21,0,$3,$4,0,0,135*
%
*
*
G04 Annular Aperture macro.*
%AMANN*
1,1,$1,0,0*
1,0,$2,0,0*
%
*
*
G04 Odd Aperture macro.*
%AMODD*
1,1,$1,0,0*
1,0,$1-0.005,0,0*
%
*
*
G04 PC Custom Aperture Macros*
*
*
*
*
*
*
G04 PC Aperture Table*
*
%ADD010C,0.001*%
%ADD011C,0.00787*%
%ADD013C,0.01*%
%ADD193C,0.0015*%
*
*
*
*
G04 PC Circuitry*
G04 Layer Name opqbox2.pcb - circuitry*
%LPD*%
*
*
G04 PC Custom Flashes*
G04 Layer Name opqbox2.pcb - flashes*
%LPD*%
*
*
G04 PC Circuitry*
G04 Layer Name opqbox2.pcb - circuitry*
%LPD*%
*
G54D10*
G54D11*
G01X332776Y212894D02*
Y239075D01*
X306594*
Y225492*
X307579Y225000*
X306594Y224508*
Y212894*
X332776*
X241339Y289764D02*
Y297687D01*
X243110*
Y299951*
X241339*
Y307874*
X269685*
Y289764*
X241339*
X325689Y314862D02*
Y300824D01*
X324250*
Y296813*
X325689*
Y282776*
X302657*
Y314862*
X325689*
X294291Y130118D02*
Y134080D01*
X295497*
Y135212*
X294291*
Y139173*
X313583*
Y130118*
X294291*
X251772Y122441D02*
Y122785D01*
X252485*
Y122884*
X251772*
Y123228*
X263189*
Y122441*
X251772*
X185236Y121654D02*
X182997D01*
Y122392*
X182357*
Y121654*
X180118*
Y133465*
X185236*
Y121654*
G54D13*
X333268Y386811D02*
X338268D01*
X293268Y379311D02*
Y394311D01*
X333268*
Y379311*
X293268*
Y386811D02*
X288268D01*
X293110Y415748D02*
X288110D01*
X333110Y423248D02*
Y408248D01*
X293110*
Y423248*
X333110*
Y415748D02*
X338110D01*
X261307Y329715D02*
Y321665D01*
X275307*
Y329715*
X261307Y337215D02*
Y345265D01*
X275307*
Y337215*
X135433Y438583D02*
X119685D01*
Y395276*
X135433*
Y438583*
X327854Y353031D02*
Y343031D01*
X302854*
Y353031*
X327854*
X377012Y113564D02*
Y107764D01*
X384012*
Y113564*
X377012Y115964D02*
Y121764D01*
X384012*
Y115964*
X323378Y254262D02*
Y249712D01*
X329378*
Y254262*
X323378Y256762D02*
Y261312D01*
X329378*
Y256762*
X383512Y130778D02*
Y135328D01*
X377512*
Y130778*
X383512Y128278D02*
Y123728D01*
X377512*
Y128278*
X386854Y113564D02*
Y107764D01*
X393854*
Y113564*
X386854Y115964D02*
Y121764D01*
X393854*
Y115964*
X393354Y130778D02*
Y135328D01*
X387354*
Y130778*
X393354Y128278D02*
Y123728D01*
X387354*
Y128278*
X403197Y130778D02*
Y135328D01*
X397197*
Y130778*
X403197Y128278D02*
Y123728D01*
X397197*
Y128278*
X396697Y113564D02*
Y107764D01*
X403697*
Y113564*
X396697Y115964D02*
Y121764D01*
X403697*
Y115964*
X274144Y281937D02*
X269594D01*
Y275937*
X274144*
X276644Y281937D02*
X281194D01*
Y275937*
X276644*
X333680Y176421D02*
X339480D01*
Y183421*
X333680*
X331280Y176421D02*
X325480D01*
Y183421*
X331280*
X348079Y186157D02*
X350579D01*
Y191157*
X342079Y186157D02*
X339579D01*
Y191157*
X345579Y195157D02*
X344579D01*
X280469Y241161D02*
Y246961D01*
X273469*
Y241161*
X280469Y238761D02*
Y232961D01*
X273469*
Y238761*
X286370Y244748D02*
X283870D01*
Y239748*
X292370Y244748D02*
X294870D01*
Y239748*
X288870Y235748D02*
X289870D01*
X302803Y246526D02*
Y251076D01*
X296803*
Y246526*
X302803Y244026D02*
Y239476D01*
X296803*
Y244026*
X339389Y197091D02*
X345189D01*
Y204091*
X339389*
X336989Y197091D02*
X331189D01*
Y204091*
X336989*
X258199Y279772D02*
X253649D01*
Y273772*
X258199*
X260699Y279772D02*
X265249D01*
Y273772*
X260699*
X267530Y256780D02*
X275580D01*
Y270780*
X267530*
X260030Y256780D02*
X251980D01*
Y270780*
X260030*
X312726Y257528D02*
X308176D01*
Y251528*
X312726*
X315226Y257528D02*
X319776D01*
Y251528*
X315226*
X313711Y331740D02*
X309161D01*
Y325740*
X313711*
X316211Y331740D02*
X320761D01*
Y325740*
X316211*
X314417Y338652D02*
Y343202D01*
X308417*
Y338652*
X314417Y336152D02*
Y331602D01*
X308417*
Y336152*
X253219Y323378D02*
X257769D01*
Y329378*
X253219*
X250719Y323378D02*
X246169D01*
Y329378*
X250719*
Y323472D02*
X246169D01*
Y317472*
X250719*
X253219Y323472D02*
X257769D01*
Y317472*
X253219*
X333028Y326003D02*
Y331803D01*
X326028*
Y326003*
X333028Y323603D02*
Y317803D01*
X326028*
Y323603*
X321504Y338652D02*
Y343202D01*
X315504*
Y338652*
X321504Y336152D02*
Y331602D01*
X315504*
Y336152*
X319929Y264636D02*
Y269186D01*
X313929*
Y264636*
X319929Y262136D02*
Y257586D01*
X313929*
Y262136*
X314024Y264636D02*
Y269186D01*
X308024*
Y264636*
X314024Y262136D02*
Y257586D01*
X308024*
Y262136*
X295819Y158593D02*
Y154043D01*
X301819*
Y158593*
X295819Y161093D02*
Y165643D01*
X301819*
Y161093*
X289913Y158593D02*
Y154043D01*
X295913*
Y158593*
X289913Y161093D02*
Y165643D01*
X295913*
Y161093*
X305837Y165992D02*
X301287D01*
Y159992*
X305837*
X308337Y165992D02*
X312887D01*
Y159992*
X308337*
X305679Y171819D02*
X301129D01*
Y165819*
X305679*
X308179Y171819D02*
X312729D01*
Y165819*
X308179*
X294419Y171898D02*
X289869D01*
Y165898*
X294419*
X296919Y171898D02*
X301469D01*
Y165898*
X296919*
X303799Y118205D02*
X295799D01*
Y106205*
X303799*
X308799Y118205D02*
X316799D01*
Y106205*
X308799*
X248669Y128415D02*
Y132965D01*
X242669*
Y128415*
X248669Y125915D02*
Y121365D01*
X242669*
Y125915*
X248669Y116998D02*
Y121548D01*
X242669*
Y116998*
X248669Y114498D02*
Y109948D01*
X242669*
Y114498*
X169872Y162906D02*
X161822D01*
Y148906*
X169872*
X177372Y162906D02*
X185422D01*
Y148906*
X177372*
X213455Y132433D02*
X218005D01*
Y138433*
X213455*
X210955Y132433D02*
X206405D01*
Y138433*
X210955*
X230378Y134496D02*
Y136996D01*
X225378*
X230378Y128496D02*
Y125996D01*
X225378*
X221378Y131996D02*
Y130996D01*
X215453Y139488D02*
Y149488D01*
X240453*
Y139488*
X215453*
X165705Y113011D02*
Y118811D01*
X158705*
Y113011*
X165705Y110611D02*
Y104811D01*
X158705*
Y110611*
X165205Y128415D02*
Y132965D01*
X159205*
Y128415*
X165205Y125915D02*
Y121365D01*
X159205*
Y125915*
X175659Y113142D02*
X180209D01*
Y119142*
X175659*
X173159Y113142D02*
X168609D01*
Y119142*
X173159*
X194264Y154650D02*
Y162650D01*
X185264*
Y154650*
X194264Y151650D02*
Y143650D01*
X185264*
Y151650*
X153469Y153768D02*
X161469D01*
Y162768*
X153469*
X150469Y153768D02*
X142469D01*
Y162768*
X150469*
X226902Y440551D02*
X233465D01*
X226902D02*
X233465Y443733D01*
X226902D02*
X233465D01*
X226902Y445778D02*
X233465D01*
X226902D02*
Y448733D01*
X230027Y445778D02*
Y447597D01*
X233465Y445778D02*
Y448733D01*
X226902Y450778D02*
X231590D01*
X232527Y451006*
X233152Y451460*
X233465Y452142*
Y452597*
X233152Y453278*
X232527Y453733*
X231590Y453960*
X226902*
Y457597D02*
X233465D01*
X226902Y456006D02*
Y459188D01*
Y461233D02*
X233465D01*
X226902D02*
Y463278D01*
X227215Y463960*
X227527Y464188*
X228152Y464415*
X228777*
X229402Y464188*
X229715Y463960*
X230027Y463278*
Y461233*
Y462824D02*
X233465Y464415D01*
X226902Y468278D02*
X233465Y466460D01*
X226902Y468278D02*
X233465Y470097D01*
X231277Y467142D02*
Y469415D01*
X226902Y472142D02*
X233465D01*
Y474869*
X309055Y390027D02*
Y383465D01*
Y390027D02*
X311101D01*
X311782Y389715*
X312010Y389402*
X312237Y388777*
Y388152*
X312010Y387527*
X311782Y387215*
X311101Y386902*
X309055*
X310646D02*
X312237Y383465D01*
X316555Y390027D02*
X314282Y385652D01*
X317691*
X316555Y390027D02*
Y383465D01*
X309055Y419555D02*
Y412992D01*
Y419555D02*
X311101D01*
X311782Y419242*
X312010Y418930*
X312237Y418305*
Y417680*
X312010Y417055*
X311782Y416742*
X311101Y416430*
X309055*
X310646D02*
X312237Y412992D01*
X317237Y419555D02*
X314964D01*
X314737Y416742*
X314964Y417055*
X315646Y417367*
X316328*
X317010Y417055*
X317464Y416430*
X317691Y415492*
X317464Y414867*
X317237Y413930*
X316782Y413305*
X316101Y412992*
X315419*
X314737Y413305*
X314510Y413617*
X314282Y414242*
X133071Y384909D02*
Y378346D01*
Y384909D02*
X134889Y378346D01*
X136707Y384909D02*
X134889Y378346D01*
X136707Y384909D02*
Y378346D01*
X140116Y384909D02*
X139662Y384596D01*
X139207Y383971*
X138980Y383346*
X138753Y382409*
Y380846*
X138980Y379909*
X139207Y379284*
X139662Y378659*
X140116Y378346*
X141025*
X141480Y378659*
X141935Y379284*
X141935D02*
X142162Y379909D01*
X142389Y380846*
Y382409*
X142162Y383346*
X141935Y383971*
X141935D02*
X141480Y384596D01*
X141025Y384909*
X140116*
X144435D02*
X146253Y378346D01*
X148071Y384909D02*
X146253Y378346D01*
X150116Y383659D02*
X150571Y383971D01*
X151253Y384909*
Y378346*
X264826Y352244D02*
X264599Y352869D01*
X264145Y353494*
X263690Y353807*
X262781*
X262326Y353494*
X261872Y352869*
X261645Y352244*
X261417Y351307*
Y349744*
X261645Y348807*
X261872Y348182*
X262326Y347557*
X262781Y347244*
X263690*
X264145Y347557*
X264599Y348182*
X264826Y348807*
X267099Y352244D02*
Y352557D01*
X267326Y353182*
X267554Y353494*
X268008Y353807*
X268917*
X269372Y353494*
X269599Y353182*
X269826Y352557*
Y351932*
X269599Y351307*
X269145Y350369*
X266872Y347244*
X270054*
X274372Y353807D02*
X272099Y349432D01*
X275508*
X274372Y353807D02*
Y347244D01*
X124540Y413780D02*
X131102D01*
X124540D02*
Y416734D01*
X127665Y413780D02*
Y415598D01*
X125790Y418780D02*
X125477Y419234D01*
X124540Y419916*
X131102*
X167060Y456693D02*
X173622D01*
Y459420*
X167060Y461466D02*
X173622D01*
X167060Y463511D02*
X173622D01*
X167060D02*
X173622Y466693D01*
X167060D02*
X173622D01*
X167060Y468738D02*
X173622D01*
X167060D02*
Y471693D01*
X170185Y468738D02*
Y470557D01*
X173622Y468738D02*
Y471693D01*
X315354Y230972D02*
Y226284D01*
X315582Y225347*
X316036Y224722*
X316718Y224409*
X317173*
X317854Y224722*
X318309Y225347*
X318536Y226284*
Y230972*
X321036D02*
X323536D01*
X322173Y228472*
X322854*
X323309Y228159*
X323536Y227847*
X323763Y226909*
Y226284*
X323536Y225347*
X323082Y224722*
X322400Y224409*
X321718*
X321036Y224722*
X320809Y225034*
X320582Y225659*
X298048Y363255D02*
Y356693D01*
X296457Y363255D02*
X299639D01*
X301684D02*
X303502Y356693D01*
X305320Y363255D02*
X303502Y356693D01*
X310548Y362318D02*
X310093Y362943D01*
X309411Y363255*
X308502*
X307820Y362943*
X307366Y362318*
Y361693*
X307593Y361068*
X307820Y360755*
X308275Y360443*
X309639Y359818*
X310093Y359505*
X310320Y359193*
X310548Y358568*
Y357630*
X310093Y357005*
X309411Y356693*
X308502*
X307820Y357005*
X307366Y357630*
X312820Y361693D02*
Y362005D01*
X313048Y362630*
X313275Y362943*
X313729Y363255*
X314639*
X315093Y362943*
X315320Y362630*
X315548Y362005*
Y361380*
X315320Y360755*
X314866Y359818*
X312593Y356693*
X315775*
X335299Y257362D02*
X335072Y257987D01*
X334617Y258612*
X334162Y258925*
X333253*
X332799Y258612*
X332344Y257987*
X332117Y257362*
X331890Y256425*
Y254862*
X332117Y253925*
X332344Y253300*
X332799Y252675*
X333253Y252362*
X334162*
X334617Y252675*
X335072Y253300*
X335299Y253925*
X337344Y257675D02*
X337799Y257987D01*
X338481Y258925*
Y252362*
X343481Y258925D02*
X341208D01*
X340981Y256112*
X341208Y256425*
X341890Y256737*
X342572*
X343253Y256425*
X343708Y255800*
X343935Y254862*
X343708Y254237*
X343481Y253300*
X343026Y252675*
X342344Y252362*
X341662*
X340981Y252675*
X340753Y252987*
X340526Y253612*
X376902Y142520D02*
X383465D01*
X376902D02*
Y144565D01*
X377215Y145247*
X377527Y145474*
X378152Y145702*
X378777*
X379402Y145474*
X379715Y145247*
X380027Y144565*
Y142520*
Y144111D02*
X383465Y145702D01*
X376902Y148202D02*
Y150702D01*
X379402Y149338*
Y150020*
X379715Y150474*
X380027Y150702*
X380965Y150929*
X381590*
X382527Y150702*
X383152Y150247*
X383465Y149565*
Y148883*
X383152Y148202*
X382840Y147974*
X382215Y147747*
X378465Y153202D02*
X378152D01*
X377527Y153429*
X377215Y153656*
X376902Y154111*
Y155020*
X377215Y155474*
X377527Y155702*
X378152Y155929*
X378777*
X379402Y155702*
X380340Y155247*
X383465Y152974*
Y156156*
X387138Y142126D02*
X393701D01*
X387138D02*
Y144171D01*
X387451Y144853*
X387763Y145081*
X388388Y145308*
X389013*
X389638Y145081*
X389951Y144853*
X390263Y144171*
Y142126*
Y143717D02*
X393701Y145308D01*
X388701Y147581D02*
X388388D01*
X387763Y147808*
X387451Y148035*
X387138Y148490*
Y149399*
X387451Y149853*
X387763Y150081*
X388388Y150308*
X389013*
X389638Y150081*
X390576Y149626*
X393701Y147353*
Y150535*
X387138Y154853D02*
X391513Y152581D01*
Y155990*
X387138Y154853D02*
X393701D01*
X396587Y141732D02*
X403150D01*
X396587D02*
Y143778D01*
X396900Y144460*
X397212Y144687*
X397837Y144914*
X398462*
X399087Y144687*
X399400Y144460*
X399712Y143778*
Y141732*
Y143323D02*
X403150Y144914D01*
X398150Y147187D02*
X397837D01*
X397212Y147414*
X396900Y147641*
X396587Y148096*
Y149005*
X396900Y149460*
X397212Y149687*
X397837Y149914*
X398462*
X399087Y149687*
X400025Y149232*
X403150Y146960*
Y150141*
X397525Y154914D02*
X396900Y154687D01*
X396587Y154005*
Y153550*
X396900Y152869*
X397837Y152414*
X399400Y152187*
X400962*
X402212Y152414*
X402837Y152869*
X403150Y153550*
Y153778*
X402837Y154460*
X402212Y154914*
X401275Y155141*
X400962*
X400025Y154914*
X399400Y154460*
X399087Y153778*
Y153550*
X399400Y152869*
X400025Y152414*
X400962Y152187*
X288842Y279803D02*
X288615Y280428D01*
X288160Y281053*
X287706Y281366*
X286797*
X286342Y281053*
X285888Y280428*
X285660Y279803*
X285433Y278866*
Y277303*
X285660Y276366*
X285888Y275741*
X286342Y275116*
X286797Y274803*
X287706*
X288160Y275116*
X288615Y275741*
X288842Y276366*
X293842Y279178D02*
X293615Y278241D01*
X293160Y277616*
X292479Y277303*
X292251*
X291569Y277616*
X291115Y278241*
X290888Y279178*
Y279491*
X291115Y280428*
X291569Y281053*
X292251Y281366*
X292479*
X293160Y281053*
X293615Y280428*
X293842Y279178*
Y277616*
X293615Y276053*
X293160Y275116*
X292479Y274803*
X292024*
X291342Y275116*
X291115Y275741*
X358921Y181772D02*
X358694Y182397D01*
X358239Y183022*
X357785Y183334*
X356875*
X356421Y183022*
X355966Y182397*
X355739Y181772*
X355512Y180834*
Y179272*
X355739Y178334*
X355966Y177709*
X356421Y177084*
X356875Y176772*
X357785*
X358239Y177084*
X358694Y177709*
X358921Y178334*
X363921Y183334D02*
X361648D01*
X361421Y180522*
X361648Y180834*
X362330Y181147*
X363012*
X363694Y180834*
X364148Y180209*
X364375Y179272*
X364148Y178647*
X363921Y177709*
X363466Y177084*
X362785Y176772*
X362103*
X361421Y177084*
X361194Y177397*
X360966Y178022*
X355906Y192783D02*
Y186220D01*
Y192783D02*
X357951D01*
X358633Y192470*
X358860Y192158*
X359087Y191533*
Y190908*
X358860Y190283*
X358633Y189970*
X357951Y189658*
X355906*
X357496D02*
X359087Y186220D01*
X361133Y192783D02*
Y186220D01*
Y192783D02*
X364087D01*
X361133Y189658D02*
X362951D01*
X361133Y186220D02*
X364087D01*
X369542Y191220D02*
X369315Y191845D01*
X368860Y192470*
X368406Y192783*
X367496*
X367042Y192470*
X366587Y191845*
X366360Y191220*
X366133Y190283*
Y188720*
X366360Y187783*
X366587Y187158*
X367042Y186533*
X367496Y186220*
X368406*
X368860Y186533*
X369315Y187158*
X369542Y187783*
Y188720*
X368406D02*
X369542D01*
X371587Y191533D02*
X372042Y191845D01*
X372724Y192783*
Y186220*
X261283Y242402D02*
X261056Y243027D01*
X260601Y243652*
X260147Y243964*
X259238*
X258783Y243652*
X258329Y243027*
X258101Y242402*
X257874Y241464*
Y239902*
X258101Y238964*
X258329Y238339*
X258783Y237714*
X259238Y237402*
X260147*
X260601Y237714*
X261056Y238339*
X261283Y238964*
X263783Y243964D02*
X266283D01*
X264919Y241464*
X265601*
X266056Y241152*
X266283Y240839*
X266510Y239902*
Y239277*
X266283Y238339*
X265829Y237714*
X265147Y237402*
X264465*
X263783Y237714*
X263556Y238027*
X263329Y238652*
X269919Y243964D02*
X269238Y243652D01*
X268783Y242714*
X268556Y241152*
Y240214*
X268783Y238652*
X269238Y237714*
X269919Y237402*
X270374*
X271056Y237714*
X271510Y238652*
X271738Y240214*
Y241152*
X271510Y242714*
X271056Y243652*
X270374Y243964*
X269919*
X285039Y233728D02*
Y229040D01*
X285267Y228103*
X285721Y227478*
X286403Y227165*
X286858*
X287539Y227478*
X287994Y228103*
X288221Y229040*
Y233728*
X290267Y232478D02*
X290721Y232790D01*
X291403Y233728*
Y227165*
X293448Y232478D02*
X293903Y232790D01*
X294585Y233728*
Y227165*
X286874Y257362D02*
X286646Y257987D01*
X286192Y258612*
X285737Y258925*
X284828*
X284374Y258612*
X283919Y257987*
X283692Y257362*
X283465Y256425*
Y254862*
X283692Y253925*
X283919Y253300*
X284374Y252675*
X284828Y252362*
X285737*
X286192Y252675*
X286646Y253300*
X286874Y253925*
X289374Y258925D02*
X291874D01*
X290510Y256425*
X291192*
X291646Y256112*
X291874Y255800*
X292101Y254862*
Y254237*
X291874Y253300*
X291419Y252675*
X290737Y252362*
X290055*
X289374Y252675*
X289146Y252987*
X288919Y253612*
X294146Y257675D02*
X294601Y257987D01*
X295283Y258925*
Y252362*
X370472Y231759D02*
Y227072D01*
X370700Y226134*
X371154Y225509*
X371836Y225197*
X372291*
X372972Y225509*
X373427Y226134*
X373654Y227072*
Y231759*
X378882D02*
X376609Y225197D01*
X375700Y231759D02*
X378882D01*
X354590Y202638D02*
X354363Y203263D01*
X353908Y203888*
X353454Y204200*
X352545*
X352090Y203888*
X351636Y203263*
X351408Y202638*
X351181Y201700*
Y200138*
X351408Y199200*
X351636Y198575*
X352090Y197950*
X352545Y197638*
X353454*
X353908Y197950*
X354363Y198575*
X354590Y199200*
X357772Y204200D02*
X357090Y203888D01*
X356863Y203263*
Y202638*
X357090Y202013*
X357545Y201700*
X358454Y201388*
X359136Y201075*
X359590Y200450*
X359817Y199825*
Y198888*
X359590Y198263*
X359363Y197950*
X358681Y197638*
X357772*
X357090Y197950*
X356863Y198263*
X356636Y198888*
Y199825*
X356863Y200450*
X357317Y201075*
X357999Y201388*
X358908Y201700*
X359363Y202013*
X359590Y202638*
Y203263*
X359363Y203888*
X358681Y204200*
X357772*
X237008Y277035D02*
Y270472D01*
Y277035D02*
X239053D01*
X239735Y276722*
X239962Y276410*
X240190Y275785*
Y275160*
X239962Y274535*
X239735Y274222*
X239053Y273910*
X237008*
X238599D02*
X240190Y270472D01*
X242690Y277035D02*
X245190D01*
X243826Y274535*
X244508*
X244962Y274222*
X245190Y273910*
X245417Y272972*
Y272347*
X245190Y271410*
X244735Y270785*
X244053Y270472*
X243372*
X242690Y270785*
X242462Y271097*
X242235Y271722*
X247917Y277035D02*
X250417D01*
X249053Y274535*
X249735*
X250190Y274222*
X250417Y273910*
X250644Y272972*
Y272347*
X250417Y271410*
X249962Y270785*
X249281Y270472*
X248599*
X247917Y270785*
X247690Y271097*
X247462Y271722*
X281756Y265630D02*
X281528Y266255D01*
X281074Y266880*
X280619Y267192*
X279710*
X279256Y266880*
X278801Y266255*
X278574Y265630*
X278346Y264692*
Y263130*
X278574Y262192*
X278801Y261567*
X279256Y260942*
X279710Y260630*
X280619*
X281074Y260942*
X281528Y261567*
X281756Y262192*
X283801Y265942D02*
X284256Y266255D01*
X284937Y267192*
Y260630*
X287210Y265630D02*
Y265942D01*
X287437Y266567*
X287665Y266880*
X288119Y267192*
X289028*
X289483Y266880*
X289710Y266567*
X289937Y265942*
Y265317*
X289710Y264692*
X289256Y263755*
X286983Y260630*
X290165*
X139370Y333334D02*
Y326772D01*
Y333334D02*
X141416D01*
X142097Y333022*
X142325Y332709*
X142552Y332084*
Y331147*
X142325Y330522*
X142097Y330209*
X141416Y329897*
X139370*
X147779Y332397D02*
X147325Y333022D01*
X146643Y333334*
X145734*
X145052Y333022*
X144597Y332397*
Y331772*
X144825Y331147*
X145052Y330834*
X145506Y330522*
X146870Y329897*
X147325Y329584*
X147552Y329272*
X147779Y328647*
Y327709*
X147325Y327084*
X146643Y326772*
X145734*
X145052Y327084*
X144597Y327709*
X149825Y333334D02*
Y328647D01*
X150052Y327709*
X150506Y327084*
X151188Y326772*
X151643*
X152325Y327084*
X152779Y327709*
X153006Y328647*
Y333334*
X155052Y332084D02*
X155506Y332397D01*
X156188Y333334*
Y326772*
X298685Y330591D02*
X298457Y331216D01*
X298003Y331841*
X297548Y332153*
X296639*
X296185Y331841*
X295730Y331216*
X295503Y330591*
X295276Y329653*
Y328091*
X295503Y327153*
X295730Y326528*
X296185Y325903*
X296639Y325591*
X297548*
X298003Y325903*
X298457Y326528*
X298685Y327153*
X303457Y331216D02*
X303230Y331841D01*
X302548Y332153*
X302094*
X301412Y331841*
X300957Y330903*
X300730Y329341*
Y327778*
X300957Y326528*
X301412Y325903*
X302094Y325591*
X302321*
X303003Y325903*
X303457Y326528*
X303685Y327466*
Y327778*
X303457Y328716*
X303003Y329341*
X302321Y329653*
X302094*
X301412Y329341*
X300957Y328716*
X300730Y327778*
X291732Y340814D02*
Y334252D01*
Y340814D02*
X293778D01*
X294460Y340502*
X294687Y340189*
X294914Y339564*
Y338939*
X294687Y338314*
X294460Y338002*
X293778Y337689*
X291732*
X293323D02*
X294914Y334252D01*
X297414Y340814D02*
X299914D01*
X298550Y338314*
X299232*
X299687Y338002*
X299914Y337689*
X300141Y336752*
Y336127*
X299914Y335189*
X299460Y334564*
X298778Y334252*
X298096*
X297414Y334564*
X297187Y334877*
X296960Y335502*
X303550Y340814D02*
X302869Y340502D01*
X302414Y339564*
X302187Y338002*
Y337064*
X302414Y335502*
X302869Y334564*
X303550Y334252*
X304005*
X304687Y334564*
X305141Y335502*
X305369Y337064*
Y338002*
X305141Y339564*
X304687Y340502*
X304005Y340814*
X303550*
X248031Y337665D02*
Y331102D01*
Y337665D02*
X250077D01*
X250759Y337352*
X250986Y337040*
X251213Y336415*
Y335790*
X250986Y335165*
X250759Y334852*
X250077Y334540*
X248031*
X249622D02*
X251213Y331102D01*
X255986Y336727D02*
X255759Y337352D01*
X255077Y337665*
X254622*
X253941Y337352*
X253486Y336415*
X253259Y334852*
Y333290*
X253486Y332040*
X253941Y331415*
X254622Y331102*
X254850*
X255531Y331415*
X255986Y332040*
X256213Y332977*
Y333290*
X255986Y334227*
X255531Y334852*
X254850Y335165*
X254622*
X253941Y334852*
X253486Y334227*
X253259Y333290*
X230315Y324673D02*
Y318110D01*
Y324673D02*
X232360D01*
X233042Y324360*
X233270Y324048*
X233497Y323423*
Y322798*
X233270Y322173*
X233042Y321860*
X232360Y321548*
X230315*
X231906D02*
X233497Y318110D01*
X235770Y323110D02*
Y323423D01*
X235997Y324048*
X236224Y324360*
X236679Y324673*
X237588*
X238042Y324360*
X238270Y324048*
X238497Y323423*
Y322798*
X238270Y322173*
X237815Y321235*
X235542Y318110*
X238724*
X246850Y302232D02*
Y295669D01*
Y302232D02*
X248896D01*
X249578Y301919*
X249805Y301607*
X250032Y300982*
Y300044*
X249805Y299419*
X249578Y299107*
X248896Y298794*
X246850*
X255259Y301294D02*
X254805Y301919D01*
X254123Y302232*
X253214*
X252532Y301919*
X252078Y301294*
Y300669*
X252305Y300044*
X252532Y299732*
X252987Y299419*
X254350Y298794*
X254805Y298482*
X255032Y298169*
X255259Y297544*
Y296607*
X254805Y295982*
X254123Y295669*
X253214*
X252532Y295982*
X252078Y296607*
X257305Y302232D02*
Y297544D01*
X257532Y296607*
X257987Y295982*
X258669Y295669*
X259123*
X259805Y295982*
X260259Y296607*
X260487Y297544*
Y302232*
X262759Y300669D02*
Y300982D01*
X262987Y301607*
X263214Y301919*
X263669Y302232*
X264578*
X265032Y301919*
X265259Y301607*
X265487Y300982*
Y300357*
X265259Y299732*
X264805Y298794*
X262532Y295669*
X265714*
X340023Y327441D02*
X339796Y328066D01*
X339341Y328691*
X338887Y329003*
X337978*
X337523Y328691*
X337069Y328066*
X336841Y327441*
X336614Y326503*
Y324941*
X336841Y324003*
X337069Y323378*
X337523Y322753*
X337978Y322441*
X338887*
X339341Y322753*
X339796Y323378*
X340023Y324003*
X345251Y329003D02*
X342978Y322441D01*
X342069Y329003D02*
X345251D01*
X323622Y341208D02*
Y334646D01*
Y341208D02*
X325668D01*
X325668D02*
X326349Y340896D01*
X326577Y340583*
X326804Y339958*
Y339333*
X326577Y338708*
X326349Y338396*
X325668Y338083*
X325668D02*
X323622D01*
X325213D02*
X326804Y334646D01*
X329304Y341208D02*
X331804D01*
X330440Y338708*
X331122*
X331577Y338396*
X331804Y338083*
X332031Y337146*
Y336521*
X331804Y335583*
X331349Y334958*
X330668Y334646*
X330668D02*
X329986D01*
X329304Y334958*
X329077Y335271*
X328849Y335896*
X311024Y302625D02*
Y297938D01*
X311251Y297000*
X311705Y296375*
X312387Y296063*
X312842*
X313524Y296375*
X313978Y297000*
X314205Y297938*
Y302625*
X316251Y301375D02*
X316705Y301688D01*
X317387Y302625*
Y296063*
X340433Y156040D02*
X341058Y156267D01*
X341683Y156722*
X341996Y157176*
Y158085*
X341683Y158540*
X341058Y158994*
X340433Y159222*
X339496Y159449*
X337933*
X336996Y159222*
X336371Y158994*
X335746Y158540*
X335433Y158085*
Y157176*
X335746Y156722*
X336371Y156267*
X336996Y156040*
X340433Y153767D02*
X340746D01*
X341371Y153540*
X341683Y153312*
X341996Y152858*
Y151949*
X341683Y151494*
X341371Y151267*
X340746Y151040*
X340121*
X339496Y151267*
X338558Y151722*
X335433Y153994*
Y150812*
X341996Y147403D02*
X341683Y148085D01*
X340746Y148540*
X339183Y148767*
X338246*
X336683Y148540*
X335746Y148085*
X335433Y147403*
Y146949*
X335746Y146267*
X336683Y145812*
X338246Y145585*
X339183*
X340746Y145812*
X341683Y146267*
X341996Y146949*
Y147403*
X266795Y159331D02*
X266568Y159956D01*
X266113Y160581*
X265659Y160893*
X264749*
X264295Y160581*
X263840Y159956*
X263613Y159331*
X263386Y158393*
Y156831*
X263613Y155893*
X263840Y155268*
X264295Y154643*
X264749Y154331*
X265659*
X266113Y154643*
X266568Y155268*
X266795Y155893*
X268840Y159643D02*
X269295Y159956D01*
X269977Y160893*
Y154331*
X306299Y118767D02*
Y112205D01*
X309026*
X311072Y117517D02*
X311526Y117830D01*
X312208Y118767*
Y112205*
X241732Y141996D02*
Y135433D01*
Y141996D02*
X243778D01*
X244460Y141683*
X244687Y141371*
X244914Y140746*
Y140121*
X244687Y139496*
X244460Y139183*
X243778Y138871*
X241732*
X243323D02*
X244914Y135433D01*
X246960Y140746D02*
X247414Y141058D01*
X248096Y141996*
Y135433*
X251278Y141996D02*
X250596Y141683D01*
X250369Y141058*
Y140433*
X250596Y139808*
X251050Y139496*
X251960Y139183*
X252641Y138871*
X253096Y138246*
X253323Y137621*
Y136683*
X253096Y136058*
X252869Y135746*
X252187Y135433*
X251278*
X250596Y135746*
X250369Y136058*
X250141Y136683*
Y137621*
X250369Y138246*
X250823Y138871*
X251505Y139183*
X252414Y139496*
X252869Y139808*
X253096Y140433*
Y141058*
X252869Y141683*
X252187Y141996*
X251278*
X250787Y112468D02*
Y105906D01*
Y112468D02*
X252833D01*
X253515Y112156*
X253742Y111843*
X253969Y111218*
Y110593*
X253742Y109968*
X253515Y109656*
X252833Y109343*
X250787*
X252378D02*
X253969Y105906D01*
X256015Y111218D02*
X256469Y111531D01*
X257151Y112468*
Y105906*
X262151Y110281D02*
X261924Y109343D01*
X261469Y108718*
X260787Y108406*
X260560*
X259878Y108718*
X259424Y109343*
X259196Y110281*
Y110593*
X259424Y111531*
X259878Y112156*
X260560Y112468*
X260787*
X261469Y112156*
X261924Y111531*
X262151Y110281*
Y108718*
X261924Y107156*
X261469Y106218*
X260787Y105906*
X260333*
X259651Y106218*
X259424Y106843*
X267717Y126248D02*
Y121560D01*
X267944Y120623*
X268398Y119998*
X269080Y119685*
X269535*
X270217Y119998*
X270671Y120623*
X270898Y121560*
Y126248*
X275898D02*
X273626D01*
X273398Y123435*
X273626Y123748*
X274307Y124060*
X274989*
X275671Y123748*
X276126Y123123*
X276353Y122185*
X276126Y121560*
X275898Y120623*
X275444Y119998*
X274762Y119685*
X274080*
X273398Y119998*
X273171Y120310*
X272944Y120935*
X170079Y171917D02*
Y165354D01*
X172806*
X175079Y170354D02*
Y170667D01*
X175306Y171292*
X175533Y171604*
X175988Y171917*
X176897*
X177351Y171604*
X177579Y171292*
X177806Y170667*
Y170042*
X177579Y169417*
X177124Y168479*
X174851Y165354*
X178033*
X200787Y147507D02*
Y140945D01*
Y147507D02*
X202833D01*
X203515Y147195*
X203742Y146882*
X203969Y146257*
Y145632*
X203742Y145007*
X203515Y144695*
X202833Y144382*
X200787*
X202378D02*
X203969Y140945D01*
X206469Y147507D02*
X208969D01*
X207606Y145007*
X208287*
X208742Y144695*
X208969Y144382*
X209196Y143445*
Y142820*
X208969Y141882*
X208515Y141257*
X207833Y140945*
X207151*
X206469Y141257*
X206242Y141570*
X206015Y142195*
X211242Y146257D02*
X211696Y146570D01*
X212378Y147507*
Y140945*
X227348Y123885D02*
X226893Y123573D01*
X226439Y122948*
X226212Y122323*
X225984Y121385*
Y119823*
X226212Y118885*
X226439Y118260*
X226893Y117635*
X227348Y117323*
X228257*
X228712Y117635*
X229166Y118260*
X229393Y118885*
X229621Y119823*
Y121385*
X229393Y122323*
X229166Y122948*
X228712Y123573*
X228257Y123885*
X227348*
X228030Y118573D02*
X229393Y116698D01*
X231666Y122635D02*
X232121Y122948D01*
X232802Y123885*
Y117323*
X225591Y157744D02*
Y151181D01*
Y157744D02*
X227181D01*
X227863Y157431*
X228318Y156806*
X228545Y156181*
X228772Y155244*
Y153681*
X228545Y152744*
X228318Y152119*
X227863Y151494*
X227181Y151181*
X225591*
X230818Y156494D02*
X231272Y156806D01*
X231954Y157744*
Y151181*
X182677Y120997D02*
Y125684D01*
X182450Y126622*
X181995Y127247*
X181314Y127559*
X180859*
X180177Y127247*
X179723Y126622*
X179495Y125684*
Y120997*
X174723Y121934D02*
X174950Y121309D01*
X175632Y120997*
X176086*
X176768Y121309*
X177223Y122247*
X177450Y123809*
Y125372*
X177223Y126622*
X176768Y127247*
X176086Y127559*
X175859*
X175177Y127247*
X174723Y126622*
X174495Y125684*
Y125372*
X174723Y124434*
X175177Y123809*
X175859Y123497*
X176086*
X176768Y123809*
X177223Y124434*
X177450Y125372*
X149737Y122047D02*
X156299D01*
X149737D02*
Y124093D01*
X150049Y124775*
X150362Y125002*
X150987Y125229*
X151612*
X152237Y125002*
X152549Y124775*
X152862Y124093*
Y122047*
Y123638D02*
X156299Y125229D01*
X151299Y127502D02*
X150987D01*
X150362Y127729*
X150049Y127956*
X149737Y128411*
Y129320*
X150049Y129775*
X150362Y130002*
X150987Y130229*
X151612*
X152237Y130002*
X153174Y129547*
X156299Y127275*
Y130456*
X150987Y132502D02*
X150674Y132956D01*
X149737Y133638*
X156299*
X169291Y111681D02*
Y105118D01*
Y111681D02*
X171337D01*
X172019Y111368*
X172246Y111056*
X172473Y110431*
Y109806*
X172246Y109181*
X172019Y108868*
X171337Y108556*
X169291*
X170882D02*
X172473Y105118D01*
X174746Y110118D02*
Y110431D01*
X174973Y111056*
X175200Y111368*
X175655Y111681*
X176564*
X177019Y111368*
X177246Y111056*
X177473Y110431*
Y109806*
X177246Y109181*
X176791Y108243*
X174519Y105118*
X177700*
X182928Y111681D02*
X180655Y105118D01*
X179746Y111681D02*
X182928D01*
X189630Y169173D02*
X189402Y169798D01*
X188948Y170423*
X188493Y170736*
X187584*
X187130Y170423*
X186675Y169798*
X186448Y169173*
X186220Y168236*
Y166673*
X186448Y165736*
X186675Y165111*
X187130Y164486*
X187584Y164173*
X188493*
X188948Y164486*
X189402Y165111*
X189630Y165736*
X192130Y170736D02*
X194630D01*
X193266Y168236*
X193948*
X194402Y167923*
X194630Y167611*
X194857Y166673*
Y166048*
X194630Y165111*
X194175Y164486*
X193493Y164173*
X192811*
X192130Y164486*
X191902Y164798*
X191675Y165423*
X149472Y150276D02*
X149245Y150901D01*
X148790Y151526*
X148336Y151838*
X147427*
X146972Y151526*
X146518Y150901*
X146290Y150276*
X146063Y149338*
Y147776*
X146290Y146838*
X146518Y146213*
X146972Y145588*
X147427Y145276*
X148336*
X148790Y145588*
X149245Y146213*
X149472Y146838*
X151745Y150276D02*
Y150588D01*
X151972Y151213*
X152199Y151526*
X152654Y151838*
X153563*
X154018Y151526*
X154245Y151213*
X154472Y150588*
Y149963*
X154245Y149338*
X153790Y148401*
X151518Y145276*
X154699*
X196927Y118617D02*
Y112992D01*
X194882Y115805D02*
X198973D01*
X219363Y215404D02*
Y210236D01*
X218110Y215404D02*
X220616D01*
X222226D02*
Y210236D01*
Y215404D02*
X223658Y210236D01*
X225089Y215404D02*
X223658Y210236D01*
X225089Y215404D02*
Y210236D01*
X229205Y214665D02*
X228848Y215157D01*
X228311Y215404*
X227595*
X227058Y215157*
X226700Y214665*
Y214173*
X226879Y213681*
X227058Y213435*
X227416Y213189*
X228490Y212697*
X228848Y212451*
X229026Y212205*
X229205Y211713*
Y210974*
X228848Y210482*
X228311Y210236*
X227595*
X227058Y210482*
X226700Y210974*
X234574Y215404D02*
X234753Y215157D01*
X234932Y215404*
X234753Y215650*
X234574Y215404*
X234753Y213681D02*
Y209498D01*
X234574Y208760*
X234216Y208514*
X233858*
X236543Y215404D02*
Y210236D01*
Y215404D02*
X238153D01*
X238690Y215157*
X238869Y214911*
X239048Y214419*
Y213927*
X238869Y213435*
X238690Y213189*
X238153Y212943*
X236543*
X237795D02*
X239048Y210236D01*
X243164Y214665D02*
X242806Y215157D01*
X242269Y215404*
X241553*
X241016Y215157*
X240659Y214665*
Y214173*
X240838Y213681*
X241016Y213435*
X241374Y213189*
X242448Y212697*
X242806Y212451*
X242985Y212205*
X243164Y211713*
Y210974*
X242806Y210482*
X242269Y210236*
X241553*
X241016Y210482*
X240659Y210974*
X246027Y215404D02*
Y210236D01*
X244775Y215404D02*
X247280D01*
X236543Y225984D02*
X236364Y226476D01*
X236006Y226969*
X235648Y227215*
X234932*
X234574Y226969*
X234216Y226476*
X234037Y225984*
X233858Y225246*
Y224016*
X234037Y223278*
X234216Y222785*
X234574Y222293*
X234932Y222047*
X235648*
X236006Y222293*
X236364Y222785*
X236543Y223278*
Y224016*
X235648D02*
X236543D01*
X238153Y227215D02*
Y222047D01*
Y227215D02*
X240659Y222047D01*
Y227215D02*
Y222047D01*
X242269Y227215D02*
Y222047D01*
Y227215D02*
X243522D01*
X244059Y226969*
X244417Y226476*
X244596Y225984*
X244775Y225246*
Y224016*
X244596Y223278*
X244417Y222785*
X244059Y222293*
X243522Y222047*
X242269*
X235111Y203593D02*
Y198425D01*
X233858Y203593D02*
X236364D01*
X237974D02*
Y198425D01*
Y203593D02*
X239227D01*
X239764Y203346*
X240122Y202854*
X240301Y202362*
X240480Y201624*
Y200394*
X240301Y199656*
X240122Y199163*
X239764Y198671*
X239227Y198425*
X237974*
X242090Y203593D02*
Y198425D01*
X235111Y191781D02*
Y186614D01*
X233858Y191781D02*
X236364D01*
X237974D02*
Y186614D01*
Y191781D02*
X239227D01*
X239764Y191535*
X240122Y191043*
X240301Y190551*
X240480Y189813*
Y188583*
X240301Y187844*
X240122Y187352*
X239764Y186860*
X239227Y186614*
X237974*
X243164Y191781D02*
X242806Y191535D01*
X242448Y191043*
X242269Y190551*
X242090Y189813*
Y188583*
X242269Y187844*
X242448Y187352*
X242806Y186860*
X243164Y186614*
X243880*
X244238Y186860*
X244596Y187352*
X244775Y187844*
X244953Y188583*
Y189813*
X244775Y190551*
X244596Y191043*
X244238Y191535*
X243880Y191781*
X243164*
X219363Y203593D02*
Y198425D01*
X218110Y203593D02*
X220616D01*
X224911Y202362D02*
X224732Y202854D01*
X224374Y203346*
X224016Y203593*
X223300*
X222942Y203346*
X222584Y202854*
X222405Y202362*
X222226Y201624*
Y200394*
X222405Y199656*
X222584Y199163*
X222942Y198671*
X223300Y198425*
X224016*
X224374Y198671*
X224732Y199163*
X224911Y199656*
X226521Y203593D02*
Y198425D01*
X229026Y203593D02*
X226521Y200148D01*
X227416Y201378D02*
X229026Y198425D01*
X218110Y191781D02*
Y186614D01*
Y191781D02*
X219721D01*
X220258Y191535*
X220437Y191289*
X220616Y190797*
Y190305*
X220437Y189813*
X220258Y189567*
X219721Y189321*
X218110*
X219363D02*
X220616Y186614D01*
X224732Y191043D02*
X224374Y191535D01*
X223837Y191781*
X223121*
X222584Y191535*
X222226Y191043*
Y190551*
X222405Y190059*
X222584Y189813*
X222942Y189567*
X224016Y189075*
X224374Y188829*
X224553Y188583*
X224732Y188091*
Y187352*
X224374Y186860*
X223837Y186614*
X223121*
X222584Y186860*
X222226Y187352*
X227595Y191781D02*
Y186614D01*
X226342Y191781D02*
X228848D01*
X296850Y472539D02*
Y462205D01*
Y472539D02*
X299356D01*
X300429Y472047*
X301145Y471063*
X301503Y470079*
X301861Y468602*
Y466142*
X301503Y464665*
X301145Y463681*
X300429Y462697*
X299356Y462205*
X296850*
X307946Y472539D02*
X305082Y462205D01*
X307946Y472539D02*
X310809Y462205D01*
X306156Y465650D02*
X309735D01*
X314030Y472539D02*
Y462205D01*
Y472539D02*
X319041Y462205D01*
Y472539D02*
Y462205D01*
X327631Y470079D02*
X327273Y471063D01*
X326557Y472047*
X325841Y472539*
X324409*
X323694Y472047*
X322978Y471063*
X322620Y470079*
X322262Y468602*
Y466142*
X322620Y464665*
X322978Y463681*
X323694Y462697*
X324409Y462205*
X325841*
X326557Y462697*
X327273Y463681*
X327631Y464665*
Y466142*
X325841D02*
X327631D01*
X330852Y472539D02*
Y462205D01*
Y472539D02*
X335505D01*
X330852Y467618D02*
X333715D01*
X330852Y462205D02*
X335505D01*
X338726Y472539D02*
Y462205D01*
Y472539D02*
X341947D01*
X343021Y472047*
X343379Y471555*
X343737Y470571*
Y469587*
X343379Y468602*
X343021Y468110*
X341947Y467618*
X338726*
X341231D02*
X343737Y462205D01*
X355190Y472539D02*
Y462205D01*
X360200Y472539D02*
Y462205D01*
X355190Y467618D02*
X360200D01*
X363422Y472539D02*
X366285Y462205D01*
X369148Y472539D02*
X366285Y462205D01*
X462205Y194734D02*
X462563Y194980D01*
X463099Y195719*
X463099D02*
Y190551D01*
X430888Y194488D02*
Y194734D01*
X431067Y195226*
X431246Y195472*
X431603Y195719*
X432319*
X432677Y195472*
X432856Y195226*
X433035Y194734*
Y194242*
X432856Y193750*
X432498Y193012*
X430709Y190551*
X433214*
X425541Y109843D02*
X430709D01*
X425541D02*
Y111453D01*
X425787Y111990*
X426033Y112169*
X426526Y112348*
X427264*
X427756Y112169*
X428002Y111990*
X428248Y111453*
Y109843*
X427264Y114853D02*
X427510Y114495D01*
X428002Y114137*
X428740Y113958*
X429232*
X429970Y114137*
X430463Y114495*
X430709Y114853*
Y115390*
X430463Y115748*
X429970Y116106*
X429232Y116285*
X428740*
X428002Y116106*
X427510Y115748*
X427264Y115390*
Y114853*
Y117895D02*
X430709Y118611D01*
X427264Y119327D02*
X430709Y118611D01*
X427264Y119327D02*
X430709Y120043D01*
X427264Y120759D02*
X430709Y120043D01*
X428740Y122369D02*
Y124517D01*
X428248*
X427756Y124338*
X427510Y124159*
X427264Y123801*
Y123264*
X427510Y122906*
X428002Y122548*
X428740Y122369*
X429232*
X429970Y122548*
X430463Y122906*
X430709Y123264*
Y123801*
X430463Y124159*
X429970Y124517*
X427264Y126127D02*
X430709D01*
X428740D02*
X428002Y126306D01*
X427510Y126664*
X427264Y127022*
Y127559*
X417667Y109843D02*
X422835D01*
Y111990*
X417667Y113601D02*
X422835D01*
X417667D02*
Y115927D01*
X420128Y113601D02*
Y115032D01*
X422835Y113601D02*
Y115927D01*
X417667Y117538D02*
X422835D01*
X417667D02*
Y118790D01*
X417913Y119327*
X418406Y119685*
X418898Y119864*
X419636Y120043*
X420866*
X421604Y119864*
X422096Y119685*
X422589Y119327*
X422835Y118790*
Y117538*
X418652Y121654D02*
X418406Y122011D01*
X417667Y122548*
X422835*
X409793Y109843D02*
X414961D01*
Y111990*
X409793Y113601D02*
X414961D01*
X409793D02*
Y115927D01*
X412254Y113601D02*
Y115032D01*
X414961Y113601D02*
Y115927D01*
X409793Y117538D02*
X414961D01*
X409793D02*
Y118790D01*
X410039Y119327*
X410531Y119685*
X411024Y119864*
X411762Y120043*
X412992*
X413730Y119864*
X414222Y119685*
X414715Y119327*
X414961Y118790*
Y117538*
X411024Y121832D02*
X410778D01*
X410778D02*
X410285Y122011D01*
X410039Y122190*
X409793Y122548*
Y123264*
X410039Y123622*
X410285Y123801*
X410778Y123980*
X411270*
X411762Y123801*
X412500Y123443*
X414961Y121654*
Y124159*
X363422Y391216D02*
X362885Y390846D01*
X362348Y390108*
X362079Y389370*
X361811Y388263*
Y386417*
X362079Y385310*
X362348Y384572*
X362885Y383834*
X363422Y383465*
X364495*
X365032Y383834*
X365569Y384572*
X365838Y385310*
X366106Y386417*
Y388263*
X365838Y389370*
X365569Y390108*
X365032Y390846*
X364495Y391216*
X363422*
X368522D02*
Y383465D01*
Y391216D02*
X370938D01*
X371743Y390846*
X372011Y390477*
X372280Y389739*
Y388632*
X372011Y387894*
X371743Y387525*
X370938Y387156*
X368522*
X376306Y391216D02*
X375770Y390846D01*
X375233Y390108*
X374964Y389370*
X374696Y388263*
Y386417*
X374964Y385310*
X375233Y384572*
X375770Y383834*
X376306Y383465*
X377380*
X377917Y383834*
X378454Y384572*
X378722Y385310*
X378991Y386417*
Y388263*
X378722Y389370*
X378454Y390108*
X377917Y390846*
X377380Y391216*
X376306*
X377112Y384941D02*
X378722Y382726D01*
X381407Y391216D02*
Y383465D01*
Y391216D02*
X383822D01*
X384628Y390846*
X384896Y390477*
X385165Y389739*
Y389001*
X384896Y388263*
X384628Y387894*
X383822Y387525*
X381407D02*
X383822D01*
X384628Y387156*
X384896Y386786*
X385165Y386048*
Y384941*
X384896Y384203*
X384628Y383834*
X383822Y383465*
X381407*
X389191Y391216D02*
X388654Y390846D01*
X388117Y390108*
X387849Y389370*
X387581Y388263*
Y386417*
X387849Y385310*
X388117Y384572*
X388654Y383834*
X389191Y383465*
X390265*
X390802Y383834*
X391339Y384572*
X391607Y385310*
X391875Y386417*
Y388263*
X391607Y389370*
X391339Y390108*
X390802Y390846*
X390265Y391216*
X389191*
X394291D02*
X398049Y383465D01*
Y391216D02*
X394291Y383465D01*
X400734Y389370D02*
Y389739D01*
X401002Y390477*
X401271Y390846*
X401807Y391216*
X402881*
X403418Y390846*
X403686Y390477*
X403955Y389739*
Y389001*
X403686Y388263*
X403150Y387156*
X400465Y383465*
X404223*
X406908Y384203D02*
X406639Y383834D01*
X406908Y383465*
X407176Y383834*
X406908Y384203*
X412813Y390108D02*
X412545Y390846D01*
X411739Y391216*
X411203*
X410397Y390846*
X409860Y389739*
X409592Y387894*
Y386048*
X409860Y384572*
X410397Y383834*
X411203Y383465*
X411471*
X412276Y383834*
X412813Y384572*
X413082Y385679*
Y386048*
X412813Y387156*
X412276Y387894*
X411471Y388263*
X411203*
X410397Y387894*
X409860Y387156*
X409592Y386048*
X380512Y375714D02*
X380243Y376452D01*
X379438Y376821*
X378633*
X377827Y376452*
X377559Y375714*
X377827Y374975*
X378364Y374606*
X379707Y374237*
X380243Y373868*
X380512Y373130*
Y372761*
X380243Y372023*
X379438Y371654*
X378633*
X377827Y372023*
X377559Y372761*
X382928Y379405D02*
X383196Y379035D01*
X383465Y379405*
X383196Y379774*
X382928Y379405*
X383196Y376821D02*
Y371654D01*
X385880Y376821D02*
Y371654D01*
Y375344D02*
X386686Y376452D01*
X387223Y376821*
X388028*
X388565Y376452*
X388833Y375344*
Y371654*
X392591Y379405D02*
X391786Y379035D01*
X391518Y378297*
Y377559*
X391786Y376821*
X392323Y376452*
X393397Y376083*
X394202Y375714*
X394739Y374975*
X395007Y374237*
Y373130*
X394739Y372392*
X394470Y372023*
X393665Y371654*
X392591*
X391786Y372023*
X391518Y372392*
X391249Y373130*
Y374237*
X391518Y374975*
X392054Y375714*
X392860Y376083*
X393933Y376452*
X394470Y376821*
X394739Y377559*
Y378297*
X394470Y379035*
X393665Y379405*
X392591*
X377827Y365748D02*
Y366117D01*
X378096Y366855*
X378364Y367224*
X378901Y367594*
X379975*
X380512Y367224*
X380780Y366855*
X381049Y366117*
Y365379*
X380780Y364641*
X380243Y363533*
X377559Y359843*
X381317*
X385344Y367594D02*
X384538Y367224D01*
X384001Y366117*
X383733Y364272*
Y363164*
X384001Y361319*
X384538Y360212*
X385344Y359843*
X385880*
X386686Y360212*
X387223Y361319*
X387491Y363164*
Y364272*
X387223Y366117*
X386686Y367224*
X385880Y367594*
X385344*
X389907Y366117D02*
X390444Y366486D01*
X391249Y367594*
Y359843*
X396886Y366486D02*
X396618Y367224D01*
X395812Y367594*
X395276*
X394470Y367224*
X393933Y366117*
X393665Y364272*
Y362426*
X393933Y360950*
X394470Y360212*
X395276Y359843*
X395544*
X396349Y360212*
X396886Y360950*
X397155Y362057*
Y362426*
X396886Y363533*
X396349Y364272*
X395544Y364641*
X395276*
X394470Y364272*
X393933Y363533*
X393665Y362426*
X360558Y131496D02*
X360379Y131988D01*
X360021Y132480*
X359664Y132726*
X358948*
X358590Y132480*
X358232Y131988*
X358053Y131496*
X357874Y130758*
Y129528*
X358053Y128789*
X358232Y128297*
X358590Y127805*
X358948Y127559*
X359664*
X360021Y127805*
X360379Y128297*
X360558Y128789*
Y129528*
X359664D02*
X360558D01*
X362169Y132726D02*
Y127559D01*
Y132726D02*
X363780D01*
X364316Y132480*
X364495Y132234*
X364674Y131742*
Y131004*
X364495Y130512*
X364316Y130266*
X363780Y130020*
X362169*
X368790Y131988D02*
X368432Y132480D01*
X367895Y132726*
X367180*
X366643Y132480*
X366285Y131988*
Y131496*
X366464Y131004*
X366643Y130758*
X367001Y130512*
X368074Y130020*
X368432Y129774*
X368611Y129528*
X368790Y129035*
Y128297*
X368432Y127805*
X367895Y127559*
X367180*
X366643Y127805*
X366285Y128297*
X100000Y100000D02*
Y493701D01*
X493701*
Y100000*
X100000*
X139370Y129528D02*
G75*
G03X139370I-9842J0D01*
G01X474016D02*
G03X474016I-9843J0D01*
G01Y464173D02*
G03X474016I-9843J0D01*
G01X139370D02*
G03X139370I-9842J0D01*
G01X387400Y405118D02*
G03X383011I-2194J4771D01*
G01X383132Y404809D02*
G03X383010Y405118I-223J91D01*
G01X383132Y404809D02*
X379983Y397098D01*
X379669Y396967D02*
G03X379983Y397098I92J222D01*
G01X379669Y396967D02*
X377959Y397675D01*
G03X377732Y397652I-92J-221*
G01X373971Y395108*
X373667Y395137D02*
G03X373971Y395108I170J169D01*
G01X373667Y395137D02*
X370453Y398350D01*
X370424Y398655D02*
G03X370453Y398350I199J-135D01*
G01X370424Y398655D02*
X372969Y402416D01*
G03X372992Y402642I-199J134*
G01X371445Y406377*
G03X371269Y406521I-222J-92*
G01X366810Y407381*
X366615Y407617D02*
G03X366810Y407381I240J-0D01*
G01X366615Y407617D02*
Y412161D01*
X366810Y412397D02*
G03X366615Y412161I46J-236D01*
G01X366810Y412397D02*
X371269Y413257D01*
G03X371445Y413401I-46J236*
G01X372992Y417136*
G03X372969Y417362I-222J92*
G01X370424Y421123*
X370453Y421428D02*
G03X370424Y421123I170J-170D01*
G01X370453Y421428D02*
X373667Y424641D01*
X373971Y424670D02*
G03X373667Y424641I-134J-198D01*
G01X373971Y424670D02*
X377732Y422126D01*
G03X377959Y422103I135J198*
G01X381694Y423650*
G03X381837Y423826I-92J221*
G01X382698Y428285*
X382933Y428479D02*
G03X382698Y428285I0J-240D01*
G01X382933Y428479D02*
X387478D01*
X387714Y428285D02*
G03X387478Y428479I-236J-46D01*
G01X387714Y428285D02*
X388574Y423826D01*
G03X388718Y423650I236J45*
G01X392453Y422103*
G03X392679Y422126I91J221*
G01X396440Y424670*
X396744Y424641D02*
G03X396440Y424670I-169J-169D01*
G01X396744Y424641D02*
X399958Y421428D01*
X399987Y421123D02*
G03X399958Y421428I-199J135D01*
G01X399987Y421123D02*
X397442Y417362D01*
G03X397419Y417136I199J-134*
G01X398966Y413401*
G03X399143Y413257I222J92*
G01X403602Y412397*
X403796Y412161D02*
G03X403602Y412397I-240J-0D01*
G01X403796Y412161D02*
Y407617D01*
X403602Y407381D02*
G03X403796Y407617I-46J236D01*
G01X403602Y407381D02*
X399143Y406521D01*
G03X398966Y406377I45J-236*
G01X397419Y402642*
G03X397442Y402416I222J-92*
G01X399987Y398655*
X399958Y398350D02*
G03X399987Y398655I-170J170D01*
G01X399958Y398350D02*
X396744Y395137D01*
X396440Y395108D02*
G03X396744Y395137I135J198D01*
G01X396440Y395108D02*
X392679Y397652D01*
G03X392453Y397675I-135J-198*
G01X390742Y396967*
X390428Y397098D02*
G03X390742Y396967I223J91D01*
G01X390428Y397098D02*
X387280Y404809D01*
X387402Y405118D02*
G03X387280Y404809I100J-218D01*
G54D193*
G01X357370Y230890D02*
Y231593D01*
X357336Y231733*
X357268Y231827*
X357166Y231874*
X357097*
X356995Y231827*
X356927Y231733*
X356893Y231593*
Y230890*
X356109D02*
X356450Y231874D01*
X356586Y230890D02*
X356109D01*
G74*
X0Y0D02*
M02*
