*
*
G04 PADS VX.1.1 Build Number: 678707 generated Gerber (RS-274-X) file*
G04 PC Version=2.1*
*
%IN "opqbox2.pcb"*%
*
%MOIN*%
*
%FSLAX35Y35*%
*
*
*
*
G04 PC Standard Apertures*
*
*
G04 Thermal Relief Aperture macro.*
%AMTER*
1,1,$1,0,0*
1,0,$1-$2,0,0*
21,0,$3,$4,0,0,45*
21,0,$3,$4,0,0,135*
%
*
*
G04 Annular Aperture macro.*
%AMANN*
1,1,$1,0,0*
1,0,$2,0,0*
%
*
*
G04 Odd Aperture macro.*
%AMODD*
1,1,$1,0,0*
1,0,$1-0.005,0,0*
%
*
*
G04 PC Custom Aperture Macros*
*
*
*
*
*
*
G04 PC Aperture Table*
*
%ADD010C,0.001*%
%ADD013C,0.01*%
%ADD028C,0.06*%
%ADD033C,0.03937*%
%ADD050C,0.04331*%
%ADD073R,0.038X0.03*%
%ADD080R,0.06X0.05*%
%ADD081R,0.036X0.036*%
%ADD082R,0.036X0.05*%
%ADD085C,0.01181*%
%ADD086R,0.06X0.1*%
%ADD087R,0.025X0.02*%
%ADD093R,0.02X0.025*%
%ADD105C,0.07874*%
%ADD124C,0.0315*%
%ADD135R,0.03X0.038*%
%ADD137R,0.063X0.0275*%
%ADD138O,0.03937X0.00984*%
%ADD139R,0.03937X0.00984*%
%ADD140R,0.00984X0.03937*%
%ADD141R,0.05X0.036*%
%ADD144R,0.1X0.06*%
%ADD145R,0.13386X0.05512*%
%ADD148R,0.05512X0.13386*%
%ADD149C,0.01969*%
%ADD150C,0.05906*%
%ADD151C,0.03543*%
%ADD174C,0.00984*%
%ADD184R,0.06299X0.05118*%
%ADD185R,0.01772X0.06299*%
%ADD186R,0.02362X0.07087*%
%ADD187R,0.01181X0.07677*%
%ADD188R,0.06X0.08*%
%ADD189R,0.02362X0.05709*%
%ADD190R,0.03346X0.00984*%
%ADD191R,0.06102X0.09252*%
%ADD192R,0.05X0.06*%
*
*
*
*
G04 PC Circuitry*
G04 Layer Name opqbox2.pcb - circuitry*
%LPD*%
*
*
G04 PC Custom Flashes*
G04 Layer Name opqbox2.pcb - flashes*
%LPD*%
*
*
G04 PC Circuitry*
G04 Layer Name opqbox2.pcb - circuitry*
%LPD*%
*
G54D10*
G54D13*
G01X100000Y100000D02*
Y493701D01*
X493701*
Y100000*
X100000*
X139370Y129528D02*
G75*
G03X139370I-9842J0D01*
G01X474016D02*
G03X474016I-9843J0D01*
G01Y464173D02*
G03X474016I-9843J0D01*
G01X139370D02*
G03X139370I-9842J0D01*
G54D28*
G01X283268Y386811D03*
X343268D03*
X343110Y415748D03*
X283110D03*
X251575Y223425D03*
X261575D03*
X251575Y213425D03*
X261575D03*
X251575Y203425D03*
X261575D03*
X251575Y193425D03*
X261575D03*
X452520Y190551D03*
X442520D03*
X452520Y200551D03*
X442520D03*
X452520Y210551D03*
X442520D03*
X452520Y220551D03*
X442520D03*
X452520Y230551D03*
X442520D03*
X452520Y240551D03*
X442520D03*
X452520Y250551D03*
X442520D03*
X452520Y260551D03*
X442520D03*
X452520Y270551D03*
X442520D03*
X452520Y280551D03*
X442520D03*
X452520Y290551D03*
X442520D03*
X452520Y300551D03*
X442520D03*
X452520Y310551D03*
X442520D03*
X452520Y320551D03*
X442520D03*
X452520Y330551D03*
X442520D03*
X452520Y340551D03*
X442520D03*
X452520Y350551D03*
X442520D03*
X452520Y360551D03*
X442520D03*
X452520Y370551D03*
X442520D03*
X452520Y380551D03*
X442520D03*
X192126Y107874D03*
X202126D03*
X212126D03*
X222126D03*
X338189Y111811D03*
X348189D03*
X358189D03*
X368189D03*
G54D33*
X192126Y107874D02*
X202126D01*
X202018Y120079D02*
Y107874D01*
X202126*
X202018*
Y120911*
X208853Y127746*
X222478*
X205669Y135585D02*
Y135433D01*
X209705*
X214705D02*
X222478D01*
Y135246*
X221003Y144488D02*
X221548D01*
X222478Y143558*
Y135246*
X230478Y131496D02*
X235364D01*
Y131519*
X235755Y131528*
Y131496*
X235746D02*
X235755D01*
X234903Y144488D02*
X240453D01*
Y144465*
X279890Y144444D02*
X279921D01*
Y150000*
X329879Y134222D02*
Y134252D01*
X335433*
X189764Y157650D02*
X207841D01*
X221003Y144488*
X254724Y150000D02*
Y144444D01*
X254756*
X254724Y150000D02*
Y155557D01*
X254830*
X279890D02*
X279921D01*
Y150000*
X329879Y159431D02*
Y159449D01*
X335433*
X340991*
Y159431*
G54D50*
X180315Y142520D03*
X189852Y142864D03*
X205669Y135585D03*
X235746Y131496D03*
X254756Y144444D03*
X279890D03*
X312205Y135433D03*
X295669Y135039D03*
X329879Y134222D03*
X137795Y158268D03*
X254830Y155557D03*
X279890D03*
X329879Y159431D03*
X340991D03*
X345276Y180315D03*
X303543Y272047D03*
X321654Y271260D03*
X250394Y349213D03*
X299213Y348031D03*
G54D73*
X335580Y179921D03*
X329380D03*
X341289Y200591D03*
X335089D03*
G54D80*
X156469Y158268D03*
X147469D03*
G54D81*
X348829Y194057D03*
X341329D03*
X285620Y236848D03*
X293120D03*
X222478Y135246D03*
Y127746D03*
G54D82*
X345079Y186057D03*
X289370Y244848D03*
G54D85*
X390157Y105118D02*
Y111664D01*
X390354*
X380315Y105118D02*
Y111664D01*
X380512*
X400000Y105118D02*
Y111664D01*
X400197*
X171909Y116142D02*
X171922D01*
Y120079*
X172047*
X162205Y108711D02*
X176821D01*
X188189Y120079*
X162205Y114911D02*
Y124665D01*
X188189Y120079D02*
Y123622D01*
X188287*
Y125591*
X222047Y120472D02*
Y127746D01*
X222478*
X312205Y124902D02*
X311417D01*
X315650*
X315748Y124803*
X301969Y124902D02*
X302756D01*
X300799Y112205D02*
Y113205D01*
X305118Y117524*
Y124902*
X312205D02*
Y135433D01*
X309843Y124902D02*
X311417D01*
X307480D02*
Y117524D01*
X311799Y113205*
Y112205*
X300394Y124902D02*
X301969D01*
X295669D02*
Y135039D01*
X348189Y111811D02*
Y129685D01*
X355906Y137402*
Y159055*
X390354Y117864D02*
Y127028D01*
X380512Y117864D02*
Y127028D01*
X400197Y117864D02*
Y127028D01*
X261220Y127461D02*
X274902D01*
X283858Y118504*
X296663*
X298031Y119872*
Y124902*
X303937Y144390D02*
X305118D01*
X301956Y131708D02*
X301969Y131695D01*
Y124902*
X312205Y135433D02*
Y144390D01*
X295669Y135039D02*
Y144390D01*
X302756D02*
X303937D01*
X307480D02*
Y150000D01*
X308268Y150787*
X309843Y144390D02*
Y148157D01*
X312598Y150913*
Y151353*
X312782*
X380315Y139370D02*
X380512D01*
Y132028*
X390354D02*
Y139370D01*
X390551*
X400197Y132028D02*
Y136614D01*
X400394*
X180315Y152756D02*
X180372Y152813D01*
Y155906*
Y157650*
X289522Y157256D02*
X292913D01*
Y157343*
Y162343D02*
Y168898D01*
X293169*
X292913Y162343D02*
Y162093D01*
X295669Y159337*
Y152756*
X298031Y150394*
Y144390*
X292913Y162343D02*
X298819D01*
X309587Y162992D02*
X313386D01*
X298819Y162343D02*
Y162992D01*
X304587*
X298819Y157343D02*
Y152756D01*
X300394Y151181*
Y144390*
X298819Y157343D02*
Y156683D01*
X302206*
Y156686*
X289370Y168898D02*
X293169D01*
X313061Y168800D02*
X313780Y168819D01*
X298169Y168898D02*
X304429D01*
Y168819*
X309429D02*
X313780D01*
X316535Y176772D02*
Y188583D01*
X326378Y198425*
X316535Y176772D02*
X322441Y170866D01*
X344094*
X355906Y159055*
X251575Y193425D02*
X256417Y188583D01*
X311614*
X327362Y204331*
X335039*
X341339Y210630*
Y219291*
X318504Y202362D02*
X318701D01*
X357087Y218898D02*
X359646D01*
X363780Y223031*
X364370*
X276772Y243061D02*
Y247336D01*
X276856*
X276772Y243061D02*
X276969D01*
X281102Y237008D02*
X285620D01*
Y236848*
X289370Y244848D02*
Y250000D01*
X276969Y236861D02*
Y237008D01*
X281102*
X348622Y232874D02*
X349213D01*
X353346Y237008*
X356693*
X311024Y260886D02*
X311433D01*
Y254528*
X311476*
X311024Y265886D02*
Y270399D01*
X311673Y271048*
Y277854*
X299803Y247776D02*
Y251575D01*
X300000*
X324803Y246850D02*
X325210D01*
Y249813*
X325969Y250571*
Y253012*
X326378*
X316476Y254528D02*
X316520D01*
Y260886*
X316929*
X326378Y258012D02*
Y261811D01*
X253150Y276772D02*
X256949D01*
X254232Y285236D02*
Y282677D01*
X256791*
Y285236*
X251673D02*
Y282677D01*
X254232*
Y285236*
X249114D02*
Y282677D01*
X251673*
Y285236*
X246555D02*
Y282677D01*
X249114*
Y285236*
X243996D02*
Y282677D01*
X246555*
Y285236*
X243996D02*
Y279528D01*
X244094*
X266929Y279134D02*
Y278937D01*
X272894*
X267028Y285236D02*
Y282677D01*
X270472*
X264469Y285236D02*
Y280896D01*
X266580Y278785*
X266929Y279134*
X261909Y285236D02*
Y276772D01*
X261949*
X256791Y285236D02*
Y282677D01*
X259350*
Y285236*
X277894Y278937D02*
X281890D01*
Y278740*
X303543Y272047D02*
X306673Y275565D01*
Y277854*
X321654Y271260D02*
X321673D01*
Y277854*
X316673D02*
Y270728D01*
X316929Y270472*
Y265886*
X243996Y314665D02*
Y314961D01*
X246555*
Y312402*
X245669Y326378D02*
X249469D01*
X245669Y320472D02*
X249469D01*
X241339Y317323D02*
X243996Y314665D01*
Y312402*
X246555D02*
Y314961D01*
X249114*
Y312402D02*
Y314961D01*
Y312402*
Y314961D02*
X251673D01*
Y312402*
Y314961*
X254232*
Y312402D02*
Y314961D01*
Y312402*
Y314961D02*
X256791D01*
Y312402*
X254469Y320472D02*
X258179D01*
X261909Y316742*
Y312402*
X254469Y320472D02*
Y326378D01*
X256791Y312402D02*
Y314961D01*
X259350*
Y312402*
X264469D02*
Y318898D01*
X264567*
X267028Y312402D02*
Y314702D01*
X270472Y317717*
X302937Y319923D02*
Y319685D01*
X306673*
Y319783*
X311673D02*
X312045D01*
Y328740*
X312461*
X325591Y321654D02*
X329528D01*
Y321703*
X316673Y319783D02*
X317045D01*
Y328740*
X317461*
X321673Y319783D02*
Y321654D01*
X325591*
X268307Y326715D02*
X270136D01*
X271260Y325591*
X311417Y334902D02*
X311817D01*
Y328740*
X312461*
X318312Y345815D02*
X320529Y348031D01*
X322304*
X318312Y345815D02*
Y344174D01*
X318504Y343983*
Y339902*
X325591Y327953D02*
X329528D01*
Y327903*
X317461Y328740D02*
X318104D01*
Y334902*
X318504*
X308404Y348031D02*
Y345411D01*
X311417Y342398*
Y339902*
G54D86*
X270530Y263780D03*
X257030D03*
X166872Y155906D03*
X180372D03*
G54D87*
X272894Y278937D03*
X277894D03*
X256949Y276772D03*
X261949D03*
X311476Y254528D03*
X316476D03*
X312461Y328740D03*
X317461D03*
X254469Y326378D03*
X249469D03*
Y320472D03*
X254469D03*
X304587Y162992D03*
X309587D03*
X304429Y168819D03*
X309429D03*
X293169Y168898D03*
X298169D03*
X214705Y135433D03*
X209705D03*
X176909Y116142D03*
X171909D03*
G54D93*
X326378Y253012D03*
Y258012D03*
X380512Y132028D03*
Y127028D03*
X390354Y132028D03*
Y127028D03*
X400197Y132028D03*
Y127028D03*
X299803Y247776D03*
Y242776D03*
X311417Y339902D03*
Y334902D03*
X318504Y339902D03*
Y334902D03*
X316929Y265886D03*
Y260886D03*
X311024Y265886D03*
Y260886D03*
X298819Y157343D03*
Y162343D03*
X292913Y157343D03*
Y162343D03*
X245669Y129665D03*
Y124665D03*
Y118248D03*
Y113248D03*
X162205Y129665D03*
Y124665D03*
G54D105*
X218110Y452362D03*
Y472362D03*
X157087Y385433D03*
X127559Y375591D03*
Y426772D03*
Y407087D03*
X159055Y454331D03*
Y474331D03*
X127362Y348425D03*
X169685D03*
X158858Y196850D03*
X127362D03*
X156469Y158268D02*
Y175646D01*
X158858Y178035*
Y196850*
X127362Y348425D02*
Y361909D01*
X127559Y362106*
Y375591*
X299213Y348031D02*
X308404D01*
X322304D02*
Y365848D01*
X343268Y386811*
X127559Y375591D02*
Y407087D01*
X157087Y385433D02*
Y391339D01*
X218110Y452362*
X231890Y385433D02*
X157087D01*
Y361024*
X169685Y348425*
X231890Y385433D02*
X283268D01*
Y386811*
X231890Y385433D02*
X250394Y366929D01*
Y349213*
X127559Y426772D02*
X136033D01*
X159055Y449794*
Y454331*
Y474331*
X218110Y452362D02*
Y472362D01*
G54D124*
X303937Y144390D02*
Y150548D01*
X303974*
G54D135*
X380512Y111664D03*
Y117864D03*
X390354Y111664D03*
Y117864D03*
X400197Y111664D03*
Y117864D03*
X276969Y243061D03*
Y236861D03*
X329528Y327903D03*
Y321703D03*
X162205Y114911D03*
Y108711D03*
G54D137*
X322304Y348031D03*
X308404D03*
X221003Y144488D03*
X234903D03*
G54D138*
X336122Y215157D03*
G54D139*
Y217126D03*
Y219094D03*
Y221063D03*
Y223031D03*
Y225000D03*
Y226969D03*
Y228937D03*
Y230906D03*
Y232874D03*
Y234843D03*
Y236811D03*
X303248D03*
Y234843D03*
Y232874D03*
Y230906D03*
Y228937D03*
Y226969D03*
Y225000D03*
Y223031D03*
Y221063D03*
Y219094D03*
Y217126D03*
Y215157D03*
G54D140*
X330512Y242421D03*
X328543D03*
X326575D03*
X324606D03*
X322638D03*
X320669D03*
X318701D03*
X316732D03*
X314764D03*
X312795D03*
X310827D03*
X308858D03*
Y209547D03*
X310827D03*
X312795D03*
X314764D03*
X316732D03*
X318701D03*
X320669D03*
X322638D03*
X324606D03*
X326575D03*
X328543D03*
X330512D03*
G54D141*
X230478Y131496D03*
G54D144*
X268307Y326715D03*
Y340215D03*
G54D145*
X254724Y150000D03*
X279921D03*
G54D148*
X335433Y159449D03*
Y134252D03*
G54D149*
X242126Y113386D02*
Y113248D01*
X245669*
Y124665D02*
Y118248D01*
X253740*
Y118209*
X259449Y116339D02*
X261220D01*
Y118209*
X259449Y112992D02*
Y116339D01*
X257480Y118209D02*
Y116339D01*
X259449*
X180315Y142520D02*
Y152756D01*
X245633Y133375D02*
X245669D01*
Y129665*
X253843Y132701D02*
X253937D01*
X253740Y127461D02*
X253937D01*
Y132701*
X324409Y179921D02*
X329380D01*
X345079Y186057D02*
X345276D01*
Y180315*
X335580Y179921D02*
X345276D01*
Y180315*
X330709Y200787D02*
X335089D01*
Y200591*
X341289D02*
Y194057D01*
X341329*
X341289Y200591D02*
Y200394D01*
X345669*
X348829Y194057D02*
Y193993D01*
X353150*
Y193701*
X270472Y271654D02*
Y263780D01*
X270530*
X257087D02*
Y271260D01*
X270472Y255906D02*
Y263780D01*
X257087Y256299D02*
Y263780D01*
X257030*
X264567Y318898D02*
Y326715D01*
X268307*
X260236Y340551D02*
X268307D01*
Y340215*
Y340157*
X275984*
G54D150*
X137795Y158268D02*
X147469D01*
X156469D02*
X166872D01*
Y155906*
X180372Y157650D02*
X189764D01*
Y148650D02*
Y142864D01*
X189852*
G54D151*
X390157Y105118D03*
X380315D03*
X400000D03*
X172835Y125984D03*
X172047Y120079D03*
X188189D03*
X222047Y120472D03*
X242126Y113386D03*
X259449Y112992D03*
X265354Y123228D03*
X315748Y124803D03*
X245633Y133375D03*
X240453Y144465D03*
X253843Y132701D03*
X301956Y131708D03*
X390551Y139370D03*
X380315D03*
X400394Y136614D03*
X289522Y157256D03*
X312782Y151353D03*
X313386Y162992D03*
X308268Y150787D03*
X302206Y156686D03*
X303974Y150548D03*
X289370Y168898D03*
X313061Y168800D03*
X298216Y172291D03*
X324409Y179921D03*
X326378Y198425D03*
X318504Y202362D03*
X322441Y204331D03*
X330709Y200787D03*
X345669Y200394D03*
X353150Y193701D03*
X303150Y212205D03*
X297244Y212992D03*
X312992Y223622D03*
X310054Y218716D03*
X330315Y217717D03*
X318504Y215748D03*
X323622Y225591D03*
X341339Y219291D03*
X335039Y208661D03*
X350394Y208268D03*
X357087Y218898D03*
X281102Y237008D03*
X314465Y233173D03*
X309449Y226772D03*
X307855Y237795D03*
X311998Y236566D03*
X329921Y231496D03*
X323594Y235460D03*
X318722Y237426D03*
X329528Y227165D03*
X348819Y240945D03*
X341339Y227165D03*
X356693Y237008D03*
X270472Y255906D03*
X257087Y256299D03*
X289370Y250000D03*
X276856Y247336D03*
X305118Y248031D03*
X300000Y251575D03*
X324803Y246850D03*
X320472Y248031D03*
X326378Y261811D03*
X244094Y279528D03*
X253150Y276772D03*
X266929Y279134D03*
X270472Y271654D03*
Y282677D03*
X257087Y271260D03*
X281890Y278740D03*
X245669Y326378D03*
Y320472D03*
X241339Y317323D03*
X264567Y318898D03*
X270472Y317717D03*
X302937Y319923D03*
X325591Y321654D03*
X260236Y340551D03*
X275984Y340157D03*
X325591Y327953D03*
G54D174*
X172835Y125984D02*
Y125591D01*
X177067*
X176909Y116142D02*
X177067Y116299D01*
Y123622*
Y125591D02*
Y127559D01*
X162205Y129665D02*
X162343Y129528D01*
X177067*
X188287D02*
X189370D01*
Y127559*
X188287D02*
X194538D01*
X202018Y120079*
X188287Y127559D02*
X189370D01*
X251575Y203425D02*
X256417Y208268D01*
X304649*
X305928Y209547*
X308858*
X261575Y193425D02*
X300383D01*
X312795Y205838*
Y209547*
X261575Y203425D02*
X307864D01*
X310827Y206388*
Y209547*
X318701Y202362D02*
Y209547D01*
X322441Y204331D02*
X322638Y208071D01*
Y209547*
X251575Y213425D02*
X257244Y219094D01*
X303248*
X303150Y212205D02*
Y215157D01*
X303248*
X297244Y212992D02*
Y216142D01*
X298228Y217126*
X303248*
X310054Y218716D02*
X313780Y214961D01*
X314764Y213976*
Y209547*
X303248Y225000D02*
X306890D01*
X308268Y223622*
X312992*
X330315Y217717D02*
X332874Y215157D01*
X336122*
X318504Y215748D02*
X325591D01*
X328543Y212795*
Y209547*
X330512D02*
Y209044D01*
X335039*
Y208661*
X336122Y223031D02*
X348622D01*
X294920Y236821D02*
X293701Y236811D01*
X300000*
X293120Y236848D02*
X294920Y236821D01*
X300000Y236811D02*
X303248D01*
X314465Y233173D02*
X314961D01*
Y238164*
X316732Y239936*
Y242421*
X307855Y237795D02*
X308858Y238798D01*
Y242421*
X299803Y242776D02*
X300000D01*
Y236811*
X303248Y226969D02*
X309449D01*
Y226772*
X310827Y242421D02*
Y237738D01*
X311998Y236566*
X314764Y242421D02*
Y248102D01*
X316476Y249815*
Y254528*
X329921Y231496D02*
Y230985D01*
X330001Y230906*
X336122*
X329528Y227165D02*
X329851Y226842D01*
X329851D02*
X331945Y228937D01*
X336122*
X318701Y242421D02*
Y237008D01*
X318722*
Y237426*
X322638Y242421D02*
Y245580D01*
X323908Y246850*
X324803*
X328543Y242421D02*
Y245580D01*
X333357Y250394*
X392362*
X442520Y300551*
X330512Y242421D02*
Y243898D01*
X335039Y248425*
X394094*
X440551Y294882*
X448189*
X452520Y290551*
X336122Y236811D02*
X337598D01*
X346457Y245669*
X395276*
X425197Y275591*
X447559*
X452520Y280551*
X336122Y234843D02*
X339960D01*
X346062Y240945*
X348819*
X336122Y232874D02*
X340800D01*
X345328Y237402*
X350197*
X353346Y240551*
X442520*
X336122Y226969D02*
X341339D01*
Y227165*
X311476Y254528D02*
Y249547D01*
X312795Y248228*
Y242421*
G54D184*
X364370Y232874D03*
X348622D03*
Y223031D03*
X364370D03*
G54D185*
X243996Y285236D03*
X246555D03*
X249114D03*
X251673D03*
X254232D03*
X256791D03*
X259350D03*
X261909D03*
X264469D03*
X267028D03*
Y312402D03*
X264469D03*
X261909D03*
X259350D03*
X256791D03*
X254232D03*
X251673D03*
X249114D03*
X246555D03*
X243996D03*
G54D186*
X321673Y319783D03*
X316673D03*
X311673D03*
X306673D03*
Y277854D03*
X311673D03*
X316673D03*
X321673D03*
G54D187*
X295669Y124902D03*
X298031D03*
X300394D03*
X302756D03*
X305118D03*
X307480D03*
X309843D03*
X312205D03*
Y144390D03*
X309843D03*
X307480D03*
X305118D03*
X302756D03*
X300394D03*
X298031D03*
X295669D03*
G54D188*
X300799Y112205D03*
X311799D03*
G54D189*
X253740Y118209D03*
X257480D03*
X261220D03*
Y127461D03*
X253740D03*
G54D190*
X188287Y123622D03*
Y125591D03*
Y127559D03*
Y129528D03*
Y131496D03*
X177067D03*
Y129528D03*
Y127559D03*
Y125591D03*
Y123622D03*
G54D191*
X182677Y127559D03*
G54D192*
X189764Y157650D03*
Y148650D03*
G74*
X0Y0D02*
M02*
